<?xml version="1.0" encoding="UTF-8" standalone="no"?>
<!DOCTYPE svg PUBLIC "-//W3C//DTD SVG 1.1//EN" "http://www.w3.org/Graphics/SVG/1.1/DTD/svg11.dtd">
<svg width="100%" height="100%" viewBox="0 0 1014 161" version="1.1" xmlns="http://www.w3.org/2000/svg" xmlns:xlink="http://www.w3.org/1999/xlink" xml:space="preserve" xmlns:serif="http://www.serif.com/" style="fill-rule:evenodd;clip-rule:evenodd;stroke-linejoin:round;stroke-miterlimit:2;">
    <g transform="matrix(1,0,0,1,-216.124,-3321.09)">
        <g transform="matrix(4.16667,0,0,4.16667,0,0)">
            <g transform="matrix(1,0,0,1,79.3378,812.955)">
                <path d="M0,6.751C0,10.179 -2.027,13.846 -7.721,13.846C-12.2,13.846 -15.448,11.076 -15.448,7.255L-15.448,3.259L-10.035,3.259L-10.035,7.069C-10.035,8.311 -9.223,9.633 -7.721,9.633C-6.315,9.633 -5.408,8.629 -5.408,7.069L-5.408,4.734C-5.408,2.898 -6.289,1.927 -7.275,1.009L-9.425,-0.886C-9.982,-1.374 -11.282,-2.775 -11.282,-5.242L-11.282,-7.095L-5.684,-7.095L-5.684,-6.564C-5.684,-5.264 -5.216,-4.213 -4.267,-3.358L-1.932,-1.215C-0.594,0.022 0,1.449 0,3.407L0,6.751ZM-8.199,-15.894C-18.844,-15.894 -27.468,-7.265 -27.468,3.376C-27.468,14.016 -18.844,22.645 -8.199,22.645C2.441,22.645 11.07,14.016 11.07,3.376C11.07,-7.265 2.441,-15.894 -8.199,-15.894" style="fill:rgb(6,7,6);fill-rule:nonzero;"/>
            </g>
        </g>
        <g transform="matrix(4.16667,0,0,4.16667,0,0)">
            <g transform="matrix(1,0,0,1,189.677,812.076)">
                <path d="M0,8.108L3.434,-1.991L6.835,8.108L0,8.108ZM4.76,-6.257L2.022,-6.257C2.022,-6.257 -3.699,9.546 -5.45,14.354L-5.456,14.365L-2.17,14.365C-2.054,13.999 -1.582,12.549 -1.21,11.627C-0.955,10.942 -0.594,10.676 0.063,10.676C2.717,10.698 4.824,10.681 6.708,10.655C7.424,10.655 7.854,10.973 8.061,11.653C8.279,12.305 8.847,13.945 8.99,14.365L12.291,14.365L4.76,-6.257Z" style="fill:rgb(6,7,6);fill-rule:nonzero;"/>
            </g>
        </g>
        <g transform="matrix(4.16667,0,0,4.16667,0,0)">
            <g transform="matrix(1,0,0,1,104.031,812.076)">
                <path d="M0,8.108L3.434,-1.991L6.835,8.108L0,8.108ZM4.76,-6.257L2.022,-6.257C2.022,-6.257 -3.699,9.546 -5.45,14.354L-5.456,14.365L-2.17,14.365C-2.054,13.999 -1.582,12.549 -1.21,11.627C-0.956,10.942 -0.595,10.676 0.063,10.676C2.717,10.698 4.824,10.681 6.708,10.655C7.424,10.655 7.854,10.973 8.061,11.653C8.278,12.305 8.846,13.945 8.99,14.365L12.291,14.365L4.76,-6.257Z" style="fill:rgb(6,7,6);fill-rule:nonzero;"/>
            </g>
        </g>
        <g transform="matrix(4.16667,0,0,4.16667,0,0)">
            <g transform="matrix(1,0,0,1,236.25,816.76)">
                <path d="M0,-1.263C-0.488,-1.236 -4.511,-1.242 -5.28,-1.246L-5.28,-8.055C-4.527,-8.066 -0.573,-8.109 0.376,-8.018C2.054,-7.869 3.131,-6.405 3.099,-4.612C3.067,-2.738 1.751,-1.364 0,-1.263M2.282,0.982C4.638,0.138 6.076,-1.889 6.145,-4.484C6.235,-7.817 4.022,-10.549 1.003,-10.799C-1.184,-10.98 -8.13,-10.915 -8.13,-10.915L-8.13,9.717L-5.333,9.707L-5.333,1.588L-0.679,1.597L3.274,9.701L6.533,9.696L2.282,0.982Z" style="fill:rgb(6,7,6);fill-rule:nonzero;"/>
            </g>
        </g>
        <g transform="matrix(4.16667,0,0,4.16667,0,0)">
            <g transform="matrix(1,0,0,1,175.916,816.788)">
                <path d="M0,-1.291C-0.488,-1.264 -4.511,-1.27 -5.28,-1.274L-5.28,-8.083C-4.526,-8.094 -0.573,-8.137 0.377,-8.046C2.059,-7.897 3.131,-6.433 3.1,-4.64C3.067,-2.766 1.751,-1.392 0,-1.291M2.282,0.954C4.638,0.11 6.077,-1.917 6.146,-4.512C6.236,-7.845 4.028,-10.546 1.003,-10.801C-1.183,-10.98 -8.13,-10.816 -8.13,-10.816L-8.13,9.689L-5.333,9.679L-5.333,1.56L-0.679,1.569L3.274,9.673L6.533,9.668L2.282,0.954Z" style="fill:rgb(6,7,6);fill-rule:nonzero;"/>
            </g>
        </g>
        <g transform="matrix(4.16667,0,0,4.16667,0,0)">
            <g transform="matrix(1,0,0,1,225.027,815.874)">
                <path d="M0,0.526L-0.002,-0.059L-8.031,-0.059L-8.031,2.485L-2.7,2.485L-2.707,3.211C-2.708,3.296 -2.718,4.06 -2.812,4.615C-3.205,6.94 -4.985,8.368 -7.473,8.368C-7.52,8.368 -7.567,8.367 -7.614,8.366C-10.101,8.315 -11.727,6.8 -11.857,4.414C-11.998,1.825 -12.001,-1.163 -11.868,-3.785C-11.749,-6.123 -10.304,-7.645 -8.097,-7.756C-5.513,-7.884 -3.888,-6.948 -3.112,-4.887L-3.075,-4.788L-0.177,-4.788L-0.206,-5.106C-0.83,-7.981 -3.262,-9.865 -6.506,-10.276C-6.866,-10.321 -7.229,-10.344 -7.589,-10.344C-9.435,-10.344 -11.171,-9.742 -12.479,-8.648C-13.832,-7.516 -14.627,-5.927 -14.716,-4.174C-14.851,-1.559 -14.874,1.538 -14.779,4.319C-14.695,6.804 -13.531,8.7 -11.319,9.953C-10.225,10.573 -9.006,10.87 -7.528,10.87C-7.287,10.87 -7.039,10.862 -6.783,10.846C-3.763,10.66 -1.271,8.81 -0.433,6.134C0.025,4.67 0.009,2.076 0,0.526" style="fill:rgb(6,7,6);fill-rule:nonzero;"/>
            </g>
        </g>
        <g transform="matrix(4.16667,0,0,4.16667,0,0)">
            <g transform="matrix(1,0,0,1,277.567,826.524)">
                <path d="M0,-20.513L-0.002,-20.694L-2.841,-20.694L-2.841,-20.511C-2.841,-18.079 -2.84,-11.268 -2.844,-7.755C-2.844,-7.341 -2.85,-6.86 -2.916,-6.387C-3.256,-3.912 -4.918,-2.434 -7.398,-2.434C-9.833,-2.449 -11.429,-3.888 -11.777,-6.383C-11.834,-6.799 -11.834,-7.201 -11.835,-7.591L-11.835,-7.667C-11.838,-11.206 -11.837,-18.092 -11.837,-20.538L-11.837,-20.721L-14.73,-20.721L-14.73,-20.538C-14.734,-18.229 -14.743,-10.373 -14.71,-6.292C-14.701,-5.068 -14.305,-3.885 -13.535,-2.777C-12.22,-0.885 -9.835,0.208 -7.348,0.208C-6.535,0.208 -5.71,0.091 -4.91,-0.153C-1.827,-1.09 0.029,-3.574 0.054,-6.795C0.085,-10.719 0.03,-18.19 0,-20.513" style="fill:rgb(6,7,6);fill-rule:nonzero;"/>
            </g>
        </g>
        <g transform="matrix(4.16667,0,0,4.16667,0,0)">
            <g transform="matrix(1,0,0,1,292.104,820.125)">
                <path d="M0,-7.96C-0.08,-6.007 -1.401,-4.617 -3.295,-4.511C-3.815,-4.479 -4.373,-4.469 -5.042,-4.469C-5.482,-4.469 -5.928,-4.474 -6.416,-4.479C-6.877,-4.484 -7.345,-4.489 -7.817,-4.489L-8.507,-4.489L-8.507,-11.808C-7.636,-11.818 -3.895,-11.86 -2.892,-11.771C-1.109,-11.606 0.08,-10.04 0,-7.96M-2.25,-14.169C-4.235,-14.334 -9.17,-14.323 -10.794,-14.317L-11.415,-14.317L-11.415,6.374L-8.56,6.374L-8.56,-2.022C-7.626,-2.022 -3.534,-2.038 -2.68,-2.096C0.531,-2.319 2.834,-4.771 2.924,-8.061C3.009,-11.346 0.833,-13.914 -2.25,-14.169" style="fill:rgb(6,7,6);fill-rule:nonzero;"/>
            </g>
        </g>
        <g transform="matrix(4.16667,0,0,4.16667,0,0)">
            <g transform="matrix(1,0,0,1,124.386,826.912)">
                <rect x="0" y="0" width="0.001" height="0.001" style="fill:rgb(6,7,6);"/>
            </g>
        </g>
        <g transform="matrix(4.16667,0,0,4.16667,0,0)">
            <g transform="matrix(1,0,0,1,171.484,805.649)">
                <rect x="0" y="0" width="0.001" height="0.001" style="fill:rgb(6,7,6);"/>
            </g>
        </g>
        <g transform="matrix(4.16667,0,0,4.16667,0,0)">
            <g transform="matrix(1,0,0,1,130.719,811.73)">
                <path d="M0,8.926C-0.074,10.641 -1.269,11.941 -3.041,12.243C-3.609,12.339 -4.458,12.387 -5.567,12.387C-6.825,12.387 -8.624,12.285 -8.624,12.285L-8.624,11.638C-8.619,11.447 -8.571,2.049 -8.571,-2.78L-8.571,-3.454L-7.722,-3.465C-5.609,-3.512 -4.092,-3.465 -3.206,-3.322C-1.38,-3.024 -0.202,-1.74 -0.127,0.032C-0.127,0.032 0.122,6.198 0,8.926M2.818,-0.048C2.521,-3.248 0.297,-5.428 -2.977,-5.736C-5.132,-5.747 -11.5,-5.816 -11.5,-5.816C-11.5,-5.816 -11.505,8.184 -11.505,14.716C-10.714,14.722 -3.402,14.742 -3.407,14.732C-0.329,14.594 2.017,12.726 2.685,9.983C2.813,9.462 2.85,8.921 2.85,8.385C2.85,6.31 2.823,-0.026 2.818,-0.048" style="fill:rgb(6,7,6);fill-rule:nonzero;"/>
            </g>
        </g>
        <g transform="matrix(4.16667,0,0,4.16667,0,0)">
            <g transform="matrix(1,0,0,1,143.52,827.283)">
                <path d="M0,-21.469C0,-21.469 0.014,-9.123 -0.012,-7.301C-0.072,-5.749 -0.46,-4.803 -1.389,-4.052C-2.312,-3.306 -3.665,-3.045 -5.039,-3.354C-6.031,-3.586 -6.696,-4.237 -6.749,-4.265L-8.661,-2.068C-6.463,-0.341 -3.688,0 -0.82,-1.115C1.711,-2.097 2.909,-4.355 2.915,-7.403C2.919,-11.69 2.914,-21.469 2.914,-21.469L0,-21.469Z" style="fill:rgb(6,7,6);fill-rule:nonzero;"/>
            </g>
        </g>
        <g transform="matrix(4.16667,0,0,4.16667,0,0)">
            <g transform="matrix(1,0,0,1,256.824,811.746)">
                <path d="M0,8.905C-0.106,10.889 -2.022,12.466 -4.352,12.493C-6.692,12.466 -8.607,10.889 -8.714,8.905C-8.868,6.045 -8.894,2.892 -8.74,-0.016C-8.629,-2.107 -6.851,-3.651 -4.516,-3.694L-4.256,-3.694C-1.916,-3.651 -0.138,-2.107 -0.026,-0.016C0.127,2.892 0.154,6.045 0,8.905M2.893,0.016C2.611,-3.709 -0.578,-5.864 -3.582,-6.066C-3.837,-6.087 -4.091,-6.092 -4.335,-6.092C-4.357,-6.092 -4.93,-6.087 -5.185,-6.066C-8.188,-5.864 -11.377,-3.709 -11.659,0.016C-11.765,1.438 -11.786,6.782 -11.749,7.865C-11.654,10.773 -10.497,12.805 -8.22,14.085C-7.132,14.695 -5.906,14.992 -4.474,14.997L-4.25,14.997C-2.813,14.997 -1.581,14.7 -0.493,14.085C1.783,12.805 2.94,10.773 3.041,7.865C3.073,6.782 2.999,1.438 2.893,0.016" style="fill:rgb(6,7,6);fill-rule:nonzero;"/>
            </g>
        </g>
        <g transform="matrix(4.16667,0,0,4.16667,0,0)">
            <g transform="matrix(1,0,0,1,153.342,812.076)">
                <path d="M0,8.108L3.433,-1.991L6.835,8.108L0,8.108ZM4.76,-6.257L2.016,-6.257C2.016,-6.257 -3.699,9.546 -5.45,14.354L-5.456,14.365L-2.171,14.365C-2.054,13.999 -1.582,12.549 -1.21,11.627C-0.956,10.942 -0.6,10.676 0.063,10.676C2.711,10.698 4.824,10.681 6.708,10.655C7.424,10.655 7.854,10.973 8.061,11.653C8.278,12.305 8.846,13.945 8.989,14.365L12.291,14.365L4.76,-6.257Z" style="fill:rgb(6,7,6);fill-rule:nonzero;"/>
            </g>
        </g>
    </g>
</svg>
