<?xml version="1.0" encoding="UTF-8" standalone="no"?>
<!DOCTYPE svg PUBLIC "-//W3C//DTD SVG 1.1//EN" "http://www.w3.org/Graphics/SVG/1.1/DTD/svg11.dtd">
<svg width="100%" height="100%" viewBox="0 0 1535 163" version="1.1" xmlns="http://www.w3.org/2000/svg" xmlns:xlink="http://www.w3.org/1999/xlink" xml:space="preserve" xmlns:serif="http://www.serif.com/" style="fill-rule:evenodd;clip-rule:evenodd;stroke-linejoin:round;stroke-miterlimit:2;">
    <g transform="matrix(1,0,0,1,-212.389,-3576.82)">
        <g transform="matrix(4.16667,0,0,4.16667,0,0)">
            <g transform="matrix(1,0,0,1,190.642,873.65)">
                <path d="M0,8.217L3.481,-2.018L6.927,8.217L0,8.217ZM4.825,-6.342L2.046,-6.342C2.046,-6.342 -3.749,9.676 -5.525,14.549L-5.529,14.559L-2.201,14.559C-2.08,14.187 -1.602,12.722 -1.226,11.785C-0.968,11.092 -0.606,10.821 0.064,10.821C2.751,10.844 4.889,10.825 6.797,10.8C7.523,10.8 7.958,11.12 8.168,11.814C8.391,12.474 8.965,14.138 9.11,14.559L12.456,14.559L4.825,-6.342Z" style="fill:rgb(8,10,9);fill-rule:nonzero;"/>
            </g>
        </g>
        <g transform="matrix(4.16667,0,0,4.16667,0,0)">
            <g transform="matrix(1,0,0,1,103.84,873.65)">
                <path d="M0,8.217L3.481,-2.018L6.927,8.217L0,8.217ZM4.825,-6.342L2.046,-6.342C2.046,-6.342 -3.749,9.676 -5.525,14.549L-5.529,14.559L-2.201,14.559C-2.08,14.187 -1.602,12.722 -1.226,11.785C-0.968,11.092 -0.606,10.821 0.064,10.821C2.751,10.844 4.889,10.825 6.797,10.8C7.523,10.8 7.958,11.12 8.168,11.814C8.391,12.474 8.965,14.138 9.11,14.559L12.456,14.559L4.825,-6.342Z" style="fill:rgb(8,10,9);fill-rule:nonzero;"/>
            </g>
        </g>
        <g transform="matrix(4.16667,0,0,4.16667,0,0)">
            <g transform="matrix(1,0,0,1,232.489,885.284)">
                <path d="M0,-15.048C0.765,-15.058 4.77,-15.1 5.732,-15.012C7.436,-14.858 8.523,-13.376 8.493,-11.557C8.462,-9.66 7.126,-8.267 5.351,-8.164C4.857,-8.136 0.779,-8.143 0,-8.146L0,-15.048ZM7.663,-5.886C10.051,-6.741 11.512,-8.8 11.582,-11.426C11.672,-14.804 9.431,-17.573 6.369,-17.829C4.154,-18.013 -2.888,-17.948 -2.888,-17.948L-2.888,2.965L-0.054,2.955L-0.054,-5.275L4.662,-5.263L8.671,2.95L11.974,2.944L7.663,-5.886Z" style="fill:rgb(8,10,9);fill-rule:nonzero;"/>
            </g>
        </g>
        <g transform="matrix(4.16667,0,0,4.16667,0,0)">
            <g transform="matrix(1,0,0,1,171.343,885.313)">
                <path d="M0,-15.077C0.765,-15.087 4.77,-15.129 5.732,-15.041C7.436,-14.887 8.523,-13.405 8.493,-11.586C8.462,-9.689 7.126,-8.296 5.351,-8.193C4.858,-8.165 0.779,-8.172 0,-8.175L0,-15.077ZM7.663,-5.915C10.051,-6.77 11.512,-8.829 11.582,-11.455C11.672,-14.833 9.432,-17.573 6.369,-17.828C4.154,-18.013 -2.888,-17.845 -2.888,-17.845L-2.888,2.936L-0.054,2.926L-0.054,-5.304L4.662,-5.292L8.671,2.921L11.974,2.915L7.663,-5.915Z" style="fill:rgb(8,10,9);fill-rule:nonzero;"/>
            </g>
        </g>
        <g transform="matrix(4.16667,0,0,4.16667,0,0)">
            <g transform="matrix(1,0,0,1,226.467,877.5)">
                <path d="M0,0.534L-0.002,-0.059L-8.139,-0.059L-8.139,2.519L-2.736,2.519L-2.743,3.255C-2.744,3.342 -2.754,4.115 -2.85,4.678C-3.248,7.034 -5.052,8.481 -7.573,8.481C-7.621,8.481 -7.669,8.481 -7.717,8.479C-10.237,8.428 -11.885,6.892 -12.017,4.473C-12.159,1.85 -12.163,-1.179 -12.028,-3.835C-11.907,-6.204 -10.442,-7.747 -8.206,-7.861C-5.587,-7.989 -3.94,-7.041 -3.154,-4.952L-3.116,-4.853L-0.179,-4.853L-0.208,-5.174C-0.841,-8.087 -3.306,-9.997 -6.594,-10.413C-6.958,-10.459 -7.327,-10.483 -7.691,-10.483C-9.562,-10.483 -11.322,-9.872 -12.647,-8.764C-14.018,-7.616 -14.824,-6.006 -14.915,-4.23C-15.051,-1.579 -15.074,1.559 -14.979,4.379C-14.893,6.897 -13.713,8.817 -11.471,10.088C-10.362,10.717 -9.128,11.017 -7.63,11.017C-7.385,11.017 -7.133,11.009 -6.874,10.993C-3.813,10.804 -1.287,8.93 -0.439,6.218C0.025,4.733 0.009,2.104 0,0.534" style="fill:rgb(8,10,9);fill-rule:nonzero;"/>
            </g>
        </g>
        <g transform="matrix(4.16667,0,0,4.16667,0,0)">
            <g transform="matrix(1,0,0,1,279.716,888.294)">
                <path d="M0,-20.789L-0.002,-20.972L-2.879,-20.972L-2.879,-20.786C-2.879,-18.322 -2.879,-11.419 -2.882,-7.858C-2.883,-7.438 -2.889,-6.951 -2.955,-6.473C-3.3,-3.964 -4.985,-2.466 -7.499,-2.466C-9.966,-2.481 -11.583,-3.939 -11.936,-6.468C-11.994,-6.89 -11.995,-7.298 -11.995,-7.692L-11.995,-7.769C-11.998,-11.356 -11.997,-18.335 -11.997,-20.814L-11.997,-21L-14.929,-21L-14.929,-20.814C-14.933,-18.474 -14.942,-10.513 -14.909,-6.376C-14.899,-5.136 -14.498,-3.936 -13.717,-2.812C-12.385,-0.895 -9.968,0.211 -7.447,0.211C-6.623,0.211 -5.788,0.093 -4.976,-0.153C-1.852,-1.104 0.029,-3.621 0.055,-6.886C0.086,-10.863 0.03,-18.434 0,-20.789" style="fill:rgb(8,10,9);fill-rule:nonzero;"/>
            </g>
        </g>
        <g transform="matrix(4.16667,0,0,4.16667,0,0)">
            <g transform="matrix(1,0,0,1,294.447,881.811)">
                <path d="M0,-8.07C-0.078,-6.088 -1.419,-4.682 -3.335,-4.571C-3.865,-4.541 -4.429,-4.526 -5.109,-4.526C-5.555,-4.526 -6.004,-4.533 -6.498,-4.539C-6.967,-4.546 -7.44,-4.551 -7.921,-4.551L-8.619,-4.551L-8.619,-11.967C-7.739,-11.978 -3.945,-12.02 -2.928,-11.928C-1.122,-11.763 0.083,-10.177 0,-8.07M-2.278,-14.361C-4.29,-14.529 -9.293,-14.515 -10.937,-14.512L-11.383,-14.511L-11.568,-14.511L-11.569,6.459L-8.672,6.459L-8.672,-2.049C-7.727,-2.052 -3.58,-2.065 -2.714,-2.126C0.54,-2.35 2.874,-4.836 2.963,-8.169C3.052,-11.497 0.848,-14.101 -2.278,-14.361" style="fill:rgb(8,10,9);fill-rule:nonzero;"/>
            </g>
        </g>
        <g transform="matrix(4.16667,0,0,4.16667,0,0)">
            <g transform="matrix(1,0,0,1,172.202,867.138)">
                <rect x="0" y="0" width="0.001" height="0.001" style="fill:rgb(8,10,9);"/>
            </g>
        </g>
        <g transform="matrix(4.16667,0,0,4.16667,0,0)">
            <g transform="matrix(1,0,0,1,122.15,870.555)">
                <path d="M0,14.544C0.001,14.349 0.05,4.823 0.05,-0.071L0.05,-0.754L0.912,-0.765C3.053,-0.815 4.593,-0.768 5.487,-0.622C7.337,-0.319 8.532,0.984 8.605,2.779C8.605,2.779 8.86,9.029 8.739,11.794C8.662,13.529 7.452,14.849 5.653,15.154C5.078,15.252 4.218,15.302 3.097,15.302C1.82,15.302 -0.005,15.2 -0.005,15.2L0,14.544ZM5.286,17.678C8.405,17.535 10.778,15.642 11.458,12.863C11.587,12.335 11.624,11.789 11.624,11.245C11.624,9.141 11.596,2.723 11.592,2.698C11.291,-0.545 9.041,-2.754 5.719,-3.069C3.535,-3.078 -2.916,-3.145 -2.916,-3.145C-2.916,-3.145 -2.922,11.042 -2.922,17.66C-2.12,17.665 5.289,17.689 5.286,17.678" style="fill:rgb(8,10,9);fill-rule:nonzero;"/>
            </g>
        </g>
        <g transform="matrix(4.16667,0,0,4.16667,0,0)">
            <g transform="matrix(1,0,0,1,143.862,889.064)">
                <path d="M0,-21.759C0,-21.759 0.014,-9.246 -0.013,-7.4C-0.073,-5.826 -0.467,-4.867 -1.408,-4.107C-2.344,-3.351 -3.715,-3.086 -5.107,-3.399C-6.113,-3.634 -6.787,-4.293 -6.84,-4.322L-8.777,-2.095C-6.551,-0.346 -3.739,0 -0.832,-1.129C1.734,-2.125 2.948,-4.413 2.953,-7.502C2.958,-11.847 2.952,-21.759 2.952,-21.759L0,-21.759Z" style="fill:rgb(8,10,9);fill-rule:nonzero;"/>
            </g>
        </g>
        <g transform="matrix(4.16667,0,0,4.16667,0,0)">
            <g transform="matrix(1,0,0,1,258.694,873.316)">
                <path d="M0,9.028C-0.109,11.037 -2.049,12.633 -4.413,12.664C-6.782,12.633 -8.722,11.037 -8.831,9.028C-8.987,6.127 -9.016,2.932 -8.86,-0.016C-8.748,-2.135 -6.946,-3.701 -4.577,-3.739C-4.56,-3.739 -4.5,-3.74 -4.442,-3.74C-4.385,-3.74 -4.33,-3.739 -4.313,-3.739C-1.943,-3.701 -0.141,-2.135 -0.029,-0.016C0.127,2.932 0.156,6.127 0,9.028M2.929,0.015C2.644,-3.759 -0.587,-5.942 -3.632,-6.148C-3.892,-6.165 -4.145,-6.174 -4.392,-6.174C-4.417,-6.174 -4.998,-6.165 -5.257,-6.148C-8.302,-5.942 -11.533,-3.759 -11.818,0.015C-11.927,1.46 -11.946,6.874 -11.91,7.974C-11.81,10.921 -10.639,12.982 -8.331,14.278C-7.23,14.896 -5.987,15.198 -4.534,15.199L-4.385,15.202L-4.331,15.199L-4.308,15.199C-2.849,15.199 -1.603,14.897 -0.5,14.278C1.809,12.982 2.979,10.92 3.079,7.974C3.116,6.874 3.038,1.46 2.929,0.015" style="fill:rgb(8,10,9);fill-rule:nonzero;"/>
            </g>
        </g>
        <g transform="matrix(4.16667,0,0,4.16667,0,0)">
            <g transform="matrix(1,0,0,1,153.814,873.65)">
                <path d="M0,8.217L3.481,-2.018L6.927,8.217L0,8.217ZM4.825,-6.342L2.046,-6.342C2.046,-6.342 -3.749,9.676 -5.525,14.549L-5.529,14.559L-2.201,14.559C-2.08,14.187 -1.602,12.722 -1.226,11.785C-0.968,11.092 -0.606,10.821 0.064,10.821C2.751,10.844 4.889,10.825 6.797,10.8C7.524,10.8 7.959,11.12 8.168,11.814C8.391,12.474 8.965,14.138 9.111,14.559L12.456,14.559L4.825,-6.342Z" style="fill:rgb(8,10,9);fill-rule:nonzero;"/>
            </g>
        </g>
        <g transform="matrix(4.16667,0,0,4.16667,0,0)">
            <g transform="matrix(1,0,0,1,78.8134,874.542)">
                <path d="M0,6.845C0,10.32 -2.057,14.032 -7.827,14.032C-12.362,14.032 -15.654,11.225 -15.654,7.357L-15.654,3.304L-10.172,3.304L-10.172,7.165C-10.172,8.426 -9.35,9.765 -7.827,9.765C-6.403,9.765 -5.482,8.744 -5.482,7.165L-5.482,4.798C-5.482,2.937 -6.373,1.956 -7.376,1.025L-9.554,-0.897C-10.118,-1.391 -11.432,-2.81 -11.432,-5.31L-11.432,-7.187L-5.758,-7.187L-5.758,-6.653C-5.758,-5.335 -5.287,-4.269 -4.322,-3.401L-1.957,-1.227C-0.604,0.026 0,1.47 0,3.454L0,6.845ZM-8.312,-16.106C-19.097,-16.106 -27.84,-7.363 -27.84,3.422C-27.84,14.208 -19.097,22.951 -8.312,22.951C2.474,22.951 11.218,14.208 11.218,3.422C11.218,-7.363 2.474,-16.106 -8.312,-16.106" style="fill:rgb(8,10,9);fill-rule:nonzero;"/>
            </g>
        </g>
        <g transform="matrix(4.16667,0,0,4.16667,0,0)">
            <g transform="matrix(1,0,0,1,317.521,876.337)">
                <path d="M0,2.617L-7.98,2.617L-7.98,11.692L-11.025,11.692L-11.025,-9.075L-7.98,-9.075L-7.98,-0.173L0,-0.173L0,-9.075L3.046,-9.075L3.046,11.692L0,11.692L0,2.617Z" style="fill:rgb(8,10,9);fill-rule:nonzero;"/>
            </g>
        </g>
        <g transform="matrix(4.16667,0,0,4.16667,0,0)">
            <g transform="matrix(1,0,0,1,343.188,888.03)">
                <path d="M0,-20.768L3.045,-20.768L3.045,-2.963L12.85,-2.963L12.85,0L0,0L0,-20.768Z" style="fill:rgb(8,10,9);fill-rule:nonzero;"/>
            </g>
        </g>
        <g transform="matrix(4.16667,0,0,4.16667,0,0)">
            <g transform="matrix(1,0,0,1,0,734.822)">
                <rect x="377.787" y="132.44" width="3.045" height="20.768" style="fill:rgb(8,10,9);"/>
            </g>
        </g>
        <g transform="matrix(4.16667,0,0,4.16667,0,0)">
            <g transform="matrix(1,0,0,1,385.307,888.03)">
                <path d="M0,-20.768L2.872,-20.768L11.982,-6.004L12.037,-6.004L12.037,-20.768L15.082,-20.768L15.082,0L12.197,0L3.102,-14.764L3.046,-14.764L3.046,0L0,0L0,-20.768Z" style="fill:rgb(8,10,9);fill-rule:nonzero;"/>
            </g>
        </g>
        <g transform="matrix(4.16667,0,0,4.16667,0,0)">
            <g transform="matrix(1,0,0,1,419.343,877.5)">
                <path d="M0,0.534L-0.002,-0.059L-8.139,-0.059L-8.139,2.519L-2.736,2.519L-2.743,3.255C-2.744,3.342 -2.754,4.115 -2.85,4.678C-3.248,7.034 -5.052,8.481 -7.573,8.481C-7.621,8.481 -7.668,8.481 -7.717,8.479C-10.237,8.428 -11.885,6.892 -12.017,4.473C-12.159,1.85 -12.163,-1.179 -12.027,-3.835C-11.907,-6.204 -10.442,-7.747 -8.206,-7.861C-5.587,-7.989 -3.94,-7.041 -3.154,-4.952L-3.116,-4.853L-0.179,-4.853L-0.208,-5.174C-0.84,-8.087 -3.306,-9.997 -6.594,-10.413C-6.958,-10.459 -7.327,-10.483 -7.691,-10.483C-9.562,-10.483 -11.322,-9.872 -12.647,-8.764C-14.018,-7.616 -14.824,-6.006 -14.915,-4.23C-15.051,-1.579 -15.074,1.559 -14.979,4.379C-14.893,6.897 -13.713,8.817 -11.471,10.088C-10.362,10.717 -9.127,11.017 -7.63,11.017C-7.385,11.017 -7.133,11.009 -6.874,10.993C-3.813,10.804 -1.287,8.93 -0.439,6.218C0.025,4.733 0.009,2.104 0,0.534" style="fill:rgb(8,10,9);fill-rule:nonzero;"/>
            </g>
        </g>
        <g transform="matrix(4.16667,0,0,4.16667,0,0)">
            <g transform="matrix(1,0,0,1,362.234,870.555)">
                <path d="M0,14.544C0.001,14.349 0.05,4.823 0.05,-0.071L0.05,-0.754L0.912,-0.765C3.053,-0.815 4.593,-0.768 5.487,-0.622C7.337,-0.319 8.532,0.984 8.605,2.779C8.605,2.779 8.86,9.029 8.739,11.794C8.662,13.529 7.452,14.849 5.653,15.154C5.078,15.252 4.218,15.302 3.097,15.302C1.82,15.302 -0.005,15.2 -0.005,15.2L0,14.544ZM5.286,17.678C8.405,17.535 10.778,15.642 11.458,12.863C11.587,12.335 11.624,11.789 11.624,11.245C11.624,9.141 11.596,2.723 11.592,2.698C11.292,-0.545 9.041,-2.754 5.719,-3.069C3.535,-3.078 -2.916,-3.145 -2.916,-3.145C-2.916,-3.145 -2.922,11.042 -2.922,17.66C-2.12,17.665 5.289,17.689 5.286,17.678" style="fill:rgb(8,10,9);fill-rule:nonzero;"/>
            </g>
        </g>
        <g transform="matrix(4.16667,0,0,4.16667,0,0)">
            <g transform="matrix(1,0,0,1,336.246,873.316)">
                <path d="M0,9.028C-0.109,11.037 -2.049,12.633 -4.413,12.664C-6.782,12.633 -8.722,11.037 -8.831,9.028C-8.987,6.127 -9.017,2.932 -8.86,-0.016C-8.748,-2.135 -6.946,-3.701 -4.577,-3.739C-4.56,-3.739 -4.5,-3.74 -4.442,-3.74C-4.385,-3.74 -4.33,-3.739 -4.313,-3.739C-1.943,-3.701 -0.141,-2.135 -0.029,-0.016C0.127,2.932 0.156,6.127 0,9.028M2.929,0.015C2.644,-3.759 -0.587,-5.942 -3.632,-6.148C-3.892,-6.165 -4.145,-6.174 -4.392,-6.174C-4.417,-6.174 -4.998,-6.165 -5.257,-6.148C-8.302,-5.942 -11.533,-3.759 -11.818,0.015C-11.927,1.46 -11.946,6.874 -11.91,7.974C-11.81,10.921 -10.639,12.982 -8.331,14.278C-7.23,14.896 -5.987,15.198 -4.534,15.199L-4.385,15.202L-4.331,15.199L-4.308,15.199C-2.849,15.199 -1.603,14.897 -0.5,14.278C1.809,12.982 2.979,10.92 3.079,7.974C3.115,6.874 3.038,1.46 2.929,0.015" style="fill:rgb(8,10,9);fill-rule:nonzero;"/>
            </g>
        </g>
    </g>
</svg>
