<svg id="Layer_1" data-name="Layer 1" xmlns="http://www.w3.org/2000/svg" width="1920" height="1080" viewBox="0 0 1920 1080">
  <defs>
    <style>
      .cls-1, .cls-5, .cls-6 {
        fill: none;
      }

      .cls-1 {
        stroke: #e96d5e;
      }

      .cls-1, .cls-5 {
        stroke-miterlimit: 10;
        stroke-width: 46px;
      }

      .cls-2 {
        fill: #e96d5e;
      }

      .cls-3 {
        fill: #8eb4c0;
      }

      .cls-4 {
        fill: #8fb3c0;
      }

      .cls-5 {
        stroke: #8fb3c0;
      }
    </style>
  </defs>
  <path class="cls-1" d="M654.39,1216.15c-1-269.64,175.94-410.44,334.62-359.61,149.76,48,199.58,153.83,211.87,392,8.25,160,104.32,269.06,220.93,327.91"/>
  <path class="cls-2" d="M206.63,407.45v.28a1.65,1.65,0,0,0,.06.32h0v.22h0v.37a1.59,1.59,0,0,0,.07.2l.06.17h0l.07.18v.09h0l.05.1.05.12.08.15v.05h0v.06a.54.54,0,0,1,.07.13v.05l.09.14h0a2.39,2.39,0,0,0,.13.21c.06.09.12.19.19.28l.1.14h0l0,.07h0a.39.39,0,0,0,.08.1h0l.09.12.13.14.15.15.13.13.08.08.08.07.08.08h0l.15.13.14.11h0l.09.06h0a6.84,6.84,0,0,0,2.68,1.2H212l.43.05h2a7.34,7.34,0,0,0,1.71-.58.17.17,0,0,1,.24.08.14.14,0,0,1,0,.11l-.33,1.47a6.87,6.87,0,0,0,5.25,8.16h0a6.71,6.71,0,0,0,4.47-.57,3.7,3.7,0,0,0,.43-.25c.35-.21.56-.06.46.34s-.12.5-.12.5a6.87,6.87,0,0,0,13.46,2.77l.53-2.55a.23.23,0,0,1,.27-.19.24.24,0,0,1,.14.09,7.72,7.72,0,0,0,4.18,2.8,7,7,0,0,0,8.13-5.26l1.41-6.35a4,4,0,0,1,4.28-3.07q3,.33,6.13.6c37.29,3.34,67.68,0,87.88-9.76,21.77-10.48,36.57-47.78,22.81-76.36-7.8-16.19-17.27-28.33-29-37.12-10.2-7.67-22.17-12.81-36.6-15.71-29.56-5.94-64.93-1.49-99.13,2.82-32.92,4.15-64,8.07-92.54,3.85C82.7,273.68,56.83,255.3,42,224.4a107.55,107.55,0,0,1-4-83c8-22.06,27.62-53.16,75.29-76.12,40.31-19.41,85-21,136.66-4.77,42.42,13.3,82.8,36.17,121.84,58.29,53.88,30.52,169.21,92,198.81,77.73,21-10.1,31.56-25.28,33.32-47.79,1.25-16-2.1-35-9.75-55.91h0c-12.47-30-22.3-62.29-9.59-99.08,10.08-29.18,39.21-72,109.54-54.63,9.86,2.43,31.06,5.39,31.06,5.39l18.6,45.88s-12.9,6.7-17.55,4.5C654.55-39,637-9,631.4,3.09c-8,17.47-8.49,30.48-.74,49.69,35.8,88.72,26.1,156.83-38.75,188.05-52.77,25.42-179-42.21-244.35-79.25-36.82-20.85-74.89-42.41-112.33-54.15-39.72-12.46-71.7-11.78-100.62,2.15-26,12.49-43.39,29.32-50.43,48.65a58.16,58.16,0,0,0,2.06,44.84c7.79,16.18,19.7,24.35,39.8,27.33,21.87,3.23,49.72-.28,79.2-4,38.12-4.8,77.54-9.77,115-2.24,21.49,4.32,40.48,12.6,56.45,24.61,17.87,13.44,32.58,32,43.71,55.08a103.68,103.68,0,0,1,10.14,41.93,114.23,114.23,0,0,1-6.07,40.46c-9.14,27-27.65,48.05-49.84,59.59-35.3,18.35-109.09,14.47-120.5,13.71a.58.58,0,0,1-.5-.65.59.59,0,0,1,.18-.35l4.35-3.43a8,8,0,0,0,2.47-3.31,7.85,7.85,0,0,0,.75-3.6l-.25-10.91a8.39,8.39,0,0,0-2.63-5.87,7.93,7.93,0,0,0-5.79-2.17,8.23,8.23,0,0,0-3.16.79A8.1,8.1,0,0,0,245,437.5l.11,4.7a5.26,5.26,0,0,1-2,4.22l-7.23,5.7-.23.18c-2.48,1.72-3.76,1.78-4.23,1.72h-.21l-36-6.14-.63-.11-6.6-1.12-1.67-.29-3.92-.9a5.62,5.62,0,0,1-4.25-6.7,5.26,5.26,0,0,1,5.77-4.32h0L191,436l3.88.85h.26a.52.52,0,0,0,.21-.07.74.74,0,0,0,.39-.49.73.73,0,0,0-.55-.87l-3.55-.78h0l-6.76-1.5A5.63,5.63,0,1,1,186.53,422h0l10.11,2.22,3.67.81a1.13,1.13,0,0,0,.26,0l.21-.06a.74.74,0,0,0,.27-1.09h0a.66.66,0,0,0-.42-.27l-3.34-.74-6.59-1.45h-.19a5.87,5.87,0,0,1-4-3.16,5.29,5.29,0,0,1-.41-3.46c.67-3,3.06-4.79,6.1-4.11l3.81.79,6.15,1.35,2.07.46a.65.65,0,0,0,.39,0h.07a.75.75,0,0,0,.4-.5.71.71,0,0,0-.31-.76h0a.51.51,0,0,0-.24-.1l-1.74-.39-1-.22h-.11l-2.3-.54-.2,0H199l-.19-.06-.2-.07c-.23-.1-.46-.2-.68-.32l-.09-.06-.19-.11-.1-.06-.19-.14-.09-.07-.1-.07-.18-.15-.21-.19-.11-.11-.1-.1-.1-.11-.09-.11a5.3,5.3,0,0,1-.79-1.2,5.57,5.57,0,0,1-.3-.77h0v-.15a1.87,1.87,0,0,0-.08-.32v-.4h0v-.06h0v-.56h0v-.12a1.22,1.22,0,0,1,0-.27,4.81,4.81,0,0,1,.13-1v-.34a.33.33,0,0,1,0-.14,1.12,1.12,0,0,1,.1-.31,1,1,0,0,1,.07-.15,5.39,5.39,0,0,1,1.35-1.95l.23-.2a3.92,3.92,0,0,1,.32-.25h.06a2.2,2.2,0,0,1,.25-.17,2.26,2.26,0,0,1,.26-.16,6.29,6.29,0,0,1,.7-.32,3.26,3.26,0,0,1,.44-.15l.23-.06h2.33l.24.05.34.08,2.44.57.35.11a3,3,0,0,1,1.88,3.3v.1h0l-.24,1.08a.33.33,0,0,1-.05.21v1.76h0"/>
  <path d="M215.16,394.78h-.08a4.42,4.42,0,0,1,1.34.26c-.2-.07-.4-.12-.6-.17h-.66Z"/>
  <path d="M213.1,395.09l.18-.06h-.09Z"/>
  <path d="M210.94,410.62l.14.07.16.08-.16-.08Z"/>
  <path d="M211.7,411c.18.06.38.11.58.16h0A3.83,3.83,0,0,1,211.7,411Z"/>
  <path d="M214.44,411.07l.37-.11Z"/>
  <path class="cls-3" d="M208.77,408.12l-.06-.19a4,4,0,0,1-.19-.76V406h0v-.15a1.07,1.07,0,0,1,.08-.44l.82-3.61.05-.21.69-3.05a1.46,1.46,0,0,1,.11-.41c0-.13,0-.09,0-.13a2,2,0,0,1,.1-.26,1.89,1.89,0,0,1,.11-.25h0c.06-.12.13-.24.2-.36h0a1.76,1.76,0,0,1,.14-.23h0c0-.08.11-.15.16-.22l.21-.25.21-.22a3.89,3.89,0,0,1,.53-.46c.13-.1.26-.18.4-.27l.1-.06.4-.2.34-.14h2.55c.2.05.4.1.6.17l.2.08a5.11,5.11,0,0,1,.74.37,4.7,4.7,0,0,1,1.51,1.5l.08.12a4.72,4.72,0,0,1,.45,1,5.32,5.32,0,0,1,.18.79,4,4,0,0,1,0,.49v.06h0v.62a.29.29,0,0,1,0,.13v.45l-.77,3.39-.77,3.41a5,5,0,0,1-.16.55c-.07.2-.16.4-.25.6a1,1,0,0,1-.16.27h0a2.33,2.33,0,0,1-.17.26l-.19.26-.2.24-.28.28-.2.18-.21.17-.22.15a3.42,3.42,0,0,1-.59.33,3.49,3.49,0,0,1-.53.22l-.37.11h-2.16c-.2-.05-.4-.1-.58-.16h-.22l-.12-.05-.12-.06-.16-.08-.14-.07-.22-.13-.18-.11a6.31,6.31,0,0,1-.63-.53l-.17-.17-.15-.18-.08-.09-.14-.19h0l-.14-.2-.08-.13A5.07,5.07,0,0,1,208.77,408.12Z"/>
  <path class="cls-3" d="M218.34,414.65l1.18-5.37h0l1.06-4.84.84-3.85a5.88,5.88,0,0,1,.27-.84h0a4.81,4.81,0,0,1,9.14,2.87v0l-.81,3.69-2.27,10.34h0a4.81,4.81,0,0,1-9.49-1.58,3.15,3.15,0,0,1,.09-.42Z"/>
  <path class="cls-3" d="M228.88,422.82l3.32-16.08.74-3.61a4.81,4.81,0,1,1,9.42,1.95l-.67,3.26-3.39,16.41h0a4.81,4.81,0,1,1-9.48-1.65l.06-.28Z"/>
  <path class="cls-3" d="M242.16,417.58l2-8.87.44-2a4.8,4.8,0,0,1,9.39,2v.05l-.26,1.19-2.13,9.61h0a4.81,4.81,0,1,1-9.4-2Z"/>
  <path class="cls-3" d="M235.08,455.49l.41-.33h0A4.79,4.79,0,0,1,235.08,455.49Z"/>
  <path d="M235.08,455.49l.41-.33.25-.19a2.63,2.63,0,0,1-.24.19C235.37,455.25,235.25,455.36,235.08,455.49Z"/>
  <path class="cls-4" d="M190.31,494.74v-.21c.42-12.14,1.49-25.16,3.2-39.2h0c.05-.45.11-.91.16-1.36a3.8,3.8,0,0,1,3.92-3.32h0l.47.08L218,454.09h0l5.14.88,7.78,1.32,1.39.24h0a2.62,2.62,0,0,0,.56,0,3.88,3.88,0,0,0,1.2-.41,7.13,7.13,0,0,0,1.05-.66l.41-.32.24-.19h0l3.17-2.51,5.54-4.37a7.49,7.49,0,0,0,2.84-6l-.11-4.7a5.84,5.84,0,0,1,5.58-6,6,6,0,0,1,6.1,5.86l.25,10.91a5.69,5.69,0,0,1-.56,2.66,5.87,5.87,0,0,1-1.81,2.45L249.48,459l-6.79,5.36h0a11.15,11.15,0,0,0-2.65,4.38h0c-1,2.35-3.58,31.26-3.58,31.26l-.06.49Z"/>
  <path class="cls-5" d="M213.53,493.32c-2,86.36,10.12,189.45,103.1,202.87,49.14,7.09,110.2-27,151.47-4.35,65.73,36,80,167.82,9,227.83-90.05,76.13-142.85,51.25-159.23,3.69-25.76-74.79-43.38-149.16-130.24-154.74-105.26-6.77-150,112.17-208.41,143.66-35.71,19.24-96.51,20.23-116-12.44-149.89-250.62,193.6-311,187-444.7C45.4,359.47-50.37,310.37-123,358.6c-68.45,45.46-91,111-126,164.43"/>
  <polyline class="cls-6" points="179.84 493.43 190.31 494.74 236.4 500.5 260.8 503.55"/>
  <path class="cls-2" d="M1475.15,750.18c24.13,15.8,44.76,39.39,66.61,64.36,22.7,26,46.17,52.78,72.21,68,12.72,7.42,25.08,11.53,37.79,12.58,14.58,1.19,29.73-1.59,46.31-8.51,29.27-12.21,43-49.92,33.69-72.22-8.64-20.68-29.1-43.4-59.2-65.68-1.67-1.24-3.33-2.45-5-3.63a3.93,3.93,0,0,1-1.16-5.13l3.17-5.68a7,7,0,0,0-2.59-9.34,7.71,7.71,0,0,0-5-.68.24.24,0,0,1-.27-.21.32.32,0,0,1,0-.14l1.3-2.25a6.88,6.88,0,0,0-11.9-6.89h0l-.24.46c-.19.36-.45.33-.57-.06a3.68,3.68,0,0,0-.15-.47,6.86,6.86,0,0,0-12.35-.81l-.74,1.31a.18.18,0,0,1-.24.08.2.2,0,0,1-.08-.08,7.45,7.45,0,0,0-.89-1.58l-.09-.11-.17-.22h0l-.09-.1-.33-.35-.12-.12-.39-.35-.2-.15-.35-.25-.19-.11-.19-.12a6.91,6.91,0,0,0-2.8-.88h-2l-.34.08-.23.07h-.21l-.14,0h-.06l-.16.06h-.12l-.1,0h-.09l-.17.08h0l-.15.09a1.18,1.18,0,0,0-.19.11l-.08,0-.15.1-.09.06h0l-.09.07-.09.06h0l-.25.2-.07.06-.15.12-.09.08-.09.09h0l-.09.09-.11.12-.14.15-.13.15-.1.11-.18.24v.15l-.08.11-.08.13-.08.13-.11.19-.54,1h0V715a3,3,0,0,1-3.6,1.22l-.33-.16-2.2-1.18-.32-.17-.21-.12-.16-.1-.25-.17-.37-.3-.15-.13h0l-.14-.13-.3-.34-.12-.15h0v-.07h0l-.11-.14-.13-.2c-.08-.13-.15-.26-.22-.4a6.36,6.36,0,0,1-.31-.71,1,1,0,0,0-.1-.29,2.64,2.64,0,0,1-.07-.3v-.06a.85.85,0,0,0-.07-.41c-.07-.14,0-.2,0-.3a5.68,5.68,0,0,1,.29-2.35v-.16a.78.78,0,0,1,.13-.3l.06-.13a1.3,1.3,0,0,1,.08-.17l.08-.15a6.23,6.23,0,0,1,.54-.8l.17-.2.09-.09h0l.06-.07.12-.12h0l.11-.1.06,0h0l.14-.11.17-.14.28-.19.13-.08h0a5.06,5.06,0,0,1,.73-.38,6.09,6.09,0,0,1,1.39-.38h2a6.14,6.14,0,0,1,.73.22l.18.08.19.08h.19l.18.09,2.08,1.12.1.06.92.51,1.55.87a.73.73,0,0,0,.25.08h0a.72.72,0,0,0,.73-.37.77.77,0,0,0,0-.63v-.07a.63.63,0,0,0-.28-.28l-1.85-1-5.49-3.07-3.37-1.94c-2.73-1.51-3.35-4.41-1.83-7.13a5.37,5.37,0,0,1,2.6-2.31,5.89,5.89,0,0,1,5.1.31l.17.09h0l5.89,3.3,3,1.67a.67.67,0,0,0,.5.07h0a.71.71,0,0,0,.58-.82.64.64,0,0,0-.06-.18.45.45,0,0,0-.11-.19.55.55,0,0,0-.2-.17l-3.28-1.83-9-5.05a5.62,5.62,0,0,1,6.16-9.37l6,3.37h0l3.17,1.77a.72.72,0,0,0,1-.24s0,0,0,0a.7.7,0,0,0,0-.63.72.72,0,0,0-.11-.19.83.83,0,0,0-.21-.16l-3.46-1.94-6.41-3.59h0a5.26,5.26,0,0,1-1.44-7.06,5.63,5.63,0,0,1,7.62-2.18l3.53,1.92,1.44.9,5.68,3.55.55.34,31,19.34.12.08h0c.39.26,1.31,1.16,2,4.09v.29l1.61,9.06a5.27,5.27,0,0,1-1.32,4.47l-3.2,3.44a8,8,0,0,0,6.06,13.53,8.31,8.31,0,0,0,5.86-2.64l7.44-8a9,9,0,0,0,2.18-7.31l-1-5.45a.58.58,0,0,1,.49-.66.6.6,0,0,1,.43.11c9,7,66.77,53.14,81,90.3,8.92,23.37,8.78,51.39-2.34,77.66A114.32,114.32,0,0,1,1752.56,907,103.66,103.66,0,0,1,1717,932c-23.67,9.88-47,14-69.26,12.13-19.91-1.63-39.61-8.06-58.54-19.11-33-19.24-59.14-49.14-84.44-78.06-19.56-22.37-38-43.49-56.54-55.6-17-11.14-31.33-12.94-47.9-6A58.1,58.1,0,0,0,1369,817.43c-7.59,19.13-5.73,43.29,5.36,69.87,12.36,29.62,35.8,51.38,73.77,68.46,35.78,16.1,78.56,25.28,119.93,34.15,73.48,15.76,212.72,49.07,235.28,103.12,27.72,66.43-10.29,123.77-96,166.29-18.55,9.21-26.85,19.25-32.46,37.64-3.87,12.7-10.65,46.82,65.43,69.12,4.94,1.45,10.12,15,10.12,15L1706,1403s-17.81-11.87-26.8-16.6c-64.08-33.77-57.42-85.11-45.56-113.61,14.94-35.94,43.71-53.51,73-67.68h0c19.58-10.52,34.73-22.52,44.43-35.31,13.64-18,15.81-36.37,6.85-57.86-12.66-30.32-139.68-61-200.23-74-43.88-9.42-89.25-19.15-129.79-37.39-49.37-22.22-81.74-53.08-99-94.36-20.37-48.84-14.34-85.1-5.69-106.92a107.54,107.54,0,0,1,58.1-59.39C1413,726.71,1444.58,730.17,1475.15,750.18Z"/>
  <path d="M1624,727.66h-.06a6.58,6.58,0,0,0,.61.42,3,3,0,0,0,.57.27l-.57-.27-.15-.09-.1-.07h-.06l-.09-.06h-.06Z"/>
  <path d="M1623.87,727.52h0l.1.08-.06-.05Z"/>
  <path d="M1623.54,727.21a.57.57,0,0,0,.11.11l-.09-.09Z"/>
  <path d="M1623.24,726.87h0l.07.09.11.13-.05-.06-.06-.07Z"/>
  <path d="M1622.91,726.42l.06.09h0Z"/>
  <path d="M1622.71,726.06l.09.17v-.09S1622.72,726.09,1622.71,726.06Z"/>
  <path d="M1631.41,713h.33l-.18,0Z"/>
  <path d="M1633.73,714.28h0l.09.1Z"/>
  <path d="M1633.32,713.92l-.12-.08h.06l.32.26h0Z"/>
  <path d="M1633,713.72h.08l.09.06h0Z"/>
  <path d="M1632.2,713.27l.54.27.12.07h-.06A2.74,2.74,0,0,0,1632.2,713.27Z"/>
  <path d="M1634.33,715a3.45,3.45,0,0,1,.2.32A3.45,3.45,0,0,0,1634.33,715Z"/>
  <path class="cls-3" d="M1628.13,713.45l-.17.09a4.81,4.81,0,0,0-.66.45.86.86,0,0,0-.14.13l-.15.13a.93.93,0,0,1-.14.14l-.13.15a3.76,3.76,0,0,0-.25.31h0l-.09.12c-.08.13-.16.25-.23.39l-1.79,3.24-.11.19-1.51,2.74a2.64,2.64,0,0,0-.18.38l-.06.13c0,.08-.07.17-.1.26l-.08.26h0l-.09.4h0v.26h0v.9a4.06,4.06,0,0,0,.09.7,3.45,3.45,0,0,0,.12.46.21.21,0,0,0,0,.11,1.19,1.19,0,0,0,.16.43l.16.32.06.11h0l.07.11h0l.09.13a.71.71,0,0,0,.1.14h0a.64.64,0,0,0,.1.13h0l.06.08.06.07,0,.06h0l.09.09.09.09h0l.07.06h.05l.06,0h.06l.09.06h.06l.09.06h.06l.1.07.15.09q.29.15.57.27l.19.08a5.54,5.54,0,0,0,.8.21A4.94,4.94,0,0,0,1628,728h.14a5.24,5.24,0,0,0,1-.44,6.08,6.08,0,0,0,.66-.47l.36-.33v0h0l.17-.19a3.25,3.25,0,0,0,.23-.29l.08-.11.13-.21.11-.18,1.67-3,1.69-3.06a5,5,0,0,0,.25-.52,4.35,4.35,0,0,0,.2-.61.49.49,0,0,1,.07-.31h0v-.31a1.61,1.61,0,0,0,0-.31v-1.25l-.06-.26a4.83,4.83,0,0,0-.22-.64,3.54,3.54,0,0,0-.25-.52,3.45,3.45,0,0,0-.2-.32h0a.76.76,0,0,0-.08-.11.44.44,0,0,0-.08-.11l-.05-.07-.12-.14h0v-.06l-.07-.07h0l-.09-.1h0l-.07-.07h0l-.32-.26h-.06l-.09-.06h-.15l-.12-.07-.54-.27h-.11l-.11-.05h-1a3.75,3.75,0,0,0-.82,0h-.83l-.23.06h-.15A5.7,5.7,0,0,0,1628.13,713.45Z"/>
  <path class="cls-3" d="M1623.3,727h0l.06.07Z"/>
  <path class="cls-3" d="M1622.91,726.42l.06.09h0Z"/>
  <path class="cls-3" d="M1639.62,714.92l-2.69,4.8h0l-2.42,4.32-1.92,3.43a4.88,4.88,0,0,0-.36.81h0a4.83,4.83,0,0,0,2.18,5.71,4.75,4.75,0,0,0,3.67.46,4.89,4.89,0,0,0,2.91-2.28l1.84-3.3,5.18-9.23h0a4.79,4.79,0,1,0-8.31-4.75v0Z"/>
  <path class="cls-3" d="M1652.92,715.82l-8.2,14.23-1.84,3.18a4.8,4.8,0,0,0,8.33,4.76l1.66-2.88,8.38-14.52h0a4.81,4.81,0,0,0-6-6.84,4.86,4.86,0,0,0-2.31,2Z"/>
  <path class="cls-3" d="M1659.37,728.56l-4.43,7.94-1,1.77a4.81,4.81,0,1,0,8.26,4.93l.14-.25.6-1.07,4.79-8.6h0a4.78,4.78,0,1,0-8.29-4.77l0,0Z"/>
  <path class="cls-3" d="M1679.26,695.53l.09.51h0A4.54,4.54,0,0,0,1679.26,695.53Z"/>
  <path d="M1679.26,695.53l.09.51.06.31a.88.88,0,0,0-.05-.3A4.76,4.76,0,0,0,1679.26,695.53Z"/>
  <path class="cls-4" d="M1671.88,636.45l-.12.17C1664,646,1656.15,656.4,1648.11,668h0l-.78,1.13a3.8,3.8,0,0,0,.72,5.08h0l.4.25,17.09,10.66h0L1670,688l6.7,4.18,1.19.74h0a2.07,2.07,0,0,1,.44.34,3.68,3.68,0,0,1,.62,1.11,8.5,8.5,0,0,1,.35,1.19l.09.51.06.3h0l.7,4,1.24,7a7.46,7.46,0,0,1-1.88,6.38l-3.2,3.44a5.85,5.85,0,0,0,.2,8.17A6,6,0,0,0,1685,725l7.44-8a5.81,5.81,0,0,0,1.34-2.35,5.89,5.89,0,0,0,.28-3l-1.63-9.11-1.51-8.52h0a11.14,11.14,0,0,1,.93-5h0c.74-2.46,18.09-25.72,18.09-25.72l.28-.41Z"/>
  <path class="cls-5" d="M1421.82-79.67c-113.23,28.32-229.27,485.4-74.54,609.7,68,54.6,126.42,111.23,193.53,42.88,93.81-95.53-122.8-368.86,155.73-456.58,36.3-11.43,81.09,29.7,95,67.81,22.77,62.37-22.85,181,60.32,245.84,68.62,53.54,131.21,9.66,200.15-29.13,43.83-24.66,99.82-8.17,116.54,108.56,13.18,92-85,181-158.09,164.29-45.88-10.51-68.88-76.54-110.31-103.88-78.41-51.76-156,17.24-211.85,83.12"/>
  <polyline class="cls-6" points="1663.18 630.47 1671.88 636.45 1710.15 662.76 1730.41 676.7"/>
</svg>
