<?xml version="1.0" encoding="UTF-8" standalone="no"?>
<!DOCTYPE svg PUBLIC "-//W3C//DTD SVG 1.1//EN" "http://www.w3.org/Graphics/SVG/1.1/DTD/svg11.dtd">
<svg width="100%" height="100%" viewBox="0 0 648 208" version="1.1" xmlns="http://www.w3.org/2000/svg" xmlns:xlink="http://www.w3.org/1999/xlink" xml:space="preserve" xmlns:serif="http://www.serif.com/" style="fill-rule:evenodd;clip-rule:evenodd;stroke-linejoin:round;stroke-miterlimit:2;">
    <g transform="matrix(1,0,0,1,-1262.42,-2519.26)">
        <g transform="matrix(4.16667,0,0,4.16667,0,0)">
            <g transform="matrix(1,0,0,1,307.867,622.624)">
                <path d="M0,-0.001C0,3.269 2.13,5.105 4.628,5.105C7.126,5.105 8.375,3.452 8.779,2.057L13.078,3.489C12.27,6.501 9.44,9.587 4.628,9.587C-0.699,9.587 -4.886,5.546 -4.886,-0.001C-4.886,-5.585 -0.772,-9.588 4.481,-9.588C9.404,-9.588 12.196,-6.539 12.967,-3.491L8.596,-2.021C8.154,-3.527 7.016,-5.07 4.592,-5.07C2.094,-5.07 0,-3.271 0,-0.001" style="fill:rgb(3,4,4);fill-rule:nonzero;"/>
            </g>
        </g>
        <g transform="matrix(4.16667,0,0,4.16667,0,0)">
            <g transform="matrix(1,0,0,1,336.429,622.624)">
                <path d="M0,-0.001C0,-3.417 -2.204,-5.144 -4.591,-5.144C-6.979,-5.144 -9.183,-3.417 -9.183,-0.001C-9.183,3.379 -6.979,5.142 -4.591,5.142C-2.204,5.142 0,3.416 0,-0.001M4.886,-0.001C4.886,5.546 0.809,9.587 -4.591,9.587C-9.991,9.587 -14.069,5.546 -14.069,-0.001C-14.069,-5.585 -9.991,-9.588 -4.591,-9.588C0.809,-9.588 4.886,-5.585 4.886,-0.001" style="fill:rgb(3,4,4);fill-rule:nonzero;"/>
            </g>
        </g>
        <g transform="matrix(4.16667,0,0,4.16667,0,0)">
            <g transform="matrix(1,0,0,1,0,216.255)">
                <rect x="344.261" y="388.809" width="4.886" height="26.597" style="fill:rgb(3,4,4);"/>
            </g>
        </g>
        <g transform="matrix(4.16667,0,0,4.16667,0,0)">
            <g transform="matrix(1,0,0,1,0,216.255)">
                <rect x="353.138" y="388.809" width="4.886" height="26.597" style="fill:rgb(3,4,4);"/>
            </g>
        </g>
        <g transform="matrix(4.16667,0,0,4.16667,0,0)">
            <g transform="matrix(1,0,0,1,373.933,624.682)">
                <path d="M0,-4.115C-0.074,-5.916 -1.25,-7.678 -4.042,-7.678C-6.576,-7.678 -7.972,-5.768 -8.083,-4.115L0,-4.115ZM4.554,1.799C3.636,4.921 0.771,7.53 -3.674,7.53C-8.634,7.53 -13.004,3.966 -13.004,-2.132C-13.004,-7.899 -8.743,-11.645 -4.115,-11.645C1.469,-11.645 4.812,-8.083 4.812,-2.279C4.812,-1.581 4.738,-0.846 4.738,-0.772L-8.192,-0.772C-8.083,1.615 -6.062,3.341 -3.637,3.341C-1.359,3.341 -0.11,2.203 0.477,0.586L4.554,1.799Z" style="fill:rgb(3,4,4);fill-rule:nonzero;"/>
            </g>
        </g>
        <g transform="matrix(4.16667,0,0,4.16667,0,0)">
            <g transform="matrix(1,0,0,1,385.451,622.624)">
                <path d="M0,-0.001C0,3.269 2.131,5.105 4.629,5.105C7.127,5.105 8.375,3.452 8.78,2.057L13.077,3.489C12.27,6.501 9.441,9.587 4.629,9.587C-0.697,9.587 -4.886,5.546 -4.886,-0.001C-4.886,-5.585 -0.771,-9.588 4.482,-9.588C9.404,-9.588 12.196,-6.539 12.968,-3.491L8.596,-2.021C8.156,-3.527 7.017,-5.07 4.592,-5.07C2.094,-5.07 0,-3.271 0,-0.001" style="fill:rgb(3,4,4);fill-rule:nonzero;"/>
            </g>
        </g>
        <g transform="matrix(4.16667,0,0,4.16667,0,0)">
            <g transform="matrix(1,0,0,1,407.755,626.516)">
                <path d="M0,-12.929L3.637,-12.929L3.637,-8.594L0,-8.594L0,-1.027C0,0.552 0.735,1.066 2.131,1.066C2.718,1.066 3.38,0.993 3.637,0.92L3.637,4.961C3.196,5.144 2.314,5.401 0.882,5.401C-2.645,5.401 -4.849,3.307 -4.849,-0.183L-4.849,-8.594L-8.118,-8.594L-8.118,-12.929L-7.199,-12.929C-5.29,-12.929 -4.408,-14.179 -4.408,-15.794L-4.408,-18.33L0,-18.33L0,-12.929Z" style="fill:rgb(3,4,4);fill-rule:nonzero;"/>
            </g>
        </g>
        <g transform="matrix(4.16667,0,0,4.16667,0,0)">
            <g transform="matrix(1,0,0,1,0,215.813)">
                <path d="M414.311,397.774L419.196,397.774L419.196,415.847L414.311,415.847L414.311,397.774ZM416.735,388.81C418.426,388.81 419.748,390.17 419.748,391.859C419.748,393.476 418.426,394.836 416.735,394.836C415.082,394.836 413.724,393.476 413.724,391.859C413.724,390.17 415.082,388.81 416.735,388.81" style="fill:rgb(3,4,4);fill-rule:nonzero;"/>
            </g>
        </g>
        <g transform="matrix(4.16667,0,0,4.16667,0,0)">
            <g transform="matrix(1,0,0,1,433.383,613.587)">
                <path d="M0,18.073L-4.886,18.073L-12.27,0L-6.906,0L-2.424,12.121L1.874,0L7.017,0L0,18.073Z" style="fill:rgb(3,4,4);fill-rule:nonzero;"/>
            </g>
        </g>
        <g transform="matrix(4.16667,0,0,4.16667,0,0)">
            <g transform="matrix(1,0,0,1,453.451,624.682)">
                <path d="M0,-4.115C-0.074,-5.916 -1.25,-7.678 -4.042,-7.678C-6.576,-7.678 -7.973,-5.768 -8.083,-4.115L0,-4.115ZM4.554,1.799C3.636,4.921 0.771,7.53 -3.675,7.53C-8.634,7.53 -13.005,3.966 -13.005,-2.132C-13.005,-7.899 -8.744,-11.645 -4.115,-11.645C1.469,-11.645 4.812,-8.083 4.812,-2.279C4.812,-1.581 4.737,-0.846 4.737,-0.772L-8.192,-0.772C-8.083,1.615 -6.062,3.341 -3.638,3.341C-1.36,3.341 -0.111,2.203 0.477,0.586L4.554,1.799Z" style="fill:rgb(3,4,4);fill-rule:nonzero;"/>
            </g>
        </g>
        <g transform="matrix(4.16667,0,0,4.16667,0,0)">
            <g transform="matrix(1,0,0,1,333.538,643.894)">
                <path d="M0,3.649C0,3.993 0.054,4.315 0.165,4.615C0.275,4.915 0.432,5.174 0.634,5.395C0.836,5.615 1.082,5.79 1.368,5.918C1.654,6.045 1.979,6.109 2.34,6.109C2.692,6.109 3.021,6.045 3.325,5.918C3.629,5.79 3.891,5.615 4.112,5.395C4.332,5.174 4.504,4.915 4.627,4.615C4.75,4.315 4.812,3.993 4.812,3.649C4.812,3.305 4.75,2.984 4.627,2.684C4.504,2.384 4.332,2.124 4.112,1.904C3.891,1.683 3.629,1.509 3.325,1.381C3.021,1.254 2.692,1.189 2.34,1.189C1.979,1.189 1.654,1.254 1.368,1.381C1.082,1.509 0.836,1.683 0.634,1.904C0.432,2.124 0.275,2.384 0.165,2.684C0.054,2.984 0,3.305 0,3.649M5.646,6.744L4.773,6.744L4.773,5.712L4.747,5.712C4.606,5.923 4.438,6.104 4.244,6.254C4.05,6.404 3.848,6.527 3.636,6.625C3.425,6.721 3.206,6.792 2.981,6.836C2.756,6.88 2.542,6.902 2.34,6.902C1.855,6.902 1.412,6.821 1.011,6.658C0.61,6.494 0.264,6.267 -0.027,5.976C-0.318,5.685 -0.545,5.342 -0.708,4.945C-0.871,4.548 -0.953,4.117 -0.953,3.649C-0.953,3.182 -0.871,2.75 -0.708,2.353C-0.545,1.957 -0.318,1.613 -0.027,1.322C0.264,1.031 0.61,0.803 1.011,0.64C1.412,0.478 1.855,0.396 2.34,0.396C2.542,0.396 2.756,0.419 2.981,0.461C3.206,0.506 3.425,0.577 3.636,0.673C3.848,0.77 4.05,0.894 4.244,1.045C4.438,1.194 4.606,1.375 4.747,1.586L4.773,1.586L4.773,-3.253L5.646,-3.253L5.646,6.744Z" style="fill:rgb(35,31,32);fill-rule:nonzero;"/>
            </g>
        </g>
        <g transform="matrix(4.16667,0,0,4.16667,0,0)">
            <g transform="matrix(1,0,0,1,347.753,648.02)">
                <path d="M0,-0.952C0,-1.543 -0.176,-2.021 -0.529,-2.388C-0.881,-2.753 -1.375,-2.936 -2.01,-2.936C-2.292,-2.936 -2.565,-2.881 -2.829,-2.771C-3.094,-2.66 -3.326,-2.513 -3.524,-2.328C-3.723,-2.142 -3.881,-1.931 -4,-1.693C-4.119,-1.455 -4.178,-1.209 -4.178,-0.952L0,-0.952ZM-4.206,-0.238C-4.178,0.07 -4.104,0.361 -3.98,0.634C-3.857,0.908 -3.694,1.144 -3.491,1.342C-3.289,1.541 -3.055,1.697 -2.791,1.812C-2.525,1.926 -2.24,1.984 -1.93,1.984C-1.463,1.984 -1.06,1.875 -0.72,1.659C-0.381,1.444 -0.123,1.194 0.053,0.912L0.728,1.468C0.357,1.936 -0.051,2.27 -0.496,2.472C-0.941,2.676 -1.419,2.777 -1.93,2.777C-2.389,2.777 -2.815,2.695 -3.207,2.532C-3.599,2.368 -3.937,2.142 -4.218,1.851C-4.501,1.56 -4.723,1.217 -4.886,0.819C-5.049,0.423 -5.131,-0.009 -5.131,-0.476C-5.131,-0.943 -5.051,-1.376 -4.893,-1.772C-4.734,-2.169 -4.514,-2.513 -4.231,-2.804C-3.95,-3.095 -3.619,-3.322 -3.24,-3.485C-2.861,-3.647 -2.451,-3.729 -2.01,-3.729C-1.542,-3.729 -1.124,-3.645 -0.754,-3.478C-0.383,-3.31 -0.073,-3.088 0.178,-2.81C0.43,-2.533 0.622,-2.206 0.753,-1.832C0.886,-1.457 0.952,-1.057 0.952,-0.636L0.952,-0.238L-4.206,-0.238Z" style="fill:rgb(35,31,32);fill-rule:nonzero;"/>
            </g>
        </g>
        <g transform="matrix(4.16667,0,0,4.16667,0,0)">
            <g transform="matrix(1,0,0,1,354.867,644.45)">
                <path d="M0,6.188L-0.979,6.188L-3.491,0L-2.459,0L-0.477,5.209L-0.449,5.209L1.521,0L2.512,0L0,6.188Z" style="fill:rgb(35,31,32);fill-rule:nonzero;"/>
            </g>
        </g>
        <g transform="matrix(4.16667,0,0,4.16667,0,0)">
            <g transform="matrix(1,0,0,1,365.181,648.02)">
                <path d="M0,-0.952C0,-1.543 -0.176,-2.021 -0.529,-2.388C-0.882,-2.753 -1.375,-2.936 -2.01,-2.936C-2.292,-2.936 -2.565,-2.881 -2.83,-2.771C-3.094,-2.66 -3.326,-2.513 -3.525,-2.328C-3.723,-2.142 -3.881,-1.931 -4,-1.693C-4.119,-1.455 -4.179,-1.209 -4.179,-0.952L0,-0.952ZM-4.205,-0.238C-4.179,0.07 -4.104,0.361 -3.98,0.634C-3.857,0.908 -3.694,1.144 -3.491,1.342C-3.288,1.541 -3.055,1.697 -2.79,1.812C-2.526,1.926 -2.239,1.984 -1.931,1.984C-1.463,1.984 -1.061,1.875 -0.721,1.659C-0.382,1.444 -0.124,1.194 0.052,0.912L0.727,1.468C0.356,1.936 -0.051,2.27 -0.496,2.472C-0.941,2.676 -1.42,2.777 -1.931,2.777C-2.39,2.777 -2.814,2.695 -3.207,2.532C-3.599,2.368 -3.937,2.142 -4.218,1.851C-4.5,1.56 -4.723,1.217 -4.886,0.819C-5.05,0.423 -5.131,-0.009 -5.131,-0.476C-5.131,-0.943 -5.051,-1.376 -4.893,-1.772C-4.734,-2.169 -4.514,-2.513 -4.232,-2.804C-3.949,-3.095 -3.62,-3.322 -3.24,-3.485C-2.861,-3.647 -2.452,-3.729 -2.01,-3.729C-1.543,-3.729 -1.124,-3.645 -0.754,-3.478C-0.384,-3.31 -0.072,-3.088 0.179,-2.81C0.43,-2.533 0.621,-2.206 0.754,-1.832C0.886,-1.457 0.952,-1.057 0.952,-0.636L0.952,-0.238L-4.205,-0.238Z" style="fill:rgb(35,31,32);fill-rule:nonzero;"/>
            </g>
        </g>
        <g transform="matrix(4.16667,0,0,4.16667,0,0)">
            <g transform="matrix(-1,0,0,1,740.411,270.809)">
                <rect x="369.769" y="369.832" width="0.873" height="9.997" style="fill:rgb(35,31,32);"/>
            </g>
        </g>
        <g transform="matrix(4.16667,0,0,4.16667,0,0)">
            <g transform="matrix(1,0,0,1,379.9,647.543)">
                <path d="M0,0C0,-0.344 -0.056,-0.665 -0.166,-0.965C-0.276,-1.265 -0.433,-1.525 -0.636,-1.745C-0.838,-1.966 -1.083,-2.14 -1.369,-2.268C-1.656,-2.395 -1.98,-2.46 -2.341,-2.46C-2.703,-2.46 -3.026,-2.395 -3.313,-2.268C-3.6,-2.14 -3.842,-1.966 -4.041,-1.745C-4.239,-1.525 -4.394,-1.265 -4.503,-0.965C-4.613,-0.665 -4.668,-0.344 -4.668,0C-4.668,0.344 -4.613,0.666 -4.503,0.966C-4.394,1.266 -4.239,1.525 -4.041,1.746C-3.842,1.966 -3.6,2.141 -3.313,2.269C-3.026,2.396 -2.703,2.46 -2.341,2.46C-1.98,2.46 -1.656,2.396 -1.369,2.269C-1.083,2.141 -0.838,1.966 -0.636,1.746C-0.433,1.525 -0.276,1.266 -0.166,0.966C-0.056,0.666 0,0.344 0,0M0.951,0C0.951,0.468 0.869,0.899 0.707,1.296C0.543,1.693 0.317,2.036 0.026,2.327C-0.266,2.618 -0.611,2.845 -1.012,3.009C-1.414,3.172 -1.857,3.253 -2.341,3.253C-2.817,3.253 -3.256,3.172 -3.657,3.009C-4.058,2.845 -4.404,2.618 -4.695,2.327C-4.986,2.036 -5.213,1.693 -5.376,1.296C-5.54,0.899 -5.621,0.468 -5.621,0C-5.621,-0.467 -5.54,-0.899 -5.376,-1.296C-5.213,-1.692 -4.986,-2.036 -4.695,-2.327C-4.404,-2.618 -4.058,-2.846 -3.657,-3.009C-3.256,-3.171 -2.817,-3.253 -2.341,-3.253C-1.857,-3.253 -1.414,-3.171 -1.012,-3.009C-0.611,-2.846 -0.266,-2.618 0.026,-2.327C0.317,-2.036 0.543,-1.692 0.707,-1.296C0.869,-0.899 0.951,-0.467 0.951,0" style="fill:rgb(35,31,32);fill-rule:nonzero;"/>
            </g>
        </g>
        <g transform="matrix(4.16667,0,0,4.16667,0,0)">
            <g transform="matrix(1,0,0,1,389.936,651.193)">
                <path d="M0,-3.65C0,-3.994 -0.055,-4.315 -0.166,-4.615C-0.276,-4.915 -0.432,-5.175 -0.635,-5.395C-0.837,-5.616 -1.083,-5.79 -1.368,-5.918C-1.655,-6.045 -1.979,-6.11 -2.341,-6.11C-2.703,-6.11 -3.033,-6.045 -3.333,-5.918C-3.632,-5.79 -3.892,-5.616 -4.113,-5.395C-4.333,-5.175 -4.505,-4.915 -4.628,-4.615C-4.751,-4.315 -4.813,-3.994 -4.813,-3.65C-4.813,-3.306 -4.751,-2.984 -4.628,-2.684C-4.505,-2.384 -4.333,-2.125 -4.113,-1.904C-3.892,-1.684 -3.632,-1.509 -3.333,-1.381C-3.033,-1.254 -2.703,-1.19 -2.341,-1.19C-1.979,-1.19 -1.655,-1.254 -1.368,-1.381C-1.083,-1.509 -0.837,-1.684 -0.635,-1.904C-0.432,-2.125 -0.276,-2.384 -0.166,-2.684C-0.055,-2.984 0,-3.306 0,-3.65M-5.647,-6.744L-4.774,-6.744L-4.774,-5.713L-4.748,-5.713C-4.607,-5.924 -4.439,-6.105 -4.245,-6.254C-4.051,-6.405 -3.848,-6.529 -3.637,-6.626C-3.425,-6.722 -3.207,-6.793 -2.982,-6.838C-2.757,-6.88 -2.543,-6.903 -2.341,-6.903C-1.856,-6.903 -1.413,-6.821 -1.012,-6.659C-0.611,-6.496 -0.265,-6.268 0.026,-5.977C0.318,-5.686 0.544,-5.342 0.707,-4.946C0.87,-4.549 0.952,-4.117 0.952,-3.65C0.952,-3.182 0.87,-2.751 0.707,-2.354C0.544,-1.957 0.318,-1.614 0.026,-1.323C-0.265,-1.032 -0.611,-0.805 -1.012,-0.641C-1.413,-0.478 -1.856,-0.397 -2.341,-0.397C-2.543,-0.397 -2.757,-0.419 -2.982,-0.463C-3.207,-0.507 -3.425,-0.578 -3.637,-0.674C-3.848,-0.772 -4.051,-0.895 -4.245,-1.045C-4.439,-1.195 -4.607,-1.376 -4.748,-1.587L-4.774,-1.587L-4.774,3.253L-5.647,3.253L-5.647,-6.744Z" style="fill:rgb(35,31,32);fill-rule:nonzero;"/>
            </g>
        </g>
        <g transform="matrix(4.16667,0,0,4.16667,0,0)">
            <g transform="matrix(1,0,0,1,394.22,649.103)">
                <path d="M0,-3.279C0,-3.508 -0.006,-3.737 -0.019,-3.966C-0.033,-4.196 -0.048,-4.425 -0.066,-4.654L0.873,-4.654L0.873,-3.716L0.899,-3.716C1.111,-4.077 1.404,-4.35 1.779,-4.536C2.153,-4.72 2.526,-4.813 2.896,-4.813C3.063,-4.813 3.242,-4.796 3.432,-4.76C3.621,-4.725 3.804,-4.661 3.98,-4.569C4.157,-4.476 4.322,-4.345 4.476,-4.178C4.63,-4.011 4.76,-3.795 4.867,-3.531C5.043,-3.927 5.323,-4.24 5.706,-4.468C6.09,-4.699 6.489,-4.813 6.902,-4.813C7.696,-4.813 8.283,-4.604 8.662,-4.185C9.041,-3.766 9.23,-3.169 9.23,-2.393L9.23,1.534L8.357,1.534L8.357,-2.076C8.357,-2.702 8.247,-3.182 8.027,-3.517C7.807,-3.852 7.396,-4.02 6.797,-4.02C6.471,-4.02 6.198,-3.955 5.977,-3.828C5.757,-3.7 5.578,-3.531 5.442,-3.319C5.305,-3.107 5.206,-2.867 5.144,-2.598C5.083,-2.33 5.052,-2.05 5.052,-1.758L5.052,1.534L4.179,1.534L4.179,-2.076C4.179,-2.702 4.069,-3.182 3.849,-3.517C3.628,-3.852 3.218,-4.02 2.618,-4.02C2.566,-4.02 2.444,-4.002 2.255,-3.966C2.065,-3.931 1.869,-3.835 1.667,-3.675C1.463,-3.517 1.281,-3.279 1.117,-2.963C0.954,-2.644 0.873,-2.203 0.873,-1.639L0.873,1.534L0,1.534L0,-3.279Z" style="fill:rgb(35,31,32);fill-rule:nonzero;"/>
            </g>
        </g>
        <g transform="matrix(4.16667,0,0,4.16667,0,0)">
            <g transform="matrix(1,0,0,1,412.152,648.02)">
                <path d="M0,-0.952C0,-1.543 -0.177,-2.021 -0.529,-2.388C-0.882,-2.753 -1.375,-2.936 -2.01,-2.936C-2.292,-2.936 -2.565,-2.881 -2.83,-2.771C-3.094,-2.66 -3.326,-2.513 -3.525,-2.328C-3.723,-2.142 -3.881,-1.931 -4,-1.693C-4.119,-1.455 -4.179,-1.209 -4.179,-0.952L0,-0.952ZM-4.205,-0.238C-4.179,0.07 -4.104,0.361 -3.98,0.634C-3.857,0.908 -3.694,1.144 -3.491,1.342C-3.288,1.541 -3.055,1.697 -2.79,1.812C-2.526,1.926 -2.239,1.984 -1.931,1.984C-1.463,1.984 -1.061,1.875 -0.721,1.659C-0.382,1.444 -0.124,1.194 0.052,0.912L0.727,1.468C0.356,1.936 -0.051,2.27 -0.496,2.472C-0.941,2.676 -1.42,2.777 -1.931,2.777C-2.39,2.777 -2.814,2.695 -3.207,2.532C-3.6,2.368 -3.937,2.142 -4.219,1.851C-4.5,1.56 -4.723,1.217 -4.886,0.819C-5.05,0.423 -5.131,-0.009 -5.131,-0.476C-5.131,-0.943 -5.051,-1.376 -4.893,-1.772C-4.734,-2.169 -4.514,-2.513 -4.232,-2.804C-3.95,-3.095 -3.62,-3.322 -3.24,-3.485C-2.861,-3.647 -2.452,-3.729 -2.01,-3.729C-1.543,-3.729 -1.124,-3.645 -0.754,-3.478C-0.384,-3.31 -0.072,-3.088 0.179,-2.81C0.43,-2.533 0.621,-2.206 0.754,-1.832C0.886,-1.457 0.952,-1.057 0.952,-0.636L0.952,-0.238L-4.205,-0.238Z" style="fill:rgb(35,31,32);fill-rule:nonzero;"/>
            </g>
        </g>
        <g transform="matrix(4.16667,0,0,4.16667,0,0)">
            <g transform="matrix(1,0,0,1,417.375,650.479)">
                <path d="M0,-6.029C0.017,-5.862 0.028,-5.696 0.033,-5.534C0.037,-5.371 0.039,-5.206 0.039,-5.038L0.066,-5.038C0.162,-5.206 0.286,-5.359 0.436,-5.501C0.585,-5.641 0.753,-5.762 0.938,-5.864C1.124,-5.966 1.32,-6.045 1.527,-6.102C1.734,-6.16 1.938,-6.188 2.142,-6.188C2.935,-6.188 3.521,-5.979 3.9,-5.56C4.279,-5.141 4.47,-4.544 4.47,-3.768L4.47,0.159L3.596,0.159L3.596,-3.265C3.596,-3.954 3.478,-4.48 3.239,-4.846C3.001,-5.212 2.561,-5.395 1.917,-5.395C1.873,-5.395 1.749,-5.377 1.547,-5.342C1.344,-5.306 1.13,-5.21 0.905,-5.05C0.68,-4.892 0.48,-4.654 0.304,-4.338C0.127,-4.019 0.039,-3.578 0.039,-3.014L0.039,0.159L-0.833,0.159L-0.833,-4.668C-0.833,-4.836 -0.84,-5.047 -0.854,-5.302C-0.867,-5.557 -0.882,-5.8 -0.9,-6.029L0,-6.029Z" style="fill:rgb(35,31,32);fill-rule:nonzero;"/>
            </g>
        </g>
        <g transform="matrix(4.16667,0,0,4.16667,0,0)">
            <g transform="matrix(1,0,0,1,428.945,648.257)">
                <path d="M0,-3.015L-1.785,-3.015L-1.785,0.634C-1.785,0.864 -1.763,1.051 -1.719,1.197C-1.675,1.341 -1.613,1.455 -1.534,1.534C-1.454,1.613 -1.359,1.669 -1.249,1.699C-1.14,1.73 -1.018,1.746 -0.886,1.746C-0.736,1.746 -0.582,1.723 -0.423,1.679C-0.265,1.635 -0.118,1.579 0.014,1.507L0.053,2.314C-0.273,2.464 -0.666,2.539 -1.124,2.539C-1.291,2.539 -1.466,2.517 -1.646,2.472C-1.827,2.428 -1.992,2.344 -2.142,2.221C-2.292,2.098 -2.416,1.93 -2.512,1.719C-2.609,1.507 -2.658,1.23 -2.658,0.885L-2.658,-3.015L-3.967,-3.015L-3.967,-3.808L-2.658,-3.808L-2.658,-5.554L-1.785,-5.554L-1.785,-3.808L0,-3.808L0,-3.015Z" style="fill:rgb(35,31,32);fill-rule:nonzero;"/>
            </g>
        </g>
    </g>
</svg>
