<?xml version="1.0" encoding="UTF-8" standalone="no"?>
<!DOCTYPE svg PUBLIC "-//W3C//DTD SVG 1.1//EN" "http://www.w3.org/Graphics/SVG/1.1/DTD/svg11.dtd">
<svg width="100%" height="100%" viewBox="0 0 710 223" version="1.1" xmlns="http://www.w3.org/2000/svg" xmlns:xlink="http://www.w3.org/1999/xlink" xml:space="preserve" xmlns:serif="http://www.serif.com/" style="fill-rule:evenodd;clip-rule:evenodd;stroke-linejoin:round;stroke-miterlimit:2;">
    <g transform="matrix(1,0,0,1,-3338.02,-873.861)">
        <g transform="matrix(4.16667,0,0,4.16667,0,0)">
            <g transform="matrix(1,0,0,1,875.394,251.33)">
                <path d="M0,-6.253L-0.008,-6.253C-0.355,-6.253 -0.528,-6.064 -0.528,-5.686L-0.528,-0.567C-0.528,-0.189 -0.354,0 -0.004,0C0.349,0 0.524,-0.189 0.524,-0.567L0.524,-5.686C0.524,-6.061 0.35,-6.25 0,-6.253" style="fill:rgb(3,4,4);fill-rule:nonzero;"/>
            </g>
        </g>
        <g transform="matrix(4.16667,0,0,4.16667,0,0)">
            <g transform="matrix(1,0,0,1,883.195,227.316)">
                <path d="M0,-3.352L-6.494,-3.352L-6.494,0L0.103,0C0.68,0 1.412,-0.733 1.412,-1.622C1.412,-2.514 0.891,-3.352 0,-3.352" style="fill:rgb(3,4,4);fill-rule:nonzero;"/>
            </g>
        </g>
        <g transform="matrix(4.16667,0,0,4.16667,0,0)">
            <g transform="matrix(1,0,0,1,857.729,249.029)">
                <path d="M0,-17.728C-0.984,-17.728 -1.584,-17.197 -1.801,-16.133L-4.622,-1.61C-4.831,-0.535 -4.435,0 -3.437,0C-2.443,0 -1.843,-0.535 -1.633,-1.61L1.188,-16.119C1.396,-17.19 1,-17.728 0,-17.728" style="fill:rgb(3,4,4);fill-rule:nonzero;"/>
            </g>
        </g>
        <g transform="matrix(4.16667,0,0,4.16667,0,0)">
            <g transform="matrix(1,0,0,1,835.345,226.774)">
                <path d="M0,11.228L2.506,11.228C1.89,5.725 1.3,0.438 1.253,0C1.202,0.438 0.613,5.725 0,11.228" style="fill:rgb(3,4,4);fill-rule:nonzero;"/>
            </g>
        </g>
        <g transform="matrix(4.16667,0,0,4.16667,0,0)">
            <g transform="matrix(1,0,0,1,946.772,220.555)">
                <path d="M0,31.824L-1.649,21.935L-7.194,23.262L-8.615,31.824L-10.515,31.824L-5.501,0.798C-5.37,0.482 -5.097,0.321 -4.847,0.201L-4.775,0.177L-3.695,-0.062L-2.673,-0.334L-1.425,-0.584L-1.146,-0.584L-0.231,4.977L4.268,31.824L0,31.824ZM-14.938,1.054L-24.396,12.848L-24.343,13.006C-23.672,13.006 -22.613,13.216 -22.2,13.318C-17.591,14.405 -15.828,17.957 -15.622,22.095L-15.622,30.678C-15.568,31.454 -15.932,31.846 -16.557,31.846L-20.96,31.846C-21.682,31.846 -21.938,31.442 -21.991,30.72L-21.991,22.095C-22.147,19.815 -24.409,18.418 -26.892,18.418C-29.173,18.418 -30.906,19.797 -30.906,22.094L-30.906,30.72C-30.906,31.442 -31.191,31.846 -31.915,31.846L-36.727,31.846C-37.45,31.846 -37.658,31.442 -37.658,30.719L-37.658,1.001C-37.658,0.278 -37.243,-0.134 -36.465,-0.134L-32.019,-0.134C-31.398,-0.134 -30.906,0.227 -30.906,1.001L-30.906,10.81L-30.724,10.81L-22.809,0.743C-22.188,-0.031 -22.031,-0.085 -20.736,-0.083L-15.354,-0.083C-14.73,-0.083 -14.523,0.485 -14.938,1.054M-43.383,31.833L-46.514,31.833L-46.514,23.465L-45.306,23.465L-45.306,30.643L-43.383,30.643L-43.383,31.833ZM-48.754,15.889C-48.754,15.538 -48.732,0.933 -48.732,0.777C-48.732,0.621 -48.784,0.497 -48.831,0.431C-48.906,0.334 -49.074,0.312 -49.192,0.312L-49.519,0.312L-49.53,-0.098L-44.253,-0.098L-44.253,15.889C-44.253,16.203 -44.25,16.592 -44.178,16.698C-44.084,16.831 -44.077,16.853 -43.811,16.864C-43.666,16.869 -43.543,16.864 -43.543,16.864L-43.543,17.26L-49.498,17.26L-49.498,16.864L-49.139,16.864C-48.983,16.864 -48.845,16.824 -48.786,16.698C-48.735,16.59 -48.754,16.242 -48.754,15.889M-49.854,24.655L-51.778,24.655L-51.778,27.052L-50.123,27.052L-50.123,28.246L-51.778,28.246L-51.778,30.643L-49.854,30.643L-49.854,31.833L-52.985,31.833L-52.985,23.465L-49.854,23.465L-49.854,24.655ZM-57.502,17.758C-61.222,17.758 -62.359,15.715 -62.359,14.092C-62.359,12.064 -62.392,11.439 -63.053,10.742C-63.498,10.27 -64.246,10.008 -65.121,10.008C-65.75,10.008 -68.708,9.955 -69.075,9.955C-69.44,9.955 -69.966,10.165 -69.966,10.791C-69.966,11.419 -70.104,12.743 -69.193,13.307C-67.99,14.054 -65.96,13.883 -65.96,13.883L-65.96,17.182L-80.019,17.182L-80.019,13.935C-80.019,13.935 -77.829,14.043 -76.839,13.319C-75.922,12.652 -75.988,11.893 -75.988,10.845C-75.988,9.799 -76.04,6.344 -76.04,5.505C-76.04,4.665 -76.394,4.092 -77.021,3.62C-77.649,3.15 -80.019,3.096 -80.019,3.096L-80.019,-0.098L-61.694,-0.098C-61.053,-0.098 -55.462,-0.267 -55.462,4.406C-55.462,7.587 -58.582,8.148 -58.825,8.215C-59.113,8.292 -59.573,8.256 -59.573,8.608C-59.573,8.882 -59.154,8.935 -58.812,9.053C-58.433,9.182 -57.256,9.472 -56.612,10.951C-56.166,11.981 -56.403,12.745 -56.403,13.373C-56.403,14 -56.287,14.707 -55.551,14.707C-54.714,14.707 -54.584,14.08 -54.584,13.556L-54.584,11.683L-52.738,11.683L-52.738,13.675C-52.738,14.615 -53.263,17.758 -57.502,17.758M-56.199,24.655L-57.33,24.655L-57.33,31.833L-58.537,31.833L-58.537,24.655L-59.667,24.655L-59.667,23.465L-56.199,23.465L-56.199,24.655ZM-62.795,26.216L-64.002,26.216L-64.002,25.09C-64.002,24.715 -64.177,24.526 -64.527,24.522L-64.535,24.522C-64.883,24.522 -65.056,24.711 -65.056,25.09L-65.056,25.849C-65.056,26.222 -64.679,26.678 -63.926,27.219C-63.172,27.756 -62.795,28.4 -62.795,29.151L-62.795,30.208C-62.795,31.383 -63.372,31.97 -64.527,31.97C-65.685,31.967 -66.263,31.38 -66.263,30.208L-66.263,29.082L-65.056,29.082L-65.056,30.208C-65.056,30.587 -64.88,30.776 -64.527,30.776C-64.177,30.776 -64.002,30.587 -64.002,30.208L-64.002,29.253C-64.002,28.849 -64.379,28.377 -65.133,27.837C-65.886,27.299 -66.263,26.645 -66.263,25.875L-66.263,25.09C-66.263,23.918 -65.686,23.333 -64.531,23.333C-63.374,23.333 -62.795,23.918 -62.795,25.09L-62.795,26.216ZM-69.647,30.208C-69.647,31.38 -70.226,31.967 -71.383,31.97C-72.538,31.97 -73.114,31.383 -73.114,30.208L-73.114,25.09C-73.114,23.918 -72.538,23.333 -71.383,23.333C-70.226,23.333 -69.647,23.918 -69.647,25.09L-69.647,30.208ZM-76.584,31.833L-77.791,31.833L-77.791,28.246L-78.845,28.246L-78.845,31.833L-80.052,31.833L-80.052,23.465L-78.845,23.465L-78.845,27.052L-77.791,27.052L-77.791,23.465L-76.584,23.465L-76.584,31.833ZM-84.499,11.387C-84.546,11.928 -84.563,12.538 -84.693,13.214L-87.251,26.864C-87.895,30.197 -89.856,31.861 -93.132,31.861C-95.874,31.855 -97.247,30.688 -97.247,28.364C-97.247,27.913 -97.193,27.413 -97.09,26.864L-91.874,0.037L-88.447,0.037L-89.852,7.676C-89.342,7.479 -88.602,7.386 -87.461,7.52C-85.358,7.767 -84.313,9.241 -84.499,11.387M-101.471,31.963L-108.206,31.963L-108.206,31.648C-108.206,31.648 -107.832,31.476 -107.674,31.25C-107.534,31.054 -107.459,30.56 -107.496,30.243C-107.51,30.11 -107.89,26.71 -108.357,22.511L-111.992,22.511C-112.461,26.71 -112.841,30.11 -112.854,30.243C-112.892,30.56 -112.815,31.054 -112.677,31.25C-112.517,31.476 -112.143,31.648 -112.143,31.648L-112.143,31.963L-118.899,31.963L-118.899,31.607C-118.899,31.607 -118.418,31.51 -118.096,31.152C-117.811,30.838 -117.795,30.68 -117.699,30.262C-117.493,29.35 -114.68,2.261 -114.68,1.825C-114.68,1.372 -114.692,1.107 -114.772,0.852C-114.904,0.429 -115.431,0.297 -115.431,0.297L-115.431,-0.031L-104.938,-0.031L-104.938,0.297C-104.938,0.297 -105.465,0.429 -105.599,0.852C-105.677,1.107 -105.689,1.372 -105.689,1.825C-105.689,2.261 -102.876,29.35 -102.672,30.262C-102.577,30.68 -102.56,30.838 -102.275,31.152C-101.952,31.51 -101.471,31.607 -101.471,31.607L-101.471,31.963ZM-121.115,5.026L-129.601,5.026L-129.601,17.404L-123.389,17.404L-123.389,22.511L-129.601,22.511L-129.601,31.972L-134.757,31.972L-134.757,-0.063L-121.115,-0.063L-121.115,5.026ZM-46.693,-5.858C-45.493,-5.858 -44.518,-4.885 -44.518,-3.684C-44.518,-2.482 -45.493,-1.509 -46.693,-1.509C-47.895,-1.509 -48.867,-2.482 -48.867,-3.684C-48.867,-4.885 -47.895,-5.858 -46.693,-5.858M-145.648,42.652L15.489,42.652L15.489,-10.828L-145.648,-10.828L-145.648,42.652Z" style="fill:rgb(3,4,4);fill-rule:nonzero;"/>
            </g>
        </g>
        <g transform="matrix(4.16667,0,0,4.16667,0,0)">
            <g transform="matrix(1,0,0,1,939.894,225.629)">
                <path d="M0,16.336L4.925,15.138L2.55,0L0,16.336Z" style="fill:rgb(3,4,4);fill-rule:nonzero;"/>
            </g>
        </g>
        <g transform="matrix(4.16667,0,0,4.16667,0,0)">
            <g transform="matrix(1,0,0,1,965.582,213.336)">
                <path d="M0,-2.255L0.987,-2.255L0.987,-2.802L-1.628,-2.802L-1.628,-2.255L-0.642,-2.255L-0.642,0.547L0,0.547L0,-2.255Z" style="fill:rgb(51,49,50);fill-rule:nonzero;"/>
            </g>
        </g>
        <g transform="matrix(4.16667,0,0,4.16667,0,0)">
            <g transform="matrix(1,0,0,1,970.726,210.534)">
                <path d="M0,3.35L0.647,3.35L0.647,0L-0.42,0L-1.305,2.485L-1.322,2.485L-2.24,0L-3.271,0L-3.271,3.35L-2.626,3.35L-2.671,0.54L-2.667,0.54L-1.596,3.35L-1.026,3.35L0.029,0.526L0.053,0.526L0,3.35Z" style="fill:rgb(51,49,50);fill-rule:nonzero;"/>
            </g>
        </g>
    </g>
</svg>
