<?xml version="1.0" encoding="UTF-8" standalone="no"?>
<!DOCTYPE svg PUBLIC "-//W3C//DTD SVG 1.1//EN" "http://www.w3.org/Graphics/SVG/1.1/DTD/svg11.dtd">
<svg width="100%" height="100%" viewBox="0 0 771 220" version="1.1" xmlns="http://www.w3.org/2000/svg" xmlns:xlink="http://www.w3.org/1999/xlink" xml:space="preserve" xmlns:serif="http://www.serif.com/" style="fill-rule:evenodd;clip-rule:evenodd;stroke-linejoin:round;stroke-miterlimit:2;">
    <g transform="matrix(1,0,0,1,-906.557,-1938.9)">
        <g transform="matrix(4.16667,0,0,4.16667,0,0)">
            <g transform="matrix(1,0,0,1,312.437,516.49)">
                <path d="M0,-5.423C0,-5.569 -0.091,-5.618 -0.242,-5.618L-0.419,-5.618L-0.419,-5.213L-0.242,-5.213C-0.082,-5.213 0,-5.281 0,-5.418L0,-5.423ZM0.382,-4.462L0.063,-4.462L-0.273,-5.004L-0.419,-5.004L-0.419,-4.462L-0.725,-4.462L-0.725,-5.856L-0.237,-5.856C0.091,-5.856 0.3,-5.723 0.3,-5.437L0.3,-5.427C0.3,-5.218 0.177,-5.104 0.013,-5.054L0.382,-4.462ZM0.915,-5.145C0.915,-5.837 0.432,-6.319 -0.242,-6.319C-0.916,-6.319 -1.403,-5.828 -1.403,-5.136C-1.403,-4.435 -0.893,-3.966 -0.242,-3.966C0.414,-3.966 0.915,-4.448 0.915,-5.145M1.169,-5.145C1.169,-4.348 0.546,-3.734 -0.242,-3.734C-1.025,-3.734 -1.658,-4.339 -1.658,-5.136C-1.658,-5.919 -1.034,-6.552 -0.242,-6.552C0.56,-6.552 1.169,-5.928 1.169,-5.145M-4.389,-4.402L-3.174,-5.536C-3.533,-5.964 -3.984,-6.297 -4.526,-6.533C-5.068,-6.771 -5.655,-6.889 -6.288,-6.889C-7.057,-6.889 -7.758,-6.716 -8.387,-6.379C-9.015,-6.037 -9.516,-5.555 -9.88,-4.927C-10.244,-4.298 -10.431,-3.561 -10.431,-2.709C-10.431,-1.912 -10.258,-1.197 -9.921,-0.574C-9.579,0.055 -9.092,0.551 -8.455,0.915C-7.817,1.279 -7.094,1.466 -6.288,1.466C-5.532,1.466 -4.849,1.298 -4.234,0.96C-3.62,0.624 -3.133,0.15 -2.769,-0.465C-2.409,-1.079 -2.227,-1.794 -2.227,-2.61C-2.227,-2.892 -2.254,-3.196 -2.318,-3.525L-6.47,-3.525L-6.47,-1.899L-4.134,-1.899C-4.175,-1.402 -4.394,-0.997 -4.799,-0.674C-5.204,-0.356 -5.7,-0.196 -6.288,-0.196C-6.729,-0.196 -7.125,-0.296 -7.472,-0.496C-7.817,-0.701 -8.091,-0.992 -8.295,-1.37C-8.496,-1.753 -8.596,-2.199 -8.596,-2.709C-8.596,-3.201 -8.505,-3.633 -8.318,-4.011C-8.131,-4.389 -7.863,-4.685 -7.512,-4.903C-7.162,-5.122 -6.752,-5.227 -6.288,-5.227C-5.591,-5.227 -4.958,-4.953 -4.389,-4.402M-19.254,-6.716L-17.506,-6.716L-17.506,-3.525L-14.05,-3.525L-14.05,-6.716L-12.297,-6.716L-12.297,1.293L-14.05,1.293L-14.05,-1.899L-17.506,-1.899L-17.506,1.293L-19.254,1.293L-19.254,-6.716ZM-21.558,1.293L-23.311,1.293L-23.311,-6.716L-21.558,-6.716L-21.558,1.293ZM-34.802,-6.711L-33.536,-6.711L-29.639,-0.096L-29.639,-6.711L-28.706,-6.711L-28.706,1.293L-29.826,1.293L-33.869,-5.573L-33.869,1.293L-34.802,1.293L-34.802,-6.711ZM-41.818,-1.785L-39.041,-1.785L-40.429,-5.905L-41.818,-1.785ZM-41.021,-6.711L-39.746,-6.711L-37.037,1.293L-37.998,1.293L-38.781,-1.011L-42.086,-1.011L-42.86,1.293L-43.78,1.293L-41.021,-6.711ZM37.938,-6.711L38.912,-6.711L38.912,0.501L42.577,0.501L42.577,1.293L37.938,1.293L37.938,-6.711ZM30.398,-6.711L35.069,-6.711L35.069,-5.919L31.373,-5.919L31.373,-3.196L34.355,-3.196L34.355,-2.4L31.373,-2.4L31.373,0.501L35.27,0.501L35.27,1.293L30.398,1.293L30.398,-6.711ZM24.776,-5.919L22.445,-5.919L22.445,-6.711L28.077,-6.711L28.077,-5.919L25.75,-5.919L25.75,1.293L24.776,1.293L24.776,-5.919ZM20.068,-2.691L20.068,-2.782C20.068,-4.576 19.012,-6.028 17.168,-6.028C15.306,-6.028 14.231,-4.662 14.231,-2.759L14.231,-2.668C14.231,-0.734 15.52,0.587 17.187,0.587C18.971,0.587 20.068,-0.756 20.068,-2.691M13.226,-2.659L13.226,-2.75C13.226,-5.022 14.814,-6.816 17.168,-6.816C19.518,-6.816 21.074,-5.022 21.074,-2.773L21.074,-2.682C21.074,-0.419 19.518,1.397 17.187,1.397C14.824,1.397 13.226,-0.419 13.226,-2.659M4.689,-6.711L5.663,-6.711L5.663,-3.082L9.875,-3.082L9.875,-6.711L10.849,-6.711L10.849,1.293L9.875,1.293L9.875,-2.268L5.663,-2.268L5.663,1.293L4.689,1.293L4.689,-6.711Z" style="fill:rgb(120,119,118);fill-rule:nonzero;"/>
            </g>
        </g>
        <g transform="matrix(4.16667,0,0,4.16667,0,0)">
            <g transform="matrix(1,0,0,1,243.182,471.685)">
                <path d="M0,29.989C0,29.835 -0.087,29.789 -0.264,29.789L-0.41,29.789L-0.41,30.208L-0.237,30.208C-0.059,30.208 0,30.121 0,29.989M0.173,30.64C0.2,30.64 0.232,30.631 0.259,30.613L0.246,30.75C0.218,30.767 0.177,30.786 0.136,30.786C0.05,30.786 0,30.759 -0.05,30.672L-0.232,30.348L-0.41,30.348L-0.41,30.777L-0.601,30.777L-0.601,29.789L-0.697,29.789L-0.697,29.638L-0.237,29.638C0.022,29.638 0.2,29.748 0.2,29.984C0.2,30.153 0.118,30.276 -0.041,30.326L0.104,30.59C0.132,30.635 0.15,30.64 0.173,30.64M0.651,30.208C0.651,29.634 0.295,29.293 -0.228,29.293C-0.751,29.293 -1.111,29.634 -1.111,30.208C-1.111,30.781 -0.751,31.123 -0.228,31.123C0.295,31.123 0.651,30.781 0.651,30.208M0.828,30.208C0.828,30.836 0.414,31.268 -0.228,31.268C-0.87,31.268 -1.289,30.836 -1.289,30.208C-1.289,29.579 -0.87,29.147 -0.228,29.147C0.414,29.147 0.828,29.579 0.828,30.208M158.6,11.942C158.6,11.792 158.518,11.742 158.336,11.742L158.195,11.742L158.195,12.161L158.363,12.161C158.541,12.161 158.6,12.074 158.6,11.942M158.773,12.597C158.8,12.597 158.832,12.584 158.859,12.57L158.851,12.702C158.819,12.72 158.778,12.739 158.737,12.739C158.655,12.739 158.6,12.712 158.555,12.625L158.368,12.306L158.195,12.306L158.195,12.734L158.003,12.734L158.003,11.742L157.908,11.742L157.908,11.595L158.363,11.595C158.623,11.595 158.8,11.701 158.8,11.937C158.8,12.11 158.719,12.228 158.559,12.279L158.709,12.543C158.737,12.589 158.75,12.597 158.773,12.597M159.251,12.161C159.251,11.587 158.896,11.245 158.373,11.245C157.849,11.245 157.494,11.587 157.494,12.161C157.494,12.734 157.849,13.08 158.373,13.08C158.896,13.08 159.251,12.734 159.251,12.161M159.429,12.161C159.429,12.789 159.014,13.225 158.373,13.225C157.73,13.225 157.312,12.789 157.312,12.161C157.312,11.532 157.73,11.104 158.373,11.104C159.014,11.104 159.429,11.532 159.429,12.161M15.151,6.938C14.336,2.623 9.866,3.415 8.636,3.674C6.369,4.152 4.211,4.667 2.158,5.213C3.232,1.78 4.475,-1.557 6.374,-6.087C5.586,-6.292 4.698,-6.424 3.692,-6.301C2.558,-6.16 1.288,-5.577 0.528,-4.139C-0.687,-1.83 -2.003,1.802 -3.451,6.87C-6.447,7.844 -9.197,8.891 -11.733,9.998C-10.399,5.25 -8.66,0.46 -6.807,-3.556C-7.198,-3.683 -7.94,-3.806 -8.478,-3.806C-10.526,-3.806 -11.719,-3.032 -12.652,-1.02C-14.104,2.112 -15.821,7.389 -17.11,12.597C-19.609,13.927 -21.867,15.315 -23.925,16.736C-25.2,17.615 -25.514,18.771 -25.591,19.3C-25.646,19.668 -25.573,20.437 -25.323,20.906C-23.93,20.073 -21.435,18.662 -18.098,17.046C-18.767,20.351 -19.541,24.935 -19.559,28.436C-19.568,30.221 -18.466,31.268 -16.891,31.268C-16.458,31.268 -15.603,31.145 -15.507,31.046C-15.052,24.913 -13.822,18.712 -12.898,14.669C-10.417,13.608 -7.672,12.529 -4.717,11.523C-4.785,11.801 -4.858,12.069 -4.931,12.351C-7.212,21.27 -8.742,30.882 -8.614,33.49C-8.514,35.602 -6.957,36.413 -5.637,36.413C-5.222,36.413 -4.38,36.3 -4.088,36.167C-3.529,29.634 -1.721,19.731 -0.756,15.893C-0.178,13.608 0.328,11.628 0.828,9.793C5.317,8.532 10.148,7.499 15.151,6.938M95.175,11.104C96.965,11.104 98.517,11.623 99.969,12.42L97.27,25.51L96.76,25.51C95.617,25.51 94.606,25.108 94.274,24.039C93.5,24.872 92.143,25.51 90.422,25.51C87.559,25.51 85.815,23.625 85.815,20.555C85.815,15.315 89.962,11.104 95.175,11.104M95.949,13.722C95.708,13.603 95.435,13.512 95.093,13.512C91.77,13.512 89.671,17.519 89.671,20.437C89.671,22.072 90.304,22.932 91.592,22.932C92.512,22.932 93.177,22.587 93.687,22.012C94.201,21.412 94.52,20.524 94.743,19.495L95.949,13.722ZM80.866,13.731C80.666,13.613 80.183,13.512 79.755,13.512C76.833,13.512 74.47,17.092 74.47,20.41C74.47,22.045 75.23,22.932 76.518,22.932C77.434,22.932 78.066,22.587 78.585,22.012C79.1,21.412 79.441,20.524 79.668,19.495L80.866,13.731ZM82.318,6.702C83.01,3.191 86.379,3.687 86.68,3.724L82.186,25.51L81.676,25.51C80.529,25.51 79.527,25.091 79.2,24.052C78.398,24.885 77.064,25.51 75.343,25.51C72.475,25.51 70.59,23.593 70.59,20.524C70.59,15.543 74.488,11.099 79.951,11.099C80.493,11.099 81.043,11.145 81.381,11.231C81.349,11.4 81.981,8.409 82.318,6.702M152.358,11.104C150.542,11.104 148.989,11.919 147.997,13.021C147.997,13.021 147.869,10.266 144.231,11.364C144.887,13.29 144.532,13.968 143.79,17.856L143.021,21.617C142.888,22.263 142.037,25.51 145.461,25.51L145.966,25.51L147.318,18.98C147.691,17.227 148.393,13.904 151.042,13.904C152.358,13.904 153.032,14.723 152.618,16.736L151.611,21.607C151.47,22.236 150.605,25.51 154.047,25.51L154.557,25.51L156.396,16.591C157.216,12.775 155.236,11.104 152.358,11.104M38.243,5.859C38.075,6.688 37.697,8.496 37.082,11.455L30.763,12.712L32.621,3.724C32.046,3.624 28.91,3.374 28.268,6.637C28.067,7.658 25.167,21.612 25.167,21.612C25.022,22.341 24.175,25.51 27.594,25.51L28.118,25.51L29.943,16.676L36.267,15.421C35.639,18.457 34.983,21.612 34.983,21.612C34.842,22.245 34,25.51 37.419,25.51L37.934,25.51L42.609,2.895C42.609,2.895 38.985,2.249 38.243,5.859M136.838,11.104C135.021,11.104 133.473,11.919 132.481,13.021C132.481,13.021 132.349,10.266 128.711,11.364C129.371,13.29 129.012,13.968 128.274,17.856L127.5,21.617C127.368,22.263 126.517,25.51 129.94,25.51L130.446,25.51L131.798,18.98C132.171,17.227 132.873,13.904 135.522,13.904C136.838,13.904 137.512,14.723 137.097,16.736L136.096,21.607C135.95,22.236 135.085,25.51 138.527,25.51L139.037,25.51L140.881,16.591C141.696,12.775 139.715,11.104 136.838,11.104M123.453,5.695C122.888,8.345 120.166,21.612 120.166,21.612C119.997,22.372 119.241,25.51 122.601,25.51L123.12,25.51L127.773,2.895C126.89,2.741 124.081,2.759 123.453,5.695M111.347,14.263C112.043,10.863 115.326,11.3 115.699,11.35L113.186,23.433C112.672,25.864 111.916,27.581 110.801,28.838C109.435,30.381 107.286,31.296 104.568,31.296C101.399,31.296 99.022,29.871 99.022,27.467C99.022,25.833 100.051,24.694 102.255,24.152C101.682,23.515 101.367,22.691 101.367,21.662C101.367,20.943 101.682,19.495 101.741,19.249C101.8,19.008 102.214,16.95 102.77,14.263C103.466,10.872 106.771,11.277 107.117,11.35L105.469,19.372C105.324,20.059 104.527,22.691 106.913,22.691C109.585,22.691 110.277,19.382 110.646,17.642C110.646,17.642 111.092,15.498 111.347,14.263M109.03,24.622C107.91,25.118 107.117,25.181 105.656,25.349C103.598,25.578 102.196,25.924 102.196,27.348C102.196,28.464 103.279,29.096 104.6,29.096C105.656,29.096 106.63,28.723 107.345,28.045C108.083,27.321 108.597,26.329 108.884,25.209L109.03,24.622ZM50.148,11.104C53.322,11.104 55.616,12.789 55.616,16.139C55.616,19.153 54.382,22.012 52.261,23.729C50.923,24.849 49.147,25.51 47.139,25.51C43.957,25.51 41.667,23.788 41.667,20.437C41.667,17.432 42.9,14.596 45.018,12.88C46.365,11.76 48.141,11.104 50.148,11.104M49.999,21.639C51.177,20.155 51.774,17.778 51.774,16.172C51.774,14.682 51.205,13.622 49.693,13.622C48.742,13.622 47.909,14.168 47.28,14.969C46.105,16.459 45.505,18.835 45.505,20.437C45.505,21.93 46.105,22.992 47.622,22.992C48.569,22.992 49.37,22.445 49.999,21.639M65.555,14.218C64.799,17.747 64.03,21.617 64.03,21.617C63.889,22.24 63.046,25.51 66.47,25.51L66.976,25.51L69.898,11.35C69.762,11.332 66.302,10.745 65.555,14.218M60.215,6.637C59.473,10.244 57.124,21.617 57.124,21.617C56.973,22.24 56.131,25.51 59.555,25.51L60.069,25.51L64.563,3.724C64.563,3.724 60.948,3.054 60.215,6.637M69.22,5.454C70.194,5.454 70.941,6.146 70.941,7.148C70.941,8.496 69.621,9.697 68.3,9.697C67.326,9.697 66.611,9.01 66.611,8.009C66.611,6.656 67.899,5.454 69.22,5.454" style="fill:rgb(78,155,68);fill-rule:nonzero;"/>
            </g>
        </g>
    </g>
</svg>
