<?xml version="1.0" encoding="UTF-8" standalone="no"?>
<!DOCTYPE svg PUBLIC "-//W3C//DTD SVG 1.1//EN" "http://www.w3.org/Graphics/SVG/1.1/DTD/svg11.dtd">
<svg width="100%" height="100%" viewBox="0 0 456 210" version="1.1" xmlns="http://www.w3.org/2000/svg" xmlns:xlink="http://www.w3.org/1999/xlink" xml:space="preserve" xmlns:serif="http://www.serif.com/" style="fill-rule:evenodd;clip-rule:evenodd;stroke-linejoin:round;stroke-miterlimit:2;">
    <g transform="matrix(1,0,0,1,-1186.62,-756.613)">
        <g transform="matrix(4.16667,0,0,4.16667,0,0)">
            <g transform="matrix(1,0,0,1,300.955,195.899)">
                <path d="M0,25.192C-1.778,25.571 -1.97,25.806 -3.487,26.505C-6.854,28.057 -7.551,28.863 -10.729,30.775C-11.891,17.567 -9.404,3.473 -6.02,-9.242C-5.84,-9.918 -6.212,-10.97 -7.674,-11.079C-8.675,-11.154 -10.332,-10.676 -11.302,-10.185C-12.049,-9.808 -12.42,-9.105 -12.55,-8.503C-15.279,4.199 -17.189,17.235 -15.573,30.426C-15.297,32.672 -15.393,35.467 -13.281,35.829C-10.26,36.346 -8.972,34.196 -4.601,31.678C-2.799,30.641 -0.736,29.946 3.172,29.106C4.63,28.793 4.282,27.63 3.763,26.473C3.25,25.334 1.934,24.779 0,25.192" style="fill:rgb(189,32,46);fill-rule:nonzero;"/>
            </g>
        </g>
        <g transform="matrix(4.16667,0,0,4.16667,0,0)">
            <g transform="matrix(1,0,0,1,379.327,190.752)">
                <path d="M0,30.95C-1.691,32.481 -4.376,34.181 -6.863,34.319C-7.695,34.365 -8.583,33.77 -8.675,32.919C-8.752,32.19 -8.696,31.447 -8.44,30.848C-7.162,27.865 -4.735,25.596 -1.621,24.531C-0.999,24.318 -0.171,24.241 0.644,24.336C2.103,24.507 3.15,25.561 2.796,27.039C2.444,28.517 1.666,29.443 0,30.95M-39.784,0.399C-38.604,-1.144 -35.935,-4.382 -34.126,-5.043C-32.316,-5.704 -31.399,-3.676 -35.373,3.979C-38.327,9.671 -42.926,17.35 -49.403,22.931C-48.253,14.974 -44.514,6.588 -39.784,0.399M-60.737,21.285C-60.948,23.136 -61.303,25.082 -62.014,26.724C-64.608,25.432 -65.797,23.042 -66.031,20.424C-66.146,19.133 -66.194,15.923 -63.314,15.706C-60.767,15.514 -60.343,17.841 -60.737,21.285M-66.556,30.819C-67.716,30.996 -69.385,29.468 -69.821,27.611C-70.542,24.539 -70.334,21.435 -69.796,20.313C-69.615,24.059 -67.949,27.375 -64.838,29.411C-64.633,29.546 -64.417,29.668 -64.202,29.786C-64.866,30.316 -65.641,30.679 -66.556,30.819M14.47,35.105C13.799,34.611 12.326,34.44 11.88,34.883C10.048,36.705 6.98,38.333 4.205,37.512C2.794,37.094 2.379,35.467 2.443,35.033C2.803,32.622 5.208,30.807 6.373,28.749C8.117,25.665 5.474,21.841 2.101,21.114C0.355,20.737 -1.524,20.817 -2.952,21.159C-6.044,21.902 -8.614,23.794 -10.448,26.104C-12.278,28.41 -14.227,31.01 -17.139,31.838L-17.132,31.886C-18.129,32.131 -19.201,32.189 -20.371,31.98C-22.224,31.649 -21.737,28.066 -21.347,27.005C-21.232,26.692 -21.106,26.375 -20.974,26.058C-18.829,22.293 -16.697,18.986 -14.55,16.052C-14.407,16.047 -14.233,16.054 -13.992,16.051C-10.249,16.006 -6.645,16.325 -2.884,16.471C-2.115,16.501 -1.226,16.286 -0.866,15.89C-0.617,15.616 -0.979,14.66 -1.46,14.304C-2.133,13.805 -3.201,13.414 -4.05,13.292C-6.317,12.968 -9.335,12.618 -11.755,12.45C-9.903,10.203 -8.031,8.204 -6.123,6.399L-6.088,6.417C-5.878,6.223 -5.67,6.026 -5.458,5.834C-4.751,5.194 -4.394,4.369 -5.885,3.354C-7.513,2.246 -8.557,2.794 -9.297,3.351C-9.632,3.602 -9.959,3.86 -10.286,4.117L-10.293,4.114C-10.306,4.127 -10.319,4.141 -10.333,4.154C-10.348,4.166 -10.365,4.179 -10.38,4.191L-10.373,4.196C-12.774,6.594 -15.128,9.346 -17.453,12.479C-18.141,12.439 -19.837,12.342 -20.632,12.32C-21.792,12.286 -22.03,12.426 -22.171,12.928C-22.308,13.416 -23.519,15.174 -22.562,15.284C-21.296,15.429 -20.519,15.461 -19.654,15.573C-21.382,18.102 -23.097,20.848 -24.805,23.83C-25.322,24.663 -25.773,25.372 -26.099,25.844C-27.462,27.818 -31.713,30.33 -33.458,29.666C-34.174,29.393 -33.957,28.106 -33.817,27.625C-33.432,26.303 -32.862,25.026 -32.141,23.832C-31.195,22.269 -29.981,20.827 -28.91,19.31C-28.452,18.662 -27.843,17.909 -29.218,17.066C-30.653,16.188 -31.443,16.915 -32.059,17.435C-33.555,18.697 -34.96,20.04 -36.148,21.45C-38.553,24.302 -41.153,27.181 -44.62,28.799C-45.799,29.348 -47.095,29.592 -48.527,28.441C-48.688,28.312 -48.821,28.167 -48.941,28.015C-40.658,21.879 -35.124,12.602 -31.609,5.975C-28.077,-0.685 -27.426,-5.333 -29.674,-7.839C-30.312,-8.551 -34.637,-11.168 -39.707,-6.204C-47.525,1.449 -52.155,11.419 -53.644,22.477C-53.801,23.645 -53.865,24.838 -53.735,26.043C-54.958,26.708 -56.906,27.389 -58.456,27.342C-57.418,25.018 -56.649,22.073 -56.522,19.546C-56.311,15.317 -58.63,11.385 -63.189,11.762C-71.397,12.442 -75.391,21.771 -73.526,28.908C-72.573,32.557 -70.137,35.58 -66.048,34.936C-63.689,34.565 -61.895,33.049 -60.472,31.033C-58.002,31.459 -54.866,30.814 -52.64,29.733C-51.17,32.269 -48.166,33.751 -45.318,32.845C-43.815,32.366 -42.472,31.572 -41.155,30.82C-40.124,30.231 -39.286,29.45 -38.179,28.658C-38.024,29.324 -37.934,29.751 -37.829,30.179C-37.343,32.164 -35.687,33.513 -33.918,33.518C-31.012,33.53 -27.384,31.628 -25.216,29.56C-25.714,32.337 -24.025,34.877 -21.086,35.345C-17.628,35.896 -13.942,34.481 -12.693,33.863C-11.487,37.096 -7.917,38.419 -5.091,37.425C-3.938,37.019 -2.888,36.438 -1.747,35.95C-0.975,38.319 0.317,39.554 1.977,40.202C6.888,42.118 11.856,39.827 14.602,36.241C14.768,36.024 14.926,35.441 14.47,35.105" style="fill:rgb(189,32,46);fill-rule:nonzero;"/>
            </g>
        </g>
        <g transform="matrix(4.16667,0,0,4.16667,0,0)">
            <g transform="matrix(0.957484,0.288488,0.288488,-0.957484,355.333,199.893)">
                <path d="M0.872,0.071C2.988,0.822 4.798,3.53 4.117,5.003C3.65,5.994 2.568,6.339 0.872,6.026C-2.039,5.521 -4.278,2.026 -2.801,0.553C-1.855,-0.41 -0.582,-0.44 0.872,0.071" style="fill:rgb(189,32,46);fill-rule:nonzero;"/>
            </g>
        </g>
    </g>
</svg>
