<?xml version="1.0" encoding="UTF-8" standalone="no"?>
<!DOCTYPE svg PUBLIC "-//W3C//DTD SVG 1.1//EN" "http://www.w3.org/Graphics/SVG/1.1/DTD/svg11.dtd">
<svg width="100%" height="100%" viewBox="0 0 683 100" version="1.1" xmlns="http://www.w3.org/2000/svg" xmlns:xlink="http://www.w3.org/1999/xlink" xml:space="preserve" xmlns:serif="http://www.serif.com/" style="fill-rule:evenodd;clip-rule:evenodd;stroke-linejoin:round;stroke-miterlimit:2;">
    <g transform="matrix(1,0,0,1,-1248.76,-3004.6)">
        <g transform="matrix(4.16667,0,0,4.16667,0,0)">
            <g transform="matrix(1,0,0,1,304.211,734.583)">
                <path d="M0,-3.132C0.08,-3.063 0.165,-3.029 0.256,-3.029L4.885,-3.029C4.998,-3.029 5.077,-3.052 5.123,-3.098L6.179,-3.982C6.269,-4.05 6.314,-4.142 6.314,-4.254L6.314,-7.862C6.314,-7.975 6.269,-8.067 6.179,-8.135L5.123,-9.021C5.033,-9.065 4.952,-9.087 4.885,-9.087L0.256,-9.087C0.165,-9.087 0.08,-9.054 0,-8.986C-0.079,-8.919 -0.119,-8.827 -0.119,-8.714L-0.119,-3.369C-0.119,-3.279 -0.079,-3.2 0,-3.132M3.694,1.633C3.625,1.452 3.5,1.362 3.319,1.362L0.256,1.362C0.165,1.362 0.08,1.395 0,1.464C-0.079,1.531 -0.119,1.622 -0.119,1.735L-0.119,10.347L-4.51,10.347L-4.51,-13.479L6.587,-13.479L10.706,-10.074L10.706,-2.042L8.05,0.171C7.914,0.306 7.881,0.431 7.948,0.546L10.875,10.347L6.281,10.347L3.694,1.633Z" style="fill:rgb(35,31,32);fill-rule:nonzero;"/>
            </g>
        </g>
        <g transform="matrix(4.16667,0,0,4.16667,0,0)">
            <g transform="matrix(1,0,0,1,325.835,739.143)">
                <path d="M0,-12.251C-0.09,-12.251 -0.169,-12.229 -0.238,-12.185C-0.306,-12.139 -0.352,-12.069 -0.373,-11.98L-2.348,-4.254C-2.348,-4.096 -2.325,-3.98 -2.279,-3.912C-2.189,-3.822 -2.087,-3.776 -1.973,-3.776L1.975,-3.776C2.064,-3.776 2.156,-3.822 2.248,-3.912C2.314,-4.026 2.337,-4.139 2.314,-4.254L0.341,-11.98C0.296,-12.161 0.181,-12.251 0,-12.251M3.506,0.954C3.506,0.728 3.391,0.615 3.167,0.615L-3.165,0.615C-3.279,0.615 -3.369,0.648 -3.438,0.717C-3.506,0.783 -3.54,0.865 -3.54,0.954L-3.54,5.787L-7.931,5.787L-7.931,-0.033L-3.335,-18.038L3.335,-18.038L7.897,-0.033L7.897,5.787L3.506,5.787L3.506,0.954Z" style="fill:rgb(35,31,32);fill-rule:nonzero;"/>
            </g>
        </g>
        <g transform="matrix(4.16667,0,0,4.16667,0,0)">
            <g transform="matrix(1,0,0,1,346.013,740.538)">
                <path d="M0,-15.042L-4.695,-15.042C-4.787,-15.042 -4.873,-15.009 -4.952,-14.94C-5.031,-14.874 -5.07,-14.782 -5.07,-14.669L-5.07,-0.372C-5.07,-0.283 -5.031,-0.197 -4.952,-0.118C-4.873,-0.039 -4.787,-0 -4.695,-0L0,-0C0.069,-0 0.148,-0.021 0.24,-0.066L1.227,-0.85C1.316,-0.918 1.362,-1.008 1.362,-1.122L1.362,-13.92C1.362,-14.032 1.316,-14.124 1.227,-14.192L0.24,-14.976C0.148,-15.02 0.069,-15.042 0,-15.042M1.6,-19.434L5.754,-16.233L5.754,1.192L1.6,4.392L-9.462,4.392L-9.462,-19.434L1.6,-19.434Z" style="fill:rgb(35,31,32);fill-rule:nonzero;"/>
            </g>
        </g>
        <g transform="matrix(4.16667,0,0,4.16667,0,0)">
            <g transform="matrix(1,0,0,1,363.287,740.538)">
                <path d="M0,-15.042C-0.092,-15.042 -0.177,-15.009 -0.256,-14.94C-0.335,-14.874 -0.375,-14.782 -0.375,-14.669L-0.375,-0.372C-0.375,-0.283 -0.335,-0.197 -0.256,-0.118C-0.177,-0.039 -0.092,-0 0,-0L3.806,-0L3.806,4.392L-8.948,4.392L-8.948,-0L-5.14,-0C-5.027,-0 -4.935,-0.039 -4.869,-0.118C-4.8,-0.197 -4.767,-0.283 -4.767,-0.372L-4.767,-14.669C-4.767,-14.782 -4.8,-14.874 -4.869,-14.94C-4.935,-15.009 -5.027,-15.042 -5.14,-15.042L-8.948,-15.042L-8.948,-19.434L3.806,-19.434L3.806,-15.042L0,-15.042Z" style="fill:rgb(35,31,32);fill-rule:nonzero;"/>
            </g>
        </g>
        <g transform="matrix(4.16667,0,0,4.16667,0,0)">
            <g transform="matrix(1,0,0,1,374.195,726.346)">
                <path d="M0,13.343L1.023,14.126C1.112,14.172 1.181,14.193 1.227,14.193L5.106,14.193C5.152,14.193 5.221,14.172 5.31,14.126L6.331,13.343C6.422,13.251 6.468,13.162 6.468,13.071L6.468,0.273C6.468,0.184 6.422,0.092 6.331,-0L5.31,-0.783C5.221,-0.827 5.152,-0.849 5.106,-0.849L1.227,-0.849C1.181,-0.849 1.112,-0.827 1.023,-0.783L0,-0C-0.089,0.069 -0.135,0.16 -0.135,0.273L-0.135,13.071C-0.135,13.185 -0.089,13.275 0,13.343M-4.527,15.385L-4.527,-2.041L-0.373,-5.241L6.706,-5.241L10.857,-2.041L10.857,15.385L6.706,18.584L-0.373,18.584L-4.527,15.385Z" style="fill:rgb(35,31,32);fill-rule:nonzero;"/>
            </g>
        </g>
        <g transform="matrix(4.16667,0,0,4.16667,0,0)">
            <g transform="matrix(1,0,0,1,408.982,739.416)">
                <path d="M0,-12.798C0,-12.887 -0.045,-12.979 -0.137,-13.07L-1.158,-13.854C-1.248,-13.898 -1.316,-13.92 -1.362,-13.92L-5.241,-13.92C-5.287,-13.92 -5.356,-13.898 -5.445,-13.854L-6.468,-13.07C-6.558,-13.002 -6.604,-12.91 -6.604,-12.798L-6.604,-0C-6.604,0.114 -6.558,0.204 -6.468,0.272L-5.445,1.056C-5.356,1.101 -5.287,1.122 -5.241,1.122L-1.362,1.122C-1.316,1.122 -1.248,1.101 -1.158,1.056L-0.137,0.272C-0.045,0.181 0,0.092 0,-0L0,-3.471L4.39,-3.471L4.39,2.314L0.238,5.514L-6.841,5.514L-10.995,2.314L-10.995,-15.111L-6.841,-18.312L0.238,-18.312L4.39,-15.111L4.39,-10.618L0,-10.618L0,-12.798Z" style="fill:rgb(35,31,32);fill-rule:nonzero;"/>
            </g>
        </g>
        <g transform="matrix(4.16667,0,0,4.16667,0,0)">
            <g transform="matrix(1,0,0,1,424.651,740.538)">
                <path d="M0,-15.042C-0.092,-15.042 -0.177,-15.009 -0.256,-14.94C-0.335,-14.874 -0.375,-14.782 -0.375,-14.669L-0.375,-0.372C-0.375,-0.283 -0.335,-0.197 -0.256,-0.118C-0.177,-0.039 -0.092,-0 0,-0L3.806,-0L3.806,4.392L-8.948,4.392L-8.948,-0L-5.139,-0C-5.027,-0 -4.935,-0.039 -4.869,-0.118C-4.8,-0.197 -4.767,-0.283 -4.767,-0.372L-4.767,-14.669C-4.767,-14.782 -4.8,-14.874 -4.869,-14.94C-4.935,-15.009 -5.027,-15.042 -5.139,-15.042L-8.948,-15.042L-8.948,-19.434L3.806,-19.434L3.806,-15.042L0,-15.042Z" style="fill:rgb(35,31,32);fill-rule:nonzero;"/>
            </g>
        </g>
        <g transform="matrix(4.16667,0,0,4.16667,0,0)">
            <g transform="matrix(1,0,0,1,435.943,740.165)">
                <path d="M0,-14.296C0,-14.409 -0.033,-14.501 -0.102,-14.567C-0.168,-14.636 -0.26,-14.669 -0.372,-14.669L-5.104,-14.669L-5.104,-19.061L9.498,-19.061L9.498,-14.669L4.767,-14.669C4.675,-14.669 4.59,-14.636 4.511,-14.567C4.432,-14.501 4.392,-14.409 4.392,-14.296L4.392,4.765L0,4.765L0,-14.296Z" style="fill:rgb(35,31,32);fill-rule:nonzero;"/>
            </g>
        </g>
        <g transform="matrix(4.16667,0,0,4.16667,0,0)">
            <g transform="matrix(1,0,0,1,453.489,729.579)">
                <path d="M0,6.876C0,6.808 -0.023,6.729 -0.067,6.637L-5.719,-0.748L-5.719,-8.475L-1.327,-8.475L-1.327,-2.348C-1.327,-2.279 -1.305,-2.2 -1.259,-2.11L1.905,2.008C1.975,2.122 2.076,2.179 2.212,2.179C2.326,2.179 2.416,2.122 2.484,2.008L5.649,-2.11C5.695,-2.154 5.718,-2.233 5.718,-2.348L5.718,-8.475L10.109,-8.475L10.109,-0.748L4.46,6.637C4.414,6.729 4.391,6.808 4.391,6.876L4.391,15.351L0,15.351L0,6.876Z" style="fill:rgb(35,31,32);fill-rule:nonzero;"/>
            </g>
        </g>
    </g>
</svg>
