<?xml version="1.0" encoding="UTF-8" standalone="no"?>
<!DOCTYPE svg PUBLIC "-//W3C//DTD SVG 1.1//EN" "http://www.w3.org/Graphics/SVG/1.1/DTD/svg11.dtd">
<svg width="100%" height="100%" viewBox="0 0 554 404" version="1.1" xmlns="http://www.w3.org/2000/svg" xmlns:xlink="http://www.w3.org/1999/xlink" xml:space="preserve" xmlns:serif="http://www.serif.com/" style="fill-rule:evenodd;clip-rule:evenodd;stroke-linejoin:round;stroke-miterlimit:2;">
    <g transform="matrix(1,0,0,1,-241.472,-145.945)">
        <g transform="matrix(4.16667,0,0,4.16667,0,0)">
            <g transform="matrix(1,0,0,1,61.4174,111.989)">
                <path d="M0,-0.031C0.503,0.058 0.927,0.102 1.274,0.102C2.186,0.102 2.834,-0.12 3.214,-0.567C3.593,-1.013 3.783,-1.566 3.783,-2.222C3.783,-3.272 3.399,-4.002 2.627,-4.415L0,-4.166L0,-0.031ZM6.997,4.704L6.979,5.523L4.033,5.523L1.69,1.224L0,1.242L0,4.489L1.656,4.704L1.639,5.523L-3.361,5.523L-3.464,4.99L-2.041,4.387L-2.041,-4.465L-3.243,-4.583L-3.229,-5.42L1.775,-5.554C3.012,-5.554 4.02,-5.241 4.796,-4.615C5.572,-3.991 5.958,-3.199 5.958,-2.241C5.958,-1.571 5.754,-0.947 5.349,-0.366C4.941,0.215 4.376,0.644 3.648,0.924L5.894,4.571L6.997,4.704Z" style="fill:rgb(35,31,32);fill-rule:nonzero;"/>
            </g>
        </g>
        <g transform="matrix(4.16667,0,0,4.16667,0,0)">
            <g transform="matrix(1,0,0,1,73.016,116.275)">
                <path d="M0,-8.468C-0.413,-8.144 -0.746,-7.611 -0.996,-6.868C-1.248,-6.127 -1.373,-5.314 -1.373,-4.434C-1.373,-3.018 -1.062,-1.885 -0.443,-1.037C0.176,-0.189 1.011,0.235 2.058,0.235C2.428,0.235 2.801,0.184 3.18,0.084C3.648,-0.249 4.029,-0.788 4.317,-1.53C4.608,-2.273 4.753,-3.1 4.753,-4.015C4.753,-5.421 4.449,-6.559 3.841,-7.428C3.232,-8.3 2.428,-8.735 1.421,-8.735C0.964,-8.735 0.491,-8.647 0,-8.468M1.64,-10.042C3.189,-10.042 4.466,-9.49 5.473,-8.392C6.475,-7.293 6.979,-5.861 6.979,-4.101C6.979,-2.392 6.494,-1.021 5.522,0.018C4.552,1.056 3.296,1.574 1.757,1.574C0.207,1.574 -1.069,1.045 -2.067,-0.008C-3.066,-1.061 -3.565,-2.447 -3.565,-4.167C-3.565,-5.894 -3.073,-7.309 -2.09,-8.401C-1.11,-9.495 0.135,-10.042 1.64,-10.042" style="fill:rgb(35,31,32);fill-rule:nonzero;"/>
            </g>
        </g>
        <g transform="matrix(4.16667,0,0,4.16667,0,0)">
            <g transform="matrix(1,0,0,1,84.9174,116.275)">
                <path d="M0,-8.468C-0.413,-8.144 -0.745,-7.611 -0.996,-6.868C-1.247,-6.127 -1.374,-5.314 -1.374,-4.434C-1.374,-3.018 -1.063,-1.885 -0.443,-1.037C0.175,-0.189 1.01,0.235 2.059,0.235C2.427,0.235 2.801,0.184 3.179,0.084C3.648,-0.249 4.027,-0.788 4.315,-1.53C4.608,-2.273 4.753,-3.1 4.753,-4.015C4.753,-5.421 4.448,-6.559 3.841,-7.428C3.232,-8.3 2.427,-8.735 1.422,-8.735C0.964,-8.735 0.491,-8.647 0,-8.468M1.64,-10.042C3.19,-10.042 4.467,-9.49 5.47,-8.392C6.477,-7.293 6.979,-5.861 6.979,-4.101C6.979,-2.392 6.495,-1.021 5.522,0.018C4.551,1.056 3.298,1.574 1.758,1.574C0.206,1.574 -1.069,1.045 -2.067,-0.008C-3.065,-1.061 -3.563,-2.447 -3.563,-4.167C-3.563,-5.894 -3.074,-7.309 -2.093,-8.401C-1.109,-9.495 0.134,-10.042 1.64,-10.042" style="fill:rgb(35,31,32);fill-rule:nonzero;"/>
            </g>
        </g>
        <g transform="matrix(4.16667,0,0,4.16667,0,0)">
            <g transform="matrix(1,0,0,1,107.226,107.539)">
                <path d="M0,9.19L-0.015,9.973L-4.92,9.973L-5.021,9.439C-4.62,9.227 -4.141,9.026 -3.581,8.837L-3.648,3.598L-3.414,0.77L-6.677,9.673L-6.677,9.706L-8.367,10.093L-11.696,0.854L-11.414,3.598L-11.531,8.956L-10.11,9.19L-10.125,9.973L-14.478,9.973L-14.576,9.439C-14.231,9.262 -13.74,9.056 -13.105,8.819L-12.819,0.099L-14.176,-0.118L-14.158,-0.903L-10.258,-0.903L-7.164,7.748L-4.032,-0.903L-0.552,-0.903L-0.452,-0.367C-0.786,-0.178 -1.223,0.006 -1.758,0.185L-1.609,8.938L0,9.19Z" style="fill:rgb(35,31,32);fill-rule:nonzero;"/>
            </g>
        </g>
        <g transform="matrix(4.16667,0,0,4.16667,0,0)">
            <g transform="matrix(1,0,0,1,116.112,109.53)">
                <path d="M0,5.022C0,5.992 -0.37,6.785 -1.11,7.399C-1.852,8.011 -2.79,8.319 -3.915,8.319C-4.553,8.319 -5.235,8.219 -5.965,8.019C-6.694,7.817 -7.266,7.543 -7.68,7.199L-7.665,7.147L-7.68,6.561C-7.68,5.703 -7.608,4.927 -7.464,4.234L-6.407,4.234L-5.874,6.445C-5.169,6.869 -4.334,7.081 -3.363,7.081L-2.995,7.065C-2.371,6.75 -2.059,6.232 -2.059,5.507C-2.059,4.882 -2.437,4.353 -3.195,3.918L-5.838,2.561C-7.033,1.86 -7.632,0.961 -7.632,-0.132C-7.632,-1.071 -7.246,-1.832 -6.476,-2.417C-5.705,-3.001 -4.725,-3.297 -3.531,-3.297C-2.614,-3.297 -1.607,-3.112 -0.501,-2.744C-0.444,-1.806 -0.517,-0.82 -0.718,0.218L-1.84,0.218L-2.158,-1.521C-2.782,-1.892 -3.519,-2.074 -4.367,-2.074L-4.868,-2.056C-5.394,-1.734 -5.653,-1.254 -5.653,-0.62C-5.653,-0.028 -5.253,0.482 -4.451,0.904L-1.939,2.142C-0.645,2.869 0,3.828 0,5.022" style="fill:rgb(35,31,32);fill-rule:nonzero;"/>
            </g>
        </g>
        <g transform="matrix(4.16667,0,0,4.16667,0,0)">
            <g transform="matrix(1,0,0,1,134.996,107.388)">
                <path d="M0,9.305L-0.017,10.124L-4.953,10.124L-5.053,9.59L-3.63,8.988L-3.63,5.339L-8.603,5.339L-8.603,9.107L-7.01,9.305L-7.029,10.124L-11.964,10.124L-12.067,9.59L-10.643,8.988L-10.643,0.168L-11.933,-0L-11.914,-0.819L-7.281,-0.819L-7.18,-0.284C-7.458,-0.128 -7.933,0.073 -8.603,0.319L-8.603,4.034L-3.63,4.034L-3.63,0.168L-4.921,-0L-4.902,-0.819L-0.269,-0.819L-0.168,-0.284C-0.448,-0.128 -0.921,0.073 -1.59,0.319L-1.59,9.107L0,9.305Z" style="fill:rgb(35,31,32);fill-rule:nonzero;"/>
            </g>
        </g>
        <g transform="matrix(4.16667,0,0,4.16667,0,0)">
            <g transform="matrix(1,0,0,1,138.689,116.275)">
                <path d="M0,-8.468C-0.414,-8.144 -0.746,-7.611 -0.997,-6.868C-1.25,-6.127 -1.374,-5.314 -1.374,-4.434C-1.374,-3.018 -1.064,-1.885 -0.443,-1.037C0.175,-0.189 1.008,0.235 2.059,0.235C2.424,0.235 2.799,0.184 3.179,0.084C3.647,-0.249 4.026,-0.788 4.315,-1.53C4.606,-2.273 4.753,-3.1 4.753,-4.015C4.753,-5.421 4.448,-6.559 3.84,-7.428C3.232,-8.3 2.424,-8.735 1.422,-8.735C0.964,-8.735 0.49,-8.647 0,-8.468M1.64,-10.042C3.19,-10.042 4.466,-9.49 5.47,-8.392C6.477,-7.293 6.979,-5.861 6.979,-4.101C6.979,-2.392 6.491,-1.021 5.521,0.018C4.553,1.056 3.295,1.574 1.758,1.574C0.205,1.574 -1.07,1.045 -2.067,-0.008C-3.065,-1.061 -3.566,-2.447 -3.566,-4.167C-3.566,-5.894 -3.075,-7.309 -2.093,-8.401C-1.11,-9.495 0.133,-10.042 1.64,-10.042" style="fill:rgb(35,31,32);fill-rule:nonzero;"/>
            </g>
        </g>
        <g transform="matrix(4.16667,0,0,4.16667,0,0)">
            <g transform="matrix(1,0,0,1,156.729,117.512)">
                <path d="M0,-11.043L0.016,-10.609C0.016,-9.739 -0.063,-8.823 -0.219,-7.864L-1.358,-7.864L-1.574,-9.756L-4.018,-9.888L-4.018,-1.053L-2.195,-0.819L-2.21,0L-7.715,0L-7.815,-0.534L-6.593,-1.002L-6.059,-1.187L-6.059,-9.888L-8.502,-9.756L-8.721,-7.864L-9.842,-7.864C-9.997,-8.779 -10.075,-9.66 -10.075,-10.508L-10.06,-11.043L-5.005,-10.978C-3.231,-10.978 -1.562,-10.999 0,-11.043" style="fill:rgb(35,31,32);fill-rule:nonzero;"/>
            </g>
        </g>
        <g transform="matrix(4.16667,0,0,4.16667,0,0)">
            <g transform="matrix(1,0,0,1,165.749,109.73)">
                <path d="M0,4.621C0.022,5.737 -0.044,6.791 -0.201,7.782L-8.469,7.782L-8.57,7.248L-7.146,6.646L-7.146,-2.207L-8.351,-2.325L-8.334,-3.161L-0.151,-3.161L-0.134,-2.692C-0.134,-1.901 -0.212,-1.071 -0.367,-0.201L-1.523,-0.201L-1.774,-1.805L-5.104,-2.024L-5.104,1.776L-1.371,1.473L-1.371,3.047L-5.104,2.897L-5.104,6.545L-1.641,6.345L-1.138,4.537L0,4.621Z" style="fill:rgb(35,31,32);fill-rule:nonzero;"/>
            </g>
        </g>
        <g transform="matrix(4.16667,0,0,4.16667,0,0)">
            <g transform="matrix(1,0,0,1,175.644,110.166)">
                <path d="M0,3.749C0.021,5.211 -0.049,6.412 -0.218,7.346L-8.819,7.346L-8.921,6.812L-7.498,6.21L-7.498,-2.609L-8.788,-2.778L-8.77,-3.597L-4.135,-3.597L-4.034,-3.062C-4.314,-2.906 -4.787,-2.705 -5.455,-2.459L-5.455,6.094L-1.759,5.86L-1.207,3.667L0,3.749Z" style="fill:rgb(35,31,32);fill-rule:nonzero;"/>
            </g>
        </g>
        <g transform="matrix(4.16667,0,0,4.16667,0,0)">
            <g transform="matrix(1,0,0,1,184.625,109.53)">
                <path d="M0,5.022C0,5.992 -0.37,6.785 -1.113,7.399C-1.855,8.011 -2.789,8.319 -3.914,8.319C-4.552,8.319 -5.234,8.219 -5.965,8.019C-6.698,7.817 -7.268,7.543 -7.679,7.199L-7.664,7.147L-7.679,6.561C-7.679,5.703 -7.609,4.927 -7.463,4.234L-6.408,4.234L-5.873,6.445C-5.171,6.869 -4.333,7.081 -3.363,7.081L-2.996,7.065C-2.37,6.75 -2.057,6.232 -2.057,5.507C-2.057,4.882 -2.435,4.353 -3.197,3.918L-5.841,2.561C-7.034,1.86 -7.63,0.961 -7.63,-0.132C-7.63,-1.071 -7.245,-1.832 -6.476,-2.417C-5.706,-3.001 -4.725,-3.297 -3.529,-3.297C-2.617,-3.297 -1.604,-3.112 -0.502,-2.744C-0.446,-1.806 -0.517,-0.82 -0.718,0.218L-1.839,0.218L-2.157,-1.521C-2.782,-1.892 -3.52,-2.074 -4.368,-2.074L-4.869,-2.056C-5.394,-1.734 -5.657,-1.254 -5.657,-0.62C-5.657,-0.028 -5.254,0.482 -4.45,0.904L-1.939,2.142C-0.648,2.869 0,3.828 0,5.022" style="fill:rgb(35,31,32);fill-rule:nonzero;"/>
            </g>
        </g>
        <g transform="matrix(4.16667,0,0,4.16667,0,0)">
            <g transform="matrix(1,0,0,1,186.945,108.628)">
                <path d="M0,-1.522L0.665,-1.522L0.665,-1.89L-1.099,-1.89L-1.099,-1.522L-0.433,-1.522L-0.433,0.368L0,0.368L0,-1.522Z" style="fill:rgb(3,4,5);fill-rule:nonzero;"/>
            </g>
        </g>
        <g transform="matrix(4.16667,0,0,4.16667,0,0)">
            <g transform="matrix(1,0,0,1,190.849,106.738)">
                <path d="M0,2.257L0,0L-0.718,0L-1.316,1.674L-1.328,1.674L-1.946,0L-2.641,0L-2.641,2.257L-2.204,2.257L-2.237,0.363L-2.234,0.363L-1.508,2.257L-1.127,2.257L-0.415,0.353L-0.4,0.353L-0.434,2.257L0,2.257Z" style="fill:rgb(3,4,5);fill-rule:nonzero;"/>
            </g>
        </g>
        <g transform="matrix(4.16667,0,0,4.16667,0,0)">
            <g transform="matrix(1,0,0,1,131.127,51.9787)">
                <path d="M0,26.917L-13.454,26.917L-9.844,12.692C-11.99,11.568 -13.454,9.323 -13.454,6.732C-13.454,3.047 -10.496,0.06 -6.826,0.01L-6.828,0.003L-6.624,0.003L-6.624,0.01C-2.958,0.06 0,3.047 0,6.732C0,9.323 -1.464,11.568 -3.608,12.692L0,26.917ZM-6.727,-13.847C-21.805,-13.847 -34.032,-1.62 -34.032,13.46C-34.032,28.539 -21.805,40.764 -6.727,40.764C8.35,40.764 20.578,28.539 20.578,13.46C20.578,-1.62 8.35,-13.847 -6.727,-13.847" style="fill:rgb(35,31,32);"/>
            </g>
        </g>
        <g transform="matrix(4.16667,0,0,4.16667,0,0)">
            <g transform="matrix(1,0,0,1,124.398,93.9837)">
                <path d="M0,-57.089C-15.738,-57.089 -28.542,-44.285 -28.542,-28.545C-28.542,-12.805 -15.738,-0.001 0,-0.001C15.74,-0.001 28.547,-12.805 28.547,-28.545C28.547,-44.285 15.74,-57.089 0,-57.089M0,1.868C-16.77,1.868 -30.411,-11.776 -30.411,-28.545C-30.411,-45.315 -16.77,-58.957 0,-58.957C16.771,-58.957 30.416,-45.315 30.416,-28.545C30.416,-11.776 16.771,1.868 0,1.868" style="fill:rgb(35,31,32);fill-rule:nonzero;"/>
            </g>
        </g>
        <g transform="matrix(4.16667,0,0,4.16667,0,0)">
            <g transform="matrix(1,0,0,1,105.631,126.645)">
                <path d="M0,4.71L-0.009,5.135L-1.446,5.135L-3.272,2.609L-3.734,3.094L-3.734,4.616L-2.958,4.719L-2.967,5.135L-5.44,5.135L-5.492,4.863L-4.77,4.557L-4.77,0.076L-5.434,-0.009L-5.424,-0.425L-3.06,-0.425L-3.01,-0.153C-3.151,-0.073 -3.392,0.028 -3.734,0.153L-3.734,2.202L-1.742,0.068L-2.321,-0.009L-2.313,-0.425L-0.332,-0.425L-0.281,-0.153C-0.417,-0.073 -0.632,0.014 -0.927,0.11L-2.585,1.871L-0.502,4.65L0,4.71Z" style="fill:rgb(35,31,32);fill-rule:nonzero;"/>
            </g>
        </g>
        <g transform="matrix(4.16667,0,0,4.16667,0,0)">
            <g transform="matrix(1,0,0,1,111.336,128.226)">
                <path d="M0,1.344L-0.85,-0.859L-1.708,1.344L0,1.344ZM2.381,3.138L2.372,3.554L-0.102,3.554L-0.153,3.282C0.033,3.18 0.294,3.072 0.628,2.959L0.229,1.93L-1.93,1.93L-2.356,3.027L-1.522,3.138L-1.531,3.554L-3.783,3.554L-3.835,3.282C-3.631,3.175 -3.395,3.075 -3.128,2.985L-1.191,-1.734L-1.275,-1.947L-0.381,-2.21L1.769,3.061L2.381,3.138Z" style="fill:rgb(35,31,32);fill-rule:nonzero;"/>
            </g>
        </g>
        <g transform="matrix(4.16667,0,0,4.16667,0,0)">
            <g transform="matrix(1,0,0,1,120.712,127.903)">
                <path d="M0,2.194C-0.029,2.674 -0.101,3.236 -0.22,3.877L-4.276,3.877L-4.532,3.401L-1.309,-1.105L-3.434,-0.995L-3.622,0.009L-4.208,0.009C-4.27,-0.343 -4.301,-0.76 -4.301,-1.242L-4.285,-1.683L-0.296,-1.683L-0.305,-1.666L-0.288,-1.683L-0.059,-1.207L-3.214,3.189L-0.96,3.145L-0.627,2.109L0,2.194Z" style="fill:rgb(35,31,32);fill-rule:nonzero;"/>
            </g>
        </g>
        <g transform="matrix(4.16667,0,0,4.16667,0,0)">
            <g transform="matrix(1,0,0,1,125.823,126.739)">
                <path d="M0,4.454L0.17,4.463C0.527,4.463 0.803,4.37 0.996,4.183C1.187,3.996 1.283,3.769 1.283,3.502C1.283,3.196 1.163,2.934 0.921,2.716C0.681,2.498 0.376,2.389 0.009,2.389L-0.766,2.389L-0.766,4.386L0,4.454ZM-0.766,0.118L-0.766,1.878L-0.349,1.878C0.121,1.878 0.473,1.787 0.702,1.606C0.931,1.425 1.045,1.202 1.045,0.934C1.045,0.72 0.975,0.52 0.833,0.335C0.692,0.151 0.51,0.037 0.288,-0.009L-0.766,0.118ZM0.996,2.083C1.447,2.15 1.799,2.316 2.049,2.58C2.298,2.844 2.422,3.15 2.422,3.502C2.422,3.956 2.223,4.323 1.825,4.603C1.424,4.883 0.885,5.03 0.211,5.041L-2.474,5.041L-2.526,4.769L-1.802,4.463L-1.802,-0.035L-2.407,-0.094L-2.398,-0.519C-1.412,-0.565 -0.598,-0.587 0.042,-0.587C0.682,-0.587 1.192,-0.456 1.572,-0.195C1.953,0.064 2.143,0.411 2.143,0.841C2.143,1.136 2.043,1.402 1.849,1.641C1.653,1.878 1.368,2.026 0.996,2.083" style="fill:rgb(35,31,32);fill-rule:nonzero;"/>
            </g>
        </g>
        <g transform="matrix(4.16667,0,0,4.16667,0,0)">
            <g transform="matrix(1,0,0,1,135.337,127.826)">
                <path d="M0,2.348C0.01,2.914 -0.024,3.45 -0.104,3.954L-4.304,3.954L-4.354,3.682L-3.631,3.376L-3.631,-1.122L-4.244,-1.181L-4.234,-1.606L-0.076,-1.606L-0.069,-1.367C-0.069,-0.965 -0.109,-0.543 -0.188,-0.101L-0.776,-0.101L-0.902,-0.918L-2.595,-1.028L-2.595,0.902L-0.697,0.749L-0.697,1.549L-2.595,1.472L-2.595,3.326L-0.833,3.223L-0.58,2.305L0,2.348Z" style="fill:rgb(35,31,32);fill-rule:nonzero;"/>
            </g>
        </g>
        <g transform="matrix(4.16667,0,0,4.16667,0,0)">
            <g transform="matrix(1,0,0,1,142.996,126.833)">
                <path d="M0,4.343L0.009,4.352L-1.726,5.117L-1.964,5.126C-2.6,5.126 -3.129,4.989 -3.557,4.718C-3.985,4.446 -4.303,4.093 -4.51,3.659C-4.718,3.225 -4.819,2.765 -4.819,2.278C-4.819,1.388 -4.541,0.655 -3.983,0.081C-3.424,-0.495 -2.698,-0.783 -1.802,-0.783C-1.111,-0.783 -0.527,-0.61 -0.05,-0.264L-0.06,-0.239L-0.05,-0.035C-0.05,0.322 -0.104,0.691 -0.212,1.071L-0.851,1.071L-0.995,0.212C-1.449,-0.004 -1.925,-0.112 -2.423,-0.112L-2.745,-0.094C-3.075,0.11 -3.321,0.414 -3.486,0.819C-3.65,1.225 -3.732,1.671 -3.732,2.158C-3.732,2.804 -3.562,3.336 -3.226,3.752C-2.89,4.169 -2.449,4.38 -1.905,4.386C-1.66,4.392 -1.354,4.352 -0.985,4.266L-0.985,3.026C-1.361,2.902 -1.658,2.782 -1.878,2.668L-1.828,2.38L0.646,2.38L0.655,2.789L0,2.898L0,4.343Z" style="fill:rgb(35,31,32);fill-rule:nonzero;"/>
            </g>
        </g>
        <g transform="matrix(4.16667,0,0,4.16667,0,0)">
            <g transform="matrix(1,0,0,1,148.623,126.636)">
                <path d="M0,4.728L-0.008,5.144L-2.516,5.144L-2.566,4.872L-1.845,4.566L-1.845,0.085L-2.5,0L-2.491,-0.416L-0.134,-0.416L-0.084,-0.144C-0.226,-0.064 -0.466,0.037 -0.807,0.162L-0.807,4.625L0,4.728Z" style="fill:rgb(35,31,32);fill-rule:nonzero;"/>
            </g>
        </g>
        <g transform="matrix(4.16667,0,0,4.16667,0,0)">
            <g transform="matrix(-1,0,0,1,186.99,-762.495)">
                <rect x="90.051" y="891.159" width="6.888" height="0.647" style="fill:rgb(35,31,32);"/>
            </g>
        </g>
        <g transform="matrix(4.16667,0,0,4.16667,0,0)">
            <g transform="matrix(1,0,0,1,0,-762.494)">
                <rect x="90.207" y="891.346" width="6.577" height="0.272" style="fill:rgb(35,31,32);"/>
            </g>
        </g>
        <g transform="matrix(4.16667,0,0,4.16667,0,0)">
            <g transform="matrix(-1,0,0,1,310.611,-762.495)">
                <rect x="151.861" y="891.159" width="6.889" height="0.647" style="fill:rgb(35,31,32);"/>
            </g>
        </g>
        <g transform="matrix(4.16667,0,0,4.16667,0,0)">
            <g transform="matrix(1,0,0,1,0,-762.494)">
                <rect x="152.017" y="891.346" width="6.578" height="0.272" style="fill:rgb(35,31,32);"/>
            </g>
        </g>
    </g>
</svg>
