<?xml version="1.0" encoding="UTF-8" standalone="no"?>
<!DOCTYPE svg PUBLIC "-//W3C//DTD SVG 1.1//EN" "http://www.w3.org/Graphics/SVG/1.1/DTD/svg11.dtd">
<svg width="100%" height="100%" viewBox="0 0 553 404" version="1.1" xmlns="http://www.w3.org/2000/svg" xmlns:xlink="http://www.w3.org/1999/xlink" xml:space="preserve" xmlns:serif="http://www.serif.com/" style="fill-rule:evenodd;clip-rule:evenodd;stroke-linejoin:round;stroke-miterlimit:2;">
    <g transform="matrix(1,0,0,1,-885.077,-145.947)">
        <g transform="matrix(4.16667,0,0,4.16667,0,0)">
            <g transform="matrix(1,0,0,1,215.875,111.805)">
                <path d="M0,-0.031C0.502,0.057 0.925,0.102 1.271,0.102C2.18,0.102 2.827,-0.12 3.207,-0.566C3.584,-1.011 3.774,-1.562 3.774,-2.217C3.774,-3.264 3.391,-3.993 2.621,-4.405L0,-4.156L0,-0.031ZM6.98,4.693L6.962,5.51L4.023,5.51L1.687,1.221L0,1.24L0,4.478L1.652,4.693L1.635,5.51L-3.354,5.51L-3.457,4.978L-2.036,4.377L-2.036,-4.454L-3.236,-4.572L-3.221,-5.406L1.771,-5.541C3.004,-5.541 4.01,-5.229 4.784,-4.604C5.559,-3.982 5.944,-3.191 5.944,-2.236C5.944,-1.567 5.74,-0.944 5.336,-0.365C4.929,0.215 4.365,0.642 3.639,0.921L5.879,4.559L6.98,4.693Z" style="fill:rgb(35,31,32);fill-rule:nonzero;"/>
            </g>
        </g>
        <g transform="matrix(4.16667,0,0,4.16667,0,0)">
            <g transform="matrix(1,0,0,1,227.446,116.083)">
                <path d="M0,-8.449C-0.412,-8.126 -0.744,-7.595 -0.994,-6.854C-1.244,-6.114 -1.369,-5.303 -1.369,-4.425C-1.369,-3.012 -1.059,-1.882 -0.442,-1.036C0.176,-0.19 1.009,0.233 2.053,0.233C2.422,0.233 2.794,0.182 3.172,0.082C3.64,-0.25 4.019,-0.788 4.307,-1.528C4.597,-2.269 4.742,-3.095 4.742,-4.007C4.742,-5.41 4.438,-6.545 3.832,-7.412C3.225,-8.282 2.422,-8.715 1.418,-8.715C0.962,-8.715 0.49,-8.627 0,-8.449M1.637,-10.019C3.182,-10.019 4.456,-9.469 5.46,-8.373C6.46,-7.277 6.962,-5.848 6.962,-4.093C6.962,-2.387 6.479,-1.02 5.509,0.016C4.542,1.052 3.289,1.57 1.752,1.57C0.207,1.57 -1.066,1.041 -2.063,-0.009C-3.059,-1.06 -3.557,-2.442 -3.557,-4.158C-3.557,-5.882 -3.066,-7.293 -2.085,-8.382C-1.108,-9.473 0.134,-10.019 1.637,-10.019" style="fill:rgb(35,31,32);fill-rule:nonzero;"/>
            </g>
        </g>
        <g transform="matrix(4.16667,0,0,4.16667,0,0)">
            <g transform="matrix(1,0,0,1,239.319,116.083)">
                <path d="M0,-8.449C-0.412,-8.126 -0.743,-7.595 -0.994,-6.854C-1.244,-6.114 -1.371,-5.303 -1.371,-4.425C-1.371,-3.012 -1.06,-1.882 -0.442,-1.036C0.174,-0.19 1.007,0.233 2.054,0.233C2.421,0.233 2.794,0.182 3.171,0.082C3.64,-0.25 4.018,-0.788 4.305,-1.528C4.597,-2.269 4.742,-3.095 4.742,-4.007C4.742,-5.41 4.437,-6.545 3.832,-7.412C3.225,-8.282 2.421,-8.715 1.419,-8.715C0.962,-8.715 0.489,-8.627 0,-8.449M1.636,-10.019C3.183,-10.019 4.457,-9.469 5.457,-8.373C6.461,-7.277 6.962,-5.848 6.962,-4.093C6.962,-2.387 6.479,-1.02 5.509,0.016C4.541,1.052 3.291,1.57 1.753,1.57C0.205,1.57 -1.067,1.041 -2.063,-0.009C-3.059,-1.06 -3.555,-2.442 -3.555,-4.158C-3.555,-5.882 -3.066,-7.293 -2.088,-8.382C-1.107,-9.473 0.134,-10.019 1.636,-10.019" style="fill:rgb(35,31,32);fill-rule:nonzero;"/>
            </g>
        </g>
        <g transform="matrix(4.16667,0,0,4.16667,0,0)">
            <g transform="matrix(1,0,0,1,261.575,107.367)">
                <path d="M0,9.167L-0.015,9.948L-4.909,9.948L-5.009,9.416C-4.608,9.204 -4.131,9.003 -3.572,8.814L-3.64,3.588L-3.406,0.767L-6.661,9.649L-6.661,9.682L-8.347,10.068L-11.668,0.851L-11.387,3.588L-11.504,8.933L-10.086,9.167L-10.101,9.948L-14.443,9.948L-14.541,9.416C-14.197,9.238 -13.708,9.033 -13.074,8.797L-12.788,0.098L-14.142,-0.118L-14.124,-0.901L-10.233,-0.901L-7.146,7.729L-4.022,-0.901L-0.551,-0.901L-0.451,-0.367C-0.784,-0.178 -1.22,0.005 -1.754,0.183L-1.605,8.916L0,9.167Z" style="fill:rgb(35,31,32);fill-rule:nonzero;"/>
            </g>
        </g>
        <g transform="matrix(4.16667,0,0,4.16667,0,0)">
            <g transform="matrix(1,0,0,1,270.439,109.353)">
                <path d="M0,5.009C0,5.977 -0.369,6.768 -1.108,7.381C-1.848,7.991 -2.784,8.299 -3.906,8.299C-4.542,8.299 -5.223,8.198 -5.951,7.999C-6.678,7.798 -7.249,7.525 -7.662,7.181L-7.646,7.129L-7.662,6.544C-7.662,5.689 -7.59,4.915 -7.446,4.224L-6.392,4.224L-5.86,6.429C-5.157,6.852 -4.324,7.063 -3.355,7.063L-2.987,7.048C-2.365,6.733 -2.054,6.216 -2.054,5.493C-2.054,4.87 -2.432,4.342 -3.188,3.907L-5.824,2.554C-7.016,1.855 -7.614,0.958 -7.614,-0.133C-7.614,-1.069 -7.229,-1.828 -6.461,-2.412C-5.691,-2.994 -4.714,-3.29 -3.523,-3.29C-2.607,-3.29 -1.604,-3.105 -0.5,-2.738C-0.443,-1.803 -0.516,-0.819 -0.716,0.217L-1.836,0.217L-2.153,-1.518C-2.775,-1.887 -3.511,-2.07 -4.356,-2.07L-4.856,-2.052C-5.381,-1.731 -5.64,-1.252 -5.64,-0.618C-5.64,-0.028 -5.241,0.48 -4.44,0.901L-1.935,2.136C-0.644,2.861 0,3.818 0,5.009" style="fill:rgb(35,31,32);fill-rule:nonzero;"/>
            </g>
        </g>
        <g transform="matrix(4.16667,0,0,4.16667,0,0)">
            <g transform="matrix(1,0,0,1,289.279,107.215)">
                <path d="M0,9.283L-0.017,10.1L-4.941,10.1L-5.041,9.568L-3.622,8.967L-3.622,5.326L-8.582,5.326L-8.582,9.085L-6.994,9.283L-7.012,10.1L-11.935,10.1L-12.038,9.568L-10.617,8.967L-10.617,0.168L-11.904,0L-11.886,-0.817L-7.264,-0.817L-7.163,-0.283C-7.44,-0.128 -7.914,0.073 -8.582,0.318L-8.582,4.024L-3.622,4.024L-3.622,0.168L-4.909,0L-4.891,-0.817L-0.268,-0.817L-0.167,-0.283C-0.446,-0.128 -0.918,0.073 -1.586,0.318L-1.586,9.085L0,9.283Z" style="fill:rgb(35,31,32);fill-rule:nonzero;"/>
            </g>
        </g>
        <g transform="matrix(4.16667,0,0,4.16667,0,0)">
            <g transform="matrix(1,0,0,1,292.963,116.083)">
                <path d="M0,-8.449C-0.414,-8.126 -0.745,-7.595 -0.995,-6.854C-1.247,-6.114 -1.371,-5.303 -1.371,-4.425C-1.371,-3.012 -1.062,-1.882 -0.443,-1.036C0.174,-0.19 1.006,0.233 2.054,0.233C2.418,0.233 2.792,0.182 3.171,0.082C3.638,-0.25 4.017,-0.788 4.305,-1.528C4.595,-2.269 4.742,-3.095 4.742,-4.007C4.742,-5.41 4.437,-6.545 3.831,-7.412C3.224,-8.282 2.418,-8.715 1.418,-8.715C0.961,-8.715 0.489,-8.627 0,-8.449M1.636,-10.019C3.183,-10.019 4.455,-9.469 5.457,-8.373C6.461,-7.277 6.962,-5.848 6.962,-4.093C6.962,-2.387 6.475,-1.02 5.507,0.016C4.542,1.052 3.287,1.57 1.753,1.57C0.204,1.57 -1.067,1.041 -2.063,-0.009C-3.059,-1.06 -3.558,-2.442 -3.558,-4.158C-3.558,-5.882 -3.068,-7.293 -2.088,-8.382C-1.108,-9.473 0.133,-10.019 1.636,-10.019" style="fill:rgb(35,31,32);fill-rule:nonzero;"/>
            </g>
        </g>
        <g transform="matrix(4.16667,0,0,4.16667,0,0)">
            <g transform="matrix(1,0,0,1,310.96,117.316)">
                <path d="M0,-11.017L0.015,-10.584C0.015,-9.716 -0.064,-8.803 -0.219,-7.846L-1.355,-7.846L-1.571,-9.733L-4.008,-9.865L-4.008,-1.051L-2.19,-0.817L-2.205,0L-7.697,0L-7.796,-0.533L-6.578,-1L-6.044,-1.184L-6.044,-9.865L-8.482,-9.733L-8.701,-7.846L-9.819,-7.846C-9.974,-8.759 -10.051,-9.638 -10.051,-10.484L-10.036,-11.017L-4.994,-10.952C-3.224,-10.952 -1.56,-10.973 0,-11.017" style="fill:rgb(35,31,32);fill-rule:nonzero;"/>
            </g>
        </g>
        <g transform="matrix(4.16667,0,0,4.16667,0,0)">
            <g transform="matrix(1,0,0,1,319.958,109.552)">
                <path d="M0,4.61C0.022,5.723 -0.044,6.776 -0.2,7.763L-8.449,7.763L-8.549,7.231L-7.129,6.63L-7.129,-2.201L-8.331,-2.319L-8.314,-3.153L-0.151,-3.153L-0.133,-2.686C-0.133,-1.896 -0.211,-1.068 -0.366,-0.2L-1.52,-0.2L-1.77,-1.801L-5.092,-2.018L-5.092,1.772L-1.367,1.469L-1.367,3.04L-5.092,2.891L-5.092,6.53L-1.637,6.33L-1.135,4.526L0,4.61Z" style="fill:rgb(35,31,32);fill-rule:nonzero;"/>
            </g>
        </g>
        <g transform="matrix(4.16667,0,0,4.16667,0,0)">
            <g transform="matrix(1,0,0,1,329.829,109.987)">
                <path d="M0,3.74C0.021,5.198 -0.049,6.396 -0.218,7.328L-8.798,7.328L-8.9,6.796L-7.48,6.195L-7.48,-2.603L-8.767,-2.771L-8.749,-3.588L-4.125,-3.588L-4.024,-3.055C-4.304,-2.899 -4.776,-2.699 -5.442,-2.453L-5.442,6.079L-1.755,5.846L-1.204,3.658L0,3.74Z" style="fill:rgb(35,31,32);fill-rule:nonzero;"/>
            </g>
        </g>
        <g transform="matrix(4.16667,0,0,4.16667,0,0)">
            <g transform="matrix(1,0,0,1,338.789,109.353)">
                <path d="M0,5.009C0,5.977 -0.369,6.768 -1.11,7.381C-1.851,7.991 -2.782,8.299 -3.904,8.299C-4.542,8.299 -5.222,8.198 -5.951,7.999C-6.682,7.798 -7.25,7.525 -7.661,7.181L-7.645,7.129L-7.661,6.544C-7.661,5.689 -7.591,4.915 -7.446,4.224L-6.393,4.224L-5.859,6.429C-5.159,6.852 -4.323,7.063 -3.355,7.063L-2.989,7.048C-2.364,6.733 -2.052,6.216 -2.052,5.493C-2.052,4.87 -2.429,4.342 -3.189,3.907L-5.827,2.554C-7.018,1.855 -7.612,0.958 -7.612,-0.133C-7.612,-1.069 -7.228,-1.828 -6.461,-2.412C-5.692,-2.994 -4.713,-3.29 -3.521,-3.29C-2.61,-3.29 -1.601,-3.105 -0.5,-2.738C-0.445,-1.803 -0.516,-0.819 -0.717,0.217L-1.834,0.217L-2.152,-1.518C-2.775,-1.887 -3.511,-2.07 -4.357,-2.07L-4.857,-2.052C-5.381,-1.731 -5.643,-1.252 -5.643,-0.618C-5.643,-0.028 -5.241,0.48 -4.439,0.901L-1.935,2.136C-0.646,2.861 0,3.818 0,5.009" style="fill:rgb(35,31,32);fill-rule:nonzero;"/>
            </g>
        </g>
        <g transform="matrix(4.16667,0,0,4.16667,0,0)">
            <g transform="matrix(1,0,0,1,341.103,108.452)">
                <path d="M0,-1.518L0.663,-1.518L0.663,-1.885L-1.096,-1.885L-1.096,-1.518L-0.432,-1.518L-0.432,0.367L0,0.367L0,-1.518Z" style="fill:rgb(3,4,5);fill-rule:nonzero;"/>
            </g>
        </g>
        <g transform="matrix(4.16667,0,0,4.16667,0,0)">
            <g transform="matrix(1,0,0,1,344.998,106.567)">
                <path d="M0,2.252L0,0L-0.716,0L-1.313,1.669L-1.325,1.669L-1.941,0L-2.635,0L-2.635,2.252L-2.199,2.252L-2.232,0.362L-2.229,0.362L-1.504,2.252L-1.125,2.252L-0.414,0.352L-0.4,0.352L-0.433,2.252L0,2.252Z" style="fill:rgb(3,4,5);fill-rule:nonzero;"/>
            </g>
        </g>
        <g transform="matrix(4.16667,0,0,4.16667,0,0)">
            <g transform="matrix(1,0,0,1,285.418,51.9372)">
                <path d="M0,26.854L-13.421,26.854L-9.821,12.663C-11.961,11.541 -13.421,9.302 -13.421,6.717C-13.421,3.041 -10.47,0.061 -6.81,0.011L-6.812,0.004L-6.608,0.004L-6.608,0.011C-2.951,0.061 0,3.041 0,6.717C0,9.302 -1.46,11.541 -3.599,12.663L0,26.854ZM-6.711,-13.813C-21.753,-13.813 -33.951,-1.615 -33.951,13.429C-33.951,28.472 -21.753,40.667 -6.711,40.667C8.33,40.667 20.529,28.472 20.529,13.429C20.529,-1.615 8.33,-13.813 -6.711,-13.813" style="fill:rgb(35,31,32);"/>
            </g>
        </g>
        <g transform="matrix(4.16667,0,0,4.16667,0,0)">
            <g transform="matrix(1,0,0,1,278.706,93.8433)">
                <path d="M0,-56.953C-15.701,-56.953 -28.474,-44.18 -28.474,-28.477C-28.474,-12.775 -15.701,-0.001 0,-0.001C15.702,-0.001 28.479,-12.775 28.479,-28.477C28.479,-44.18 15.702,-56.953 0,-56.953M0,1.863C-16.73,1.863 -30.338,-11.749 -30.338,-28.477C-30.338,-45.207 -16.73,-58.816 0,-58.816C16.732,-58.816 30.343,-45.207 30.343,-28.477C30.343,-11.749 16.732,1.863 0,1.863" style="fill:rgb(35,31,32);fill-rule:nonzero;"/>
            </g>
        </g>
        <g transform="matrix(4.16667,0,0,4.16667,0,0)">
            <g transform="matrix(1,0,0,1,265.332,131.782)">
                <path d="M0,-5.846L0.007,-5.615C0.007,-5.155 -0.033,-4.67 -0.115,-4.163L-0.718,-4.163L-0.833,-5.163L-2.126,-5.234L-2.126,-0.558L-1.16,-0.434L-1.169,0L-4.083,0L-4.136,-0.283L-3.49,-0.532L-3.206,-0.629L-3.206,-5.234L-4.5,-5.163L-4.613,-4.163L-5.208,-4.163C-5.291,-4.647 -5.332,-5.113 -5.332,-5.562L-5.323,-5.846L-2.648,-5.81C-1.708,-5.81 -0.828,-5.822 0,-5.846" style="fill:rgb(35,31,32);fill-rule:nonzero;"/>
            </g>
        </g>
        <g transform="matrix(4.16667,0,0,4.16667,0,0)">
            <g transform="matrix(1,0,0,1,269.441,126.53)">
                <path d="M0,4.641L0.177,4.65C0.549,4.65 0.836,4.552 1.037,4.357C1.237,4.162 1.338,3.927 1.338,3.649C1.338,3.33 1.213,3.057 0.961,2.83C0.71,2.602 0.393,2.489 0.009,2.489L-0.796,2.489L-0.796,4.57L0,4.641ZM-0.796,0.124L-0.796,1.957L-0.362,1.957C0.127,1.957 0.491,1.863 0.732,1.674C0.97,1.485 1.088,1.252 1.088,0.974C1.088,0.75 1.017,0.541 0.869,0.35C0.719,0.158 0.531,0.039 0.301,-0.009L-0.796,0.124ZM1.037,2.17C1.509,2.24 1.875,2.413 2.136,2.688C2.394,2.962 2.525,3.283 2.525,3.649C2.525,4.121 2.317,4.504 1.9,4.796C1.485,5.088 0.926,5.24 0.223,5.252L-2.577,5.252L-2.629,4.969L-1.877,4.65L-1.877,-0.035L-2.506,-0.097L-2.497,-0.54C-1.469,-0.588 -0.623,-0.611 0.044,-0.611C0.712,-0.611 1.243,-0.475 1.639,-0.204C2.036,0.067 2.233,0.428 2.233,0.877C2.233,1.184 2.132,1.461 1.926,1.71C1.723,1.957 1.427,2.111 1.037,2.17" style="fill:rgb(35,31,32);fill-rule:nonzero;"/>
            </g>
        </g>
        <g transform="matrix(4.16667,0,0,4.16667,0,0)">
            <g transform="matrix(1,0,0,1,276.429,126.424)">
                <path d="M0,4.924L-0.008,5.358L-2.621,5.358L-2.673,5.075L-1.921,4.756L-1.921,0.089L-2.603,0L-2.594,-0.434L-0.142,-0.434L-0.087,-0.151C-0.237,-0.068 -0.487,0.038 -0.84,0.168L-0.84,4.818L0,4.924Z" style="fill:rgb(35,31,32);fill-rule:nonzero;"/>
            </g>
        </g>
        <g transform="matrix(4.16667,0,0,4.16667,0,0)">
            <g transform="matrix(1,0,0,1,282.71,127.894)">
                <path d="M0,1.983C0.01,2.757 -0.029,3.391 -0.117,3.888L-4.669,3.888L-4.722,3.605L-3.968,3.285L-3.968,-1.382L-4.65,-1.471L-4.643,-1.905L-2.19,-1.905L-2.136,-1.621C-2.284,-1.538 -2.535,-1.433 -2.888,-1.303L-2.888,3.223L-0.931,3.099L-0.64,1.939L0,1.983Z" style="fill:rgb(35,31,32);fill-rule:nonzero;"/>
            </g>
        </g>
        <g transform="matrix(4.16667,0,0,4.16667,0,0)">
            <g transform="matrix(1,0,0,1,286.967,126.424)">
                <path d="M0,4.924L-0.008,5.358L-2.621,5.358L-2.674,5.075L-1.922,4.756L-1.922,0.089L-2.602,0L-2.594,-0.434L-0.142,-0.434L-0.088,-0.151C-0.236,-0.068 -0.486,0.038 -0.841,0.168L-0.841,4.818L0,4.924Z" style="fill:rgb(35,31,32);fill-rule:nonzero;"/>
            </g>
        </g>
        <g transform="matrix(4.16667,0,0,4.16667,0,0)">
            <g transform="matrix(1,0,0,1,292.902,127.557)">
                <path d="M0,2.657C0,3.17 -0.197,3.59 -0.589,3.914C-0.981,4.24 -1.479,4.402 -2.073,4.402C-2.409,4.402 -2.771,4.348 -3.159,4.242C-3.544,4.136 -3.847,3.991 -4.064,3.808L-4.057,3.782L-4.064,3.472C-4.064,3.017 -4.028,2.607 -3.952,2.241L-3.392,2.241L-3.11,3.41C-2.737,3.634 -2.295,3.746 -1.781,3.746L-1.586,3.737C-1.256,3.573 -1.09,3.297 -1.09,2.914C-1.09,2.583 -1.291,2.303 -1.693,2.073L-3.091,1.355C-3.723,0.983 -4.039,0.508 -4.039,-0.071C-4.039,-0.568 -3.836,-0.97 -3.428,-1.28C-3.021,-1.59 -2.501,-1.745 -1.868,-1.745C-1.385,-1.745 -0.85,-1.647 -0.266,-1.453C-0.237,-0.957 -0.275,-0.434 -0.381,0.116L-0.975,0.116L-1.143,-0.807C-1.475,-1.001 -1.863,-1.098 -2.313,-1.098L-2.577,-1.09C-2.855,-0.918 -2.994,-0.665 -2.994,-0.328C-2.994,-0.015 -2.782,0.254 -2.356,0.478L-1.028,1.134C-0.344,1.517 0,2.025 0,2.657" style="fill:rgb(35,31,32);fill-rule:nonzero;"/>
            </g>
        </g>
        <g transform="matrix(4.16667,0,0,4.16667,0,0)">
            <g transform="matrix(1,0,0,1,297.434,126.424)">
                <path d="M0,4.924L-0.006,5.358L-2.619,5.358L-2.672,5.075L-1.92,4.756L-1.92,0.089L-2.602,0L-2.593,-0.434L-0.141,-0.434L-0.087,-0.151C-0.234,-0.068 -0.484,0.038 -0.838,0.168L-0.838,4.818L0,4.924Z" style="fill:rgb(35,31,32);fill-rule:nonzero;"/>
            </g>
        </g>
        <g transform="matrix(4.16667,0,0,4.16667,0,0)">
            <g transform="matrix(-1,0,0,1,507.11,-762.698)">
                <rect x="250.158" y="891.264" width="6.794" height="0.64" style="fill:rgb(35,31,32);"/>
            </g>
        </g>
        <g transform="matrix(4.16667,0,0,4.16667,0,0)">
            <g transform="matrix(1,0,0,1,0,-762.7)">
                <rect x="250.311" y="891.45" width="6.488" height="0.27" style="fill:rgb(35,31,32);"/>
            </g>
        </g>
        <g transform="matrix(4.16667,0,0,4.16667,0,0)">
            <g transform="matrix(-1,0,0,1,607.723,-762.698)">
                <rect x="300.464" y="891.264" width="6.795" height="0.64" style="fill:rgb(35,31,32);"/>
            </g>
        </g>
        <g transform="matrix(4.16667,0,0,4.16667,0,0)">
            <g transform="matrix(1,0,0,1,0,-762.7)">
                <rect x="300.617" y="891.45" width="6.488" height="0.27" style="fill:rgb(35,31,32);"/>
            </g>
        </g>
    </g>
</svg>
