<?xml version="1.0" encoding="UTF-8" standalone="no"?>
<!DOCTYPE svg PUBLIC "-//W3C//DTD SVG 1.1//EN" "http://www.w3.org/Graphics/SVG/1.1/DTD/svg11.dtd">
<svg width="100%" height="100%" viewBox="0 0 557 348" version="1.1" xmlns="http://www.w3.org/2000/svg" xmlns:xlink="http://www.w3.org/1999/xlink" xml:space="preserve" xmlns:serif="http://www.serif.com/" style="fill-rule:evenodd;clip-rule:evenodd;stroke-linejoin:round;stroke-miterlimit:2;">
    <g transform="matrix(1,0,0,1,-2198.59,-133.423)">
        <g transform="matrix(4.16667,0,0,4.16667,0,0)">
            <g transform="matrix(1,0,0,1,531.146,109.422)">
                <path d="M0,-0.031C0.507,0.058 0.933,0.103 1.281,0.103C2.198,0.103 2.851,-0.121 3.233,-0.57C3.614,-1.019 3.805,-1.575 3.805,-2.235C3.805,-3.291 3.419,-4.025 2.643,-4.441L0,-4.19L0,-0.031ZM7.037,4.731L7.019,5.555L4.056,5.555L1.7,1.231L0,1.25L0,4.514L1.666,4.731L1.648,5.555L-3.38,5.555L-3.484,5.018L-2.052,4.412L-2.052,-4.49L-3.262,-4.609L-3.247,-5.45L1.786,-5.586C3.029,-5.586 4.043,-5.272 4.823,-4.642C5.604,-4.014 5.992,-3.217 5.992,-2.254C5.992,-1.58 5.787,-0.952 5.38,-0.368C4.969,0.217 4.4,0.647 3.669,0.928L5.928,4.596L7.037,4.731Z" style="fill:rgb(35,31,32);fill-rule:nonzero;"/>
            </g>
        </g>
        <g transform="matrix(4.16667,0,0,4.16667,0,0)">
            <g transform="matrix(1,0,0,1,542.811,113.733)">
                <path d="M0,-8.517C-0.415,-8.191 -0.75,-7.655 -1.002,-6.909C-1.254,-6.162 -1.38,-5.345 -1.38,-4.46C-1.38,-3.036 -1.067,-1.896 -0.445,-1.043C0.178,-0.191 1.018,0.235 2.069,0.235C2.441,0.235 2.817,0.185 3.198,0.084C3.669,-0.251 4.052,-0.794 4.342,-1.539C4.634,-2.287 4.781,-3.119 4.781,-4.039C4.781,-5.453 4.475,-6.598 3.863,-7.471C3.251,-8.348 2.441,-8.785 1.43,-8.785C0.97,-8.785 0.494,-8.697 0,-8.517M1.649,-10.1C3.208,-10.1 4.492,-9.545 5.504,-8.44C6.513,-7.335 7.019,-5.895 7.019,-4.125C7.019,-2.406 6.531,-1.027 5.554,0.017C4.578,1.062 3.315,1.583 1.767,1.583C0.208,1.583 -1.074,1.05 -2.079,-0.009C-3.084,-1.068 -3.586,-2.461 -3.586,-4.191C-3.586,-5.929 -3.091,-7.351 -2.103,-8.449C-1.116,-9.55 0.136,-10.1 1.649,-10.1" style="fill:rgb(35,31,32);fill-rule:nonzero;"/>
            </g>
        </g>
        <g transform="matrix(4.16667,0,0,4.16667,0,0)">
            <g transform="matrix(1,0,0,1,554.781,113.733)">
                <path d="M0,-8.517C-0.416,-8.191 -0.749,-7.655 -1.002,-6.909C-1.255,-6.162 -1.382,-5.345 -1.382,-4.46C-1.382,-3.036 -1.069,-1.896 -0.446,-1.043C0.176,-0.191 1.016,0.235 2.07,0.235C2.44,0.235 2.816,0.185 3.197,0.084C3.669,-0.251 4.05,-0.794 4.339,-1.539C4.634,-2.287 4.779,-3.119 4.779,-4.039C4.779,-5.453 4.473,-6.598 3.862,-7.471C3.251,-8.348 2.44,-8.785 1.43,-8.785C0.97,-8.785 0.493,-8.697 0,-8.517M1.649,-10.1C3.208,-10.1 4.492,-9.545 5.501,-8.44C6.514,-7.335 7.018,-5.895 7.018,-4.125C7.018,-2.406 6.532,-1.027 5.554,0.017C4.577,1.062 3.316,1.583 1.768,1.583C0.206,1.583 -1.076,1.05 -2.08,-0.009C-3.084,-1.068 -3.584,-2.461 -3.584,-4.191C-3.584,-5.929 -3.092,-7.351 -2.105,-8.449C-1.116,-9.55 0.135,-10.1 1.649,-10.1" style="fill:rgb(35,31,32);fill-rule:nonzero;"/>
            </g>
        </g>
        <g transform="matrix(4.16667,0,0,4.16667,0,0)">
            <g transform="matrix(1,0,0,1,577.217,104.948)">
                <path d="M0,9.242L-0.016,10.03L-4.948,10.03L-5.05,9.492C-4.646,9.28 -4.165,9.077 -3.602,8.887L-3.669,3.618L-3.434,0.773L-6.715,9.728L-6.715,9.762L-8.414,10.15L-11.763,0.858L-11.479,3.618L-11.597,9.006L-10.168,9.242L-10.183,10.03L-14.561,10.03L-14.659,9.492C-14.312,9.314 -13.818,9.107 -13.18,8.869L-12.892,0.099L-14.257,-0.118L-14.238,-0.908L-10.316,-0.908L-7.204,7.792L-4.055,-0.908L-0.555,-0.908L-0.455,-0.369C-0.791,-0.179 -1.229,0.006 -1.768,0.186L-1.618,8.989L0,9.242Z" style="fill:rgb(35,31,32);fill-rule:nonzero;"/>
            </g>
        </g>
        <g transform="matrix(4.16667,0,0,4.16667,0,0)">
            <g transform="matrix(1,0,0,1,586.153,106.951)">
                <path d="M0,5.049C0,6.025 -0.372,6.822 -1.116,7.44C-1.862,8.055 -2.806,8.366 -3.938,8.366C-4.579,8.366 -5.266,8.264 -5.999,8.063C-6.732,7.861 -7.308,7.585 -7.724,7.239L-7.708,7.187L-7.724,6.597C-7.724,5.734 -7.651,4.954 -7.507,4.257L-6.443,4.257L-5.907,6.48C-5.199,6.907 -4.358,7.12 -3.382,7.12L-3.012,7.104C-2.384,6.787 -2.07,6.266 -2.07,5.538C-2.07,4.909 -2.451,4.377 -3.213,3.939L-5.871,2.575C-7.073,1.87 -7.676,0.965 -7.676,-0.135C-7.676,-1.078 -7.287,-1.843 -6.513,-2.432C-5.737,-3.019 -4.752,-3.317 -3.552,-3.317C-2.629,-3.317 -1.616,-3.131 -0.504,-2.761C-0.447,-1.817 -0.52,-0.826 -0.722,0.217L-1.851,0.217L-2.17,-1.531C-2.798,-1.904 -3.539,-2.087 -4.392,-2.087L-4.896,-2.069C-5.425,-1.745 -5.686,-1.263 -5.686,-0.624C-5.686,-0.029 -5.283,0.484 -4.477,0.908L-1.95,2.153C-0.648,2.884 0,3.848 0,5.049" style="fill:rgb(35,31,32);fill-rule:nonzero;"/>
            </g>
        </g>
        <g transform="matrix(4.16667,0,0,4.16667,0,0)">
            <g transform="matrix(1,0,0,1,605.145,104.796)">
                <path d="M0,9.358L-0.017,10.182L-4.981,10.182L-5.081,9.645L-3.65,9.039L-3.65,5.369L-8.651,5.369L-8.651,9.158L-7.05,9.358L-7.068,10.182L-12.032,10.182L-12.136,9.645L-10.703,9.039L-10.703,0.169L-12.001,0L-11.981,-0.824L-7.322,-0.824L-7.221,-0.286C-7.5,-0.129 -7.978,0.073 -8.651,0.32L-8.651,4.057L-3.65,4.057L-3.65,0.169L-4.948,0L-4.93,-0.824L-0.271,-0.824L-0.168,-0.286C-0.45,-0.129 -0.926,0.073 -1.599,0.32L-1.599,9.158L0,9.358Z" style="fill:rgb(35,31,32);fill-rule:nonzero;"/>
            </g>
        </g>
        <g transform="matrix(4.16667,0,0,4.16667,0,0)">
            <g transform="matrix(1,0,0,1,608.86,113.733)">
                <path d="M0,-8.517C-0.417,-8.191 -0.751,-7.655 -1.003,-6.909C-1.258,-6.162 -1.382,-5.345 -1.382,-4.46C-1.382,-3.036 -1.071,-1.896 -0.446,-1.043C0.176,-0.191 1.014,0.235 2.07,0.235C2.438,0.235 2.814,0.185 3.197,0.084C3.668,-0.251 4.049,-0.794 4.339,-1.539C4.633,-2.287 4.779,-3.119 4.779,-4.039C4.779,-5.453 4.474,-6.598 3.862,-7.471C3.25,-8.348 2.438,-8.785 1.43,-8.785C0.969,-8.785 0.492,-8.697 0,-8.517M1.648,-10.1C3.208,-10.1 4.491,-9.545 5.501,-8.44C6.513,-7.335 7.019,-5.895 7.019,-4.125C7.019,-2.406 6.527,-1.027 5.552,0.017C4.579,1.062 3.313,1.583 1.768,1.583C0.206,1.583 -1.076,1.05 -2.079,-0.009C-3.083,-1.068 -3.587,-2.461 -3.587,-4.191C-3.587,-5.929 -3.093,-7.351 -2.105,-8.449C-1.117,-9.55 0.134,-10.1 1.648,-10.1" style="fill:rgb(35,31,32);fill-rule:nonzero;"/>
            </g>
        </g>
        <g transform="matrix(4.16667,0,0,4.16667,0,0)">
            <g transform="matrix(1,0,0,1,627.003,114.977)">
                <path d="M0,-11.106L0.016,-10.669C0.016,-9.794 -0.063,-8.874 -0.22,-7.909L-1.366,-7.909L-1.583,-9.812L-4.04,-9.944L-4.04,-1.059L-2.207,-0.823L-2.223,0L-7.759,0L-7.859,-0.537L-6.631,-1.008L-6.093,-1.193L-6.093,-9.944L-8.551,-9.812L-8.771,-7.909L-9.898,-7.909C-10.055,-8.829 -10.133,-9.715 -10.133,-10.568L-10.117,-11.106L-5.034,-11.041C-3.25,-11.041 -1.571,-11.061 0,-11.106" style="fill:rgb(35,31,32);fill-rule:nonzero;"/>
            </g>
        </g>
        <g transform="matrix(4.16667,0,0,4.16667,0,0)">
            <g transform="matrix(1,0,0,1,636.074,107.151)">
                <path d="M0,4.647C0.022,5.77 -0.044,6.83 -0.202,7.826L-8.518,7.826L-8.618,7.289L-7.187,6.684L-7.187,-2.219L-8.398,-2.338L-8.382,-3.179L-0.152,-3.179L-0.134,-2.708C-0.134,-1.912 -0.213,-1.077 -0.369,-0.202L-1.532,-0.202L-1.784,-1.816L-5.134,-2.035L-5.134,1.786L-1.378,1.481L-1.378,3.064L-5.134,2.914L-5.134,6.583L-1.649,6.381L-1.144,4.563L0,4.647Z" style="fill:rgb(35,31,32);fill-rule:nonzero;"/>
            </g>
        </g>
        <g transform="matrix(4.16667,0,0,4.16667,0,0)">
            <g transform="matrix(1,0,0,1,646.025,107.59)">
                <path d="M0,3.769C0.021,5.24 -0.049,6.447 -0.22,7.387L-8.869,7.387L-8.973,6.85L-7.541,6.245L-7.541,-2.626L-8.838,-2.795L-8.819,-3.618L-4.158,-3.618L-4.057,-3.081C-4.339,-2.924 -4.814,-2.722 -5.486,-2.474L-5.486,6.127L-1.769,5.893L-1.214,3.686L0,3.769Z" style="fill:rgb(35,31,32);fill-rule:nonzero;"/>
            </g>
        </g>
        <g transform="matrix(4.16667,0,0,4.16667,0,0)">
            <g transform="matrix(1,0,0,1,655.058,106.951)">
                <path d="M0,5.049C0,6.025 -0.372,6.822 -1.119,7.44C-1.866,8.055 -2.805,8.366 -3.937,8.366C-4.578,8.366 -5.264,8.264 -5.999,8.063C-6.736,7.861 -7.31,7.585 -7.723,7.239L-7.707,7.187L-7.723,6.597C-7.723,5.734 -7.652,4.954 -7.506,4.257L-6.444,4.257L-5.906,6.48C-5.201,6.907 -4.358,7.12 -3.382,7.12L-3.013,7.104C-2.384,6.787 -2.069,6.266 -2.069,5.538C-2.069,4.909 -2.449,4.377 -3.215,3.939L-5.874,2.575C-7.074,1.87 -7.674,0.965 -7.674,-0.135C-7.674,-1.078 -7.286,-1.843 -6.513,-2.432C-5.738,-3.019 -4.751,-3.317 -3.55,-3.317C-2.632,-3.317 -1.613,-3.131 -0.505,-2.761C-0.448,-1.817 -0.521,-0.826 -0.723,0.217L-1.85,0.217L-2.169,-1.531C-2.798,-1.904 -3.54,-2.087 -4.393,-2.087L-4.896,-2.069C-5.425,-1.745 -5.689,-1.263 -5.689,-0.624C-5.689,-0.029 -5.284,0.484 -4.476,0.908L-1.95,2.153C-0.652,2.884 0,3.848 0,5.049" style="fill:rgb(35,31,32);fill-rule:nonzero;"/>
            </g>
        </g>
        <g transform="matrix(4.16667,0,0,4.16667,0,0)">
            <g transform="matrix(1,0,0,1,657.391,106.041)">
                <path d="M0,-1.53L0.669,-1.53L0.669,-1.9L-1.104,-1.9L-1.104,-1.53L-0.435,-1.53L-0.435,0.37L0,0.37L0,-1.53Z" style="fill:rgb(3,4,5);fill-rule:nonzero;"/>
            </g>
        </g>
        <g transform="matrix(4.16667,0,0,4.16667,0,0)">
            <g transform="matrix(1,0,0,1,661.317,104.142)">
                <path d="M0,2.27L0,0L-0.723,0L-1.324,1.683L-1.336,1.683L-1.958,0L-2.656,0L-2.656,2.27L-2.217,2.27L-2.25,0.365L-2.248,0.365L-1.517,2.27L-1.134,2.27L-0.418,0.355L-0.403,0.355L-0.437,2.27L0,2.27Z" style="fill:rgb(3,4,5);fill-rule:nonzero;"/>
            </g>
        </g>
        <g transform="matrix(4.16667,0,0,4.16667,0,0)">
            <g transform="matrix(1,0,0,1,598.125,49.0703)">
                <path d="M0,27.07L-13.531,27.07L-9.901,12.764C-12.06,11.633 -13.531,9.376 -13.531,6.77C-13.531,3.064 -10.556,0.059 -6.866,0.009L-6.867,0.002L-6.662,0.002L-6.662,0.009C-2.976,0.059 0,3.064 0,6.77C0,9.376 -1.473,11.633 -3.629,12.764L0,27.07ZM-6.766,-13.926C-21.931,-13.926 -34.227,-1.63 -34.227,13.536C-34.227,28.701 -21.931,40.996 -6.766,40.996C8.396,40.996 20.695,28.701 20.695,13.536C20.695,-1.63 8.396,-13.926 -6.766,-13.926" style="fill:rgb(35,31,32);"/>
            </g>
        </g>
        <g transform="matrix(4.16667,0,0,4.16667,0,0)">
            <g transform="matrix(1,0,0,1,591.357,91.3146)">
                <path d="M0,-57.415C-15.828,-57.415 -28.705,-44.538 -28.705,-28.708C-28.705,-12.878 -15.828,-0.001 0,-0.001C15.83,-0.001 28.711,-12.878 28.711,-28.708C28.711,-44.538 15.83,-57.415 0,-57.415M0,1.878C-16.865,1.878 -30.584,-11.844 -30.584,-28.708C-30.584,-45.574 -16.865,-59.293 0,-59.293C16.867,-59.293 30.589,-45.574 30.589,-28.708C30.589,-11.844 16.867,1.878 0,1.878" style="fill:rgb(35,31,32);fill-rule:nonzero;"/>
            </g>
        </g>
    </g>
</svg>
