<?xml version="1.0" encoding="UTF-8" standalone="no"?>
<!DOCTYPE svg PUBLIC "-//W3C//DTD SVG 1.1//EN" "http://www.w3.org/Graphics/SVG/1.1/DTD/svg11.dtd">
<svg width="100%" height="100%" viewBox="0 0 730 250" version="1.1" xmlns="http://www.w3.org/2000/svg" xmlns:xlink="http://www.w3.org/1999/xlink" xml:space="preserve" xmlns:serif="http://www.serif.com/" style="fill-rule:evenodd;clip-rule:evenodd;stroke-linejoin:round;stroke-miterlimit:2;">
    <g transform="matrix(1,0,0,1,-2156.94,-3569.15)">
        <g transform="matrix(4.16667,0,0,4.16667,0,0)">
            <g transform="matrix(1,0,0,1,583.326,900.651)">
                <path d="M0,-43.533C0.206,-43.533 0.31,-43.326 0.311,-42.915L0.328,-32.516C0.328,-32.268 0.317,-32.052 0.298,-31.866C0.276,-31.68 0.164,-31.588 -0.042,-31.587C-0.29,-31.587 -0.476,-31.875 -0.601,-32.453C-1.141,-34.432 -1.824,-36.061 -2.651,-37.339C-3.479,-38.616 -4.368,-39.604 -5.317,-40.305C-6.269,-41.005 -7.249,-41.488 -8.26,-41.755C-9.272,-42.021 -10.252,-42.154 -11.201,-42.152C-12.356,-42.15 -13.366,-41.963 -14.232,-41.591C-15.099,-41.218 -15.82,-40.721 -16.396,-40.101C-16.974,-39.481 -17.405,-38.769 -17.692,-37.964C-17.98,-37.159 -18.123,-36.344 -18.122,-35.518C-18.119,-33.991 -17.839,-32.722 -17.28,-31.714C-16.722,-30.703 -15.803,-29.971 -14.522,-29.52C-13.531,-29.191 -12.376,-28.874 -11.055,-28.567C-9.733,-28.26 -8.619,-28.023 -7.711,-27.861C-4.037,-27.165 -1.261,-25.653 0.621,-23.325C2.503,-20.997 3.446,-17.934 3.453,-14.138C3.456,-12.364 3.159,-10.631 2.564,-8.938C1.969,-7.245 1.073,-5.737 -0.121,-4.415C-1.315,-3.092 -2.82,-2.028 -4.634,-1.22C-6.449,-0.413 -8.573,-0.007 -11.007,-0.003C-12.575,0 -13.927,-0.143 -15.062,-0.429C-16.197,-0.717 -17.188,-1.064 -18.034,-1.476C-18.882,-1.887 -19.604,-2.33 -20.203,-2.804C-20.803,-3.276 -21.309,-3.72 -21.722,-4.132L-23.636,-1.22C-24.006,-0.641 -24.336,-0.351 -24.624,-0.351C-24.831,-0.351 -24.965,-0.454 -25.027,-0.66C-25.09,-0.866 -25.121,-1.094 -25.121,-1.341L-25.142,-13.472C-25.142,-13.884 -25.111,-14.153 -25.05,-14.277C-24.988,-14.401 -24.896,-14.463 -24.771,-14.463C-24.565,-14.464 -24.38,-14.175 -24.213,-13.597C-23.799,-12.113 -23.26,-10.628 -22.597,-9.143C-21.935,-7.659 -21.086,-6.319 -20.052,-5.125C-19.02,-3.929 -17.77,-2.963 -16.303,-2.222C-14.837,-1.481 -13.072,-1.113 -11.009,-1.117C-9.482,-1.119 -8.152,-1.389 -7.018,-1.928C-5.885,-2.466 -4.957,-3.128 -4.236,-3.913C-3.516,-4.698 -2.98,-5.555 -2.631,-6.484C-2.282,-7.414 -2.108,-8.29 -2.109,-9.116C-2.112,-10.849 -2.455,-12.251 -3.138,-13.323C-3.82,-14.394 -5.132,-15.197 -7.072,-15.73C-7.443,-15.853 -7.98,-15.997 -8.682,-16.161C-9.384,-16.324 -10.158,-16.499 -11.004,-16.683C-11.851,-16.867 -12.706,-17.061 -13.573,-17.267C-14.44,-17.471 -15.245,-17.676 -15.988,-17.882C-19.168,-18.784 -21.46,-20.224 -22.865,-22.203C-24.272,-24.181 -24.978,-26.635 -24.982,-29.565C-24.985,-31.215 -24.688,-32.866 -24.093,-34.518C-23.498,-36.169 -22.623,-37.636 -21.47,-38.917C-20.317,-40.197 -18.885,-41.242 -17.174,-42.05C-15.463,-42.857 -13.473,-43.262 -11.202,-43.266C-8.975,-43.27 -7.139,-42.964 -5.692,-42.347C-4.247,-41.73 -3.091,-41.134 -2.224,-40.558L-0.618,-42.974C-0.413,-43.346 -0.207,-43.532 0,-43.533" style="fill:rgb(4,0,0);fill-rule:nonzero;"/>
            </g>
        </g>
        <g transform="matrix(4.16667,0,0,4.16667,0,0)">
            <g transform="matrix(1,0,0,1,601.12,881.005)">
                <path d="M0,-5.533C0.495,-6.029 1.113,-6.473 1.855,-6.867C2.598,-7.26 3.463,-7.591 4.453,-7.861C5.442,-8.131 6.598,-8.267 7.919,-8.269C10.519,-8.274 12.571,-7.74 14.079,-6.671C15.587,-5.599 16.344,-3.951 16.347,-1.722L16.38,17.836L19.722,17.83L19.724,18.821L3.755,18.847L3.753,17.857L7.096,17.852L7.061,-3.379C7.059,-4.369 6.86,-5.111 6.469,-5.606C6.075,-6.1 5.384,-6.346 4.394,-6.345C3.856,-6.345 3.259,-6.167 2.6,-5.816C1.939,-5.464 1.321,-5.009 0.745,-4.451C0.168,-3.893 -0.316,-3.283 -0.706,-2.623C-1.098,-1.962 -1.292,-1.301 -1.291,-0.641L-1.261,17.865L2.082,17.86L2.083,18.85L-13.886,18.876L-13.887,17.886L-10.545,17.881L-10.61,-21.67L-13.951,-21.046L-13.953,-22.036L-1.331,-24.409L-1.297,-4.107C-0.927,-4.561 -0.494,-5.037 0,-5.533" style="fill:rgb(4,0,0);fill-rule:nonzero;"/>
            </g>
        </g>
        <g transform="matrix(4.16667,0,0,4.16667,0,0)">
            <g transform="matrix(1,0,0,1,630.48,884.073)">
                <path d="M0,5.091C0.003,6.783 0.046,8.269 0.131,9.547C0.216,10.826 0.402,11.899 0.693,12.765C0.983,13.63 1.418,14.279 1.996,14.712C2.574,15.144 3.359,15.36 4.35,15.358C5.34,15.356 6.123,15.138 6.7,14.704C7.277,14.27 7.709,13.619 7.997,12.752C8.284,11.885 8.468,10.813 8.549,9.532C8.629,8.254 8.668,6.769 8.665,5.076L8.657,0.248C8.654,-1.401 8.61,-2.887 8.526,-4.208C8.44,-5.528 8.253,-6.631 7.964,-7.518C7.673,-8.404 7.238,-9.085 6.66,-9.558C6.081,-10.032 5.298,-10.268 4.307,-10.266C3.316,-10.265 2.533,-10.026 1.956,-9.551C1.379,-9.075 0.946,-8.393 0.66,-7.507C0.372,-6.618 0.188,-5.514 0.108,-4.194C0.027,-2.873 -0.011,-1.388 -0.008,0.263L0,5.091ZM-8.74,-2.539C-8.165,-4.211 -7.312,-5.698 -6.179,-7C-5.047,-8.302 -3.604,-9.356 -1.852,-10.164C-0.1,-10.971 1.953,-11.377 4.305,-11.381C6.657,-11.385 8.71,-10.985 10.466,-10.184C12.221,-9.383 13.666,-8.332 14.804,-7.034C15.94,-5.737 16.799,-4.253 17.38,-2.582C17.96,-0.912 18.252,0.789 18.255,2.523C18.257,4.255 17.971,5.958 17.396,7.63C16.821,9.303 15.968,10.789 14.835,12.091C13.702,13.393 12.26,14.447 10.508,15.255C8.755,16.063 6.703,16.468 4.352,16.472C1.999,16.476 -0.055,16.077 -1.81,15.275C-3.564,14.474 -5.011,13.424 -6.146,12.126C-7.284,10.827 -8.143,9.344 -8.723,7.674C-9.304,6.003 -9.595,4.302 -9.598,2.569C-9.601,0.836 -9.315,-0.867 -8.74,-2.539" style="fill:rgb(4,0,0);fill-rule:nonzero;"/>
            </g>
        </g>
        <g transform="matrix(4.16667,0,0,4.16667,0,0)">
            <g transform="matrix(1,0,0,1,669.96,904.064)">
                <path d="M0,-19.979C-0.003,-22.125 -0.078,-23.827 -0.225,-25.085C-0.372,-26.343 -0.579,-27.302 -0.849,-27.962C-1.118,-28.622 -1.449,-29.054 -1.841,-29.26C-2.234,-29.466 -2.677,-29.569 -3.172,-29.568C-3.791,-29.567 -4.41,-29.37 -5.028,-28.977C-5.646,-28.583 -6.202,-28.078 -6.696,-27.458C-7.191,-26.837 -7.592,-26.166 -7.9,-25.444C-8.209,-24.721 -8.362,-24.03 -8.361,-23.37L-8.34,-10.496C-8.339,-10 -8.194,-9.454 -7.903,-8.856C-7.614,-8.258 -7.231,-7.681 -6.756,-7.125C-6.281,-6.569 -5.732,-6.105 -5.113,-5.735C-4.494,-5.365 -3.834,-5.18 -3.132,-5.181C-2.596,-5.182 -2.121,-5.327 -1.709,-5.617C-1.298,-5.906 -0.968,-6.413 -0.722,-7.135C-0.475,-7.857 -0.291,-8.858 -0.169,-10.138C-0.048,-11.416 0.012,-13.047 0.009,-15.028L0,-19.979ZM-17.588,11.369L-17.656,-29.729L-20.997,-29.167L-20.999,-30.219L-8.376,-32.344L-8.368,-27.393C-7.792,-28.466 -6.989,-29.407 -5.959,-30.213C-4.929,-31.019 -3.526,-31.424 -1.752,-31.427C0.27,-31.43 2.045,-31.031 3.573,-30.229C5.101,-29.426 6.371,-28.376 7.385,-27.079C8.397,-25.781 9.163,-24.296 9.683,-22.625C10.2,-20.956 10.462,-19.253 10.465,-17.521C10.468,-15.788 10.212,-14.085 9.699,-12.414C9.186,-10.742 8.425,-9.254 7.417,-7.954C6.407,-6.652 5.141,-5.597 3.615,-4.791C2.09,-3.983 0.315,-3.578 -1.705,-3.575C-3.563,-3.572 -4.966,-3.878 -5.916,-4.496C-6.866,-5.114 -7.673,-5.937 -8.334,-6.967L-8.304,11.353L-4.961,11.347L-4.96,12.337L-20.929,12.365L-20.93,11.375L-17.588,11.369Z" style="fill:rgb(4,0,0);fill-rule:nonzero;"/>
            </g>
        </g>
        <g transform="matrix(4.16667,0,0,4.16667,0,0)">
            <g transform="matrix(1,0,0,1,691.369,892.015)">
                <path d="M0,6.981C-0.969,7.952 -2.133,8.44 -3.495,8.442C-4.856,8.444 -6.023,7.96 -6.994,6.993C-7.966,6.026 -8.452,4.86 -8.454,3.499C-8.457,2.137 -7.975,0.97 -7.006,-0C-6.038,-0.971 -4.873,-1.458 -3.512,-1.461C-2.149,-1.463 -0.983,-0.98 -0.012,-0.012C0.959,0.956 1.446,2.121 1.448,3.482C1.451,4.843 0.968,6.011 0,6.981" style="fill:rgb(4,0,0);fill-rule:nonzero;"/>
            </g>
        </g>
        <g transform="matrix(4.16667,0,0,4.16667,0,0)">
            <g transform="matrix(1,0,0,1,526.777,894.579)">
                <path d="M0,-8.788L-0.178,-8.217L-3.245,-8.212L-5.904,1.423C-6.046,1.993 -6.116,2.47 -6.116,2.85C-6.114,3.968 -5.602,4.525 -4.579,4.524C-4.08,4.524 -3.545,4.315 -2.976,3.898C-2.405,3.481 -1.919,2.891 -1.516,2.129C-1.421,1.915 -1.291,1.808 -1.124,1.808C-0.981,1.807 -0.91,1.902 -0.909,2.092C-0.909,2.188 -0.922,2.259 -0.944,2.307C-1.371,3.234 -1.994,4.015 -2.813,4.646C-3.633,5.277 -4.685,5.594 -5.969,5.596C-6.968,5.598 -7.741,5.331 -8.288,4.798C-8.837,4.264 -9.111,3.532 -9.112,2.606C-9.113,2.178 -9.043,1.69 -8.9,1.143L-6.312,-8.207L-8.773,-8.203L-8.596,-8.773L-6.135,-8.778L-4.823,-13.631L-1.543,-14.386L-3.067,-8.783L0,-8.788Z" style="fill:rgb(4,0,0);fill-rule:nonzero;"/>
            </g>
        </g>
        <g transform="matrix(4.16667,0,0,4.16667,0,0)">
            <g transform="matrix(1,0,0,1,535.928,888.972)">
                <path d="M0,-2.108C-0.227,-2.476 -0.649,-2.66 -1.268,-2.659C-1.529,-2.659 -1.88,-2.551 -2.319,-2.337C-2.759,-2.122 -3.21,-1.818 -3.673,-1.424C-4.136,-1.032 -4.575,-0.561 -4.99,-0.013C-5.405,0.535 -5.696,1.129 -5.861,1.771L-8.343,10.799L-11.41,10.804L-4.958,-12.605L-7.454,-12.6L-7.349,-13.171L-1.748,-13.18L-5.081,-0.976C-4.393,-1.786 -3.656,-2.423 -2.873,-2.888C-2.089,-3.353 -1.114,-3.587 0.051,-3.588C1.05,-3.59 1.858,-3.347 2.478,-2.862C3.097,-2.376 3.407,-1.727 3.408,-0.92C3.408,-0.658 3.396,-0.443 3.374,-0.277C3.35,-0.111 3.291,0.139 3.196,0.472L1.069,8.287C1.021,8.407 0.998,8.525 0.999,8.644L0.999,8.929C1,9.357 1.19,9.571 1.57,9.57C1.809,9.57 2.188,9.289 2.711,8.73C3.232,8.171 3.838,7.225 4.525,5.891C4.62,5.725 4.738,5.642 4.882,5.641C5.048,5.641 5.131,5.736 5.132,5.926C5.132,6.022 5.12,6.093 5.097,6.14C4.764,6.736 4.426,7.325 4.083,7.908C3.738,8.491 3.365,9.014 2.962,9.479C2.558,9.943 2.107,10.325 1.608,10.622C1.109,10.92 0.551,11.07 -0.067,11.071C-0.758,11.072 -1.251,10.882 -1.549,10.502C-1.847,10.123 -1.996,9.624 -1.997,9.005C-1.997,8.72 -1.975,8.447 -1.927,8.185C-1.88,7.923 -1.81,7.614 -1.715,7.257L0.094,0.584C0.259,0.013 0.342,-0.474 0.341,-0.879C0.34,-1.33 0.227,-1.74 0,-2.108" style="fill:rgb(4,0,0);fill-rule:nonzero;"/>
            </g>
        </g>
        <g transform="matrix(4.16667,0,0,4.16667,0,0)">
            <g transform="matrix(1,0,0,1,548.687,893.443)">
                <path d="M0,-1.393C0.57,-1.62 1.063,-1.929 1.479,-2.323C1.894,-2.715 2.221,-3.163 2.458,-3.662C2.694,-4.162 2.813,-4.697 2.812,-5.267C2.811,-5.933 2.66,-6.474 2.363,-6.889C2.064,-7.305 1.547,-7.512 0.811,-7.511C0.43,-7.51 0.067,-7.468 -0.277,-7.384C-0.622,-7.3 -0.955,-7.133 -1.275,-6.883C-1.596,-6.633 -1.904,-6.288 -2.201,-5.848C-2.498,-5.407 -2.788,-4.818 -3.072,-4.081C-3.214,-3.7 -3.355,-3.289 -3.498,-2.849C-3.64,-2.409 -3.794,-1.915 -3.959,-1.369C-3.722,-1.297 -3.447,-1.226 -3.139,-1.156C-2.829,-1.084 -2.401,-1.05 -1.854,-1.051C-1.188,-1.052 -0.57,-1.165 0,-1.393M-4.703,1.451C-4.822,1.856 -4.893,2.207 -4.916,2.503C-4.939,2.801 -4.95,3.08 -4.95,3.341C-4.948,4.127 -4.698,4.786 -4.197,5.32C-3.697,5.854 -2.996,6.121 -2.092,6.119C-1.355,6.118 -0.665,6.003 -0.023,5.777C0.618,5.55 1.188,5.257 1.687,4.9C2.186,4.543 2.613,4.138 2.969,3.685C3.325,3.233 3.598,2.781 3.787,2.329C3.858,2.138 3.977,2.043 4.144,2.043C4.333,2.043 4.429,2.137 4.43,2.328C4.43,2.422 4.417,2.494 4.394,2.542C4.181,3.018 3.89,3.5 3.522,3.988C3.154,4.476 2.697,4.922 2.151,5.328C1.604,5.733 0.963,6.06 0.227,6.311C-0.51,6.562 -1.342,6.688 -2.27,6.69C-3.102,6.691 -3.887,6.544 -4.624,6.248C-5.362,5.953 -5.998,5.544 -6.534,5.021C-7.07,4.499 -7.494,3.87 -7.804,3.132C-8.114,2.396 -8.27,1.587 -8.271,0.708C-8.273,-0.481 -8.038,-1.605 -7.563,-2.664C-7.09,-3.723 -6.432,-4.658 -5.589,-5.467C-4.746,-6.277 -3.754,-6.915 -2.613,-7.38C-1.473,-7.846 -0.237,-8.08 1.095,-8.082C2.402,-8.084 3.461,-7.794 4.271,-7.213C5.08,-6.632 5.485,-5.842 5.487,-4.844C5.488,-4.011 5.258,-3.31 4.795,-2.738C4.333,-2.166 3.757,-1.702 3.067,-1.344C2.378,-0.987 1.63,-0.73 0.822,-0.574C0.014,-0.417 -0.735,-0.339 -1.425,-0.338C-2.162,-0.337 -2.715,-0.383 -3.084,-0.478C-3.453,-0.573 -3.804,-0.679 -4.137,-0.797L-4.703,1.451Z" style="fill:rgb(4,0,0);fill-rule:nonzero;"/>
            </g>
        </g>
    </g>
</svg>
