<svg id="Layer_1" data-name="Layer 1" xmlns="http://www.w3.org/2000/svg" viewBox="0 0 196.37 196.37"><defs><style>.cls-1{fill:#fff;stroke:#000;stroke-miterlimit:10;}.cls-2{fill:#040402;}</style></defs><rect class="cls-1" x="40.07" y="36.96" width="117.33" height="130.22"/><g id="Layer_1-2" data-name="Layer 1"><path class="cls-2" d="M100,1.81A98.19,98.19,0,1,0,198.19,100,98.19,98.19,0,0,0,100,1.81Zm41.78,115.38c0,17.46-10.34,36.14-39.35,36.14-22.82,0-39.37-14.11-39.37-33.58V99.4H90.64v19.4c0,6.33,4.14,13.06,11.79,13.06,7.17,0,11.8-5.11,11.8-13.06V106.9c0-9.35-4.49-14.3-9.52-19l-11-9.66c-2.84-2.48-9.46-9.62-9.46-22.19V46.63h28.52v2.71A20.9,20.9,0,0,0,120,65.67l11.9,10.92c6.81,6.3,9.85,13.57,9.85,23.55v17Z" transform="translate(-1.81 -1.81)"/></g></svg>