<svg id="Layer_1" data-name="Layer 1" xmlns="http://www.w3.org/2000/svg" viewBox="0 0 196.38 196.38"><defs><style>.cls-1{fill:#040402;}.cls-2{fill:#fff;stroke:#000;stroke-miterlimit:10;}</style></defs><rect class="cls-1" width="196.38" height="196.38"/><rect class="cls-2" x="40.07" y="36.96" width="117.33" height="130.22"/><g id="Layer_1-2" data-name="Layer 1-2"><path class="cls-1" d="M98.19,0a98.19,98.19,0,1,0,98.19,98.19h0A98.19,98.19,0,0,0,98.19,0ZM140,115.38c0,17.46-10.34,36.14-39.35,36.14-22.82,0-39.37-14.11-39.37-33.58V97.59H88.83V117c0,6.33,4.14,13.06,11.79,13.06,7.17,0,11.8-5.11,11.8-13.06v-11.9c0-9.35-4.49-14.3-9.52-19l-11-9.66c-2.84-2.48-9.46-9.62-9.46-22.19V44.82H111v2.71a20.92,20.92,0,0,0,7.23,16.33l11.9,10.92c6.81,6.3,9.85,13.57,9.85,23.55v17Z" transform="translate(0)"/></g></svg>