<?xml version="1.0" standalone="no"?>
<!DOCTYPE svg PUBLIC "-//W3C//DTD SVG 20010904//EN"
 "http://www.w3.org/TR/2001/REC-SVG-20010904/DTD/svg10.dtd">
<svg version="1.0" xmlns="http://www.w3.org/2000/svg"
 width="700.000000pt" height="700.000000pt" viewBox="0 0 700.000000 700.000000"
 preserveAspectRatio="xMidYMid meet">
<metadata>
Created by potrace 1.14, written by Peter Selinger 2001-2017
</metadata>
<g transform="translate(0.000000,700.000000) scale(0.100000,-0.100000)"
fill="#000000" stroke="none">
<path d="M0 3500 l0 -3500 3500 0 3500 0 0 3500 0 3500 -3500 0 -3500 0 0
-3500z m3963 1768 c5 -146 19 -203 73 -311 56 -113 105 -167 389 -427 349
-319 423 -410 494 -607 64 -174 66 -200 66 -733 0 -428 -2 -495 -18 -574 -56
-273 -168 -487 -343 -656 -239 -229 -542 -342 -959 -357 -379 -14 -699 69
-978 254 -167 110 -341 319 -413 498 -80 196 -94 313 -94 813 l0 352 495 0
495 0 0 -383 c0 -421 3 -449 62 -559 152 -286 586 -281 723 9 48 100 57 194
52 513 -3 248 -7 295 -25 360 -60 219 -141 322 -512 645 -113 98 -227 201
-254 229 -103 108 -202 289 -240 441 -28 109 -36 198 -36 413 l0 212 509 0
508 0 6 -132z"/>
</g>
</svg>
