<?xml version="1.0" encoding="UTF-8" standalone="no"?>
<!DOCTYPE svg PUBLIC "-//W3C//DTD SVG 1.1//EN" "http://www.w3.org/Graphics/SVG/1.1/DTD/svg11.dtd">
<svg width="100%" height="100%" viewBox="0 0 541 404" version="1.1" xmlns="http://www.w3.org/2000/svg" xmlns:xlink="http://www.w3.org/1999/xlink" xml:space="preserve" xmlns:serif="http://www.serif.com/" style="fill-rule:evenodd;clip-rule:evenodd;stroke-linejoin:round;stroke-miterlimit:2;">
    <g transform="matrix(1,0,0,1,-1496.48,-137.184)">
        <g transform="matrix(4.16667,0,0,4.16667,0,0)">
            <g transform="matrix(1,0,0,1,362.651,109.99)">
                <path d="M0,-0.033C0.506,0.057 0.935,0.102 1.284,0.102C2.207,0.102 2.859,-0.123 3.242,-0.574C3.625,-1.024 3.816,-1.581 3.816,-2.245C3.816,-3.304 3.428,-4.041 2.651,-4.457L0,-4.204L0,-0.033ZM7.059,4.746L7.042,5.573L4.069,5.573L1.706,1.234L0,1.25L0,4.526L1.672,4.746L1.655,5.573L-3.395,5.573L-3.496,5.033L-2.06,4.425L-2.06,-4.508L-3.276,-4.626L-3.259,-5.47L1.79,-5.606C3.04,-5.606 4.055,-5.291 4.838,-4.66C5.62,-4.03 6.012,-3.23 6.012,-2.262C6.012,-1.587 5.806,-0.956 5.395,-0.371C4.984,0.215 4.413,0.648 3.681,0.929L5.944,4.611L7.059,4.746Z" style="fill:rgb(255,255,255);fill-rule:nonzero;"/>
            </g>
        </g>
        <g transform="matrix(4.16667,0,0,4.16667,0,0)">
            <g transform="matrix(1,0,0,1,373.459,114.314)">
                <path d="M0,-8.545C-0.417,-8.218 -0.752,-7.681 -1.005,-6.933C-1.258,-6.184 -1.385,-5.364 -1.385,-4.476C-1.385,-3.045 -1.072,-1.903 -0.448,-1.047C0.177,-0.192 1.019,0.236 2.077,0.236C2.448,0.236 2.825,0.185 3.208,0.084C3.681,-0.253 4.063,-0.796 4.357,-1.545C4.649,-2.294 4.796,-3.13 4.796,-4.053C4.796,-5.472 4.489,-6.62 3.875,-7.498C3.262,-8.376 2.448,-8.816 1.435,-8.816C0.973,-8.816 0.495,-8.725 0,-8.545M1.655,-10.132C3.219,-10.132 4.508,-9.578 5.521,-8.469C6.535,-7.36 7.042,-5.916 7.042,-4.138C7.042,-2.415 6.552,-1.031 5.573,0.017C4.593,1.063 3.327,1.587 1.773,1.587C0.208,1.587 -1.079,1.055 -2.086,-0.008C-3.094,-1.073 -3.597,-2.471 -3.597,-4.205C-3.597,-5.95 -3.102,-7.374 -2.111,-8.478C-1.121,-9.581 0.135,-10.132 1.655,-10.132" style="fill:rgb(255,255,255);fill-rule:nonzero;"/>
            </g>
        </g>
        <g transform="matrix(4.16667,0,0,4.16667,0,0)">
            <g transform="matrix(1,0,0,1,385.347,114.314)">
                <path d="M0,-8.545C-0.417,-8.218 -0.751,-7.681 -1.005,-6.933C-1.258,-6.184 -1.385,-5.364 -1.385,-4.476C-1.385,-3.045 -1.072,-1.903 -0.447,-1.047C0.177,-0.192 1.019,0.236 2.077,0.236C2.449,0.236 2.826,0.185 3.208,0.084C3.681,-0.253 4.064,-0.796 4.357,-1.545C4.649,-2.294 4.796,-3.13 4.796,-4.053C4.796,-5.472 4.489,-6.62 3.875,-7.498C3.262,-8.376 2.449,-8.816 1.435,-8.816C0.974,-8.816 0.495,-8.725 0,-8.545M1.655,-10.132C3.22,-10.132 4.509,-9.578 5.522,-8.469C6.535,-7.36 7.042,-5.916 7.042,-4.138C7.042,-2.415 6.552,-1.031 5.573,0.017C4.593,1.063 3.327,1.587 1.773,1.587C0.208,1.587 -1.078,1.055 -2.085,-0.008C-3.093,-1.073 -3.597,-2.471 -3.597,-4.205C-3.597,-5.95 -3.102,-7.374 -2.111,-8.478C-1.121,-9.581 0.135,-10.132 1.655,-10.132" style="fill:rgb(255,255,255);fill-rule:nonzero;"/>
            </g>
        </g>
        <g transform="matrix(4.16667,0,0,4.16667,0,0)">
            <g transform="matrix(1,0,0,1,407.857,105.498)">
                <path d="M0,9.271L-0.017,10.065L-4.965,10.065L-5.066,9.524C-4.661,9.311 -4.177,9.108 -3.614,8.917L-3.682,3.631L-3.445,0.777L-6.738,9.761L-6.738,9.794L-8.444,10.183L-11.804,0.861L-11.518,3.631L-11.636,9.035L-10.2,9.271L-10.217,10.065L-14.608,10.065L-14.709,9.524C-14.36,9.345 -13.865,9.136 -13.223,8.899L-12.936,0.102L-14.304,-0.118L-14.287,-0.912L-10.352,-0.912L-7.228,7.819L-4.07,-0.912L-0.558,-0.912L-0.457,-0.372C-0.794,-0.18 -1.233,0.006 -1.773,0.186L-1.622,9.018L0,9.271Z" style="fill:rgb(255,255,255);fill-rule:nonzero;"/>
            </g>
        </g>
        <g transform="matrix(4.16667,0,0,4.16667,0,0)">
            <g transform="matrix(1,0,0,1,416.824,107.508)">
                <path d="M0,5.066C0,6.045 -0.374,6.845 -1.123,7.464C-1.872,8.083 -2.814,8.393 -3.951,8.393C-4.593,8.393 -5.283,8.292 -6.02,8.089C-6.758,7.886 -7.334,7.61 -7.751,7.261L-7.734,7.211L-7.751,6.62C-7.751,5.753 -7.678,4.971 -7.531,4.272L-6.468,4.272L-5.927,6.502C-5.218,6.93 -4.374,7.143 -3.394,7.143L-3.022,7.126C-2.392,6.812 -2.077,6.288 -2.077,5.556C-2.077,4.925 -2.46,4.391 -3.225,3.952L-5.893,2.584C-7.098,1.875 -7.7,0.968 -7.7,-0.135C-7.7,-1.08 -7.312,-1.849 -6.535,-2.44C-5.758,-3.031 -4.768,-3.327 -3.563,-3.327C-2.64,-3.327 -1.621,-3.141 -0.506,-2.769C-0.45,-1.824 -0.523,-0.827 -0.726,0.219L-1.857,0.219L-2.178,-1.537C-2.809,-1.908 -3.552,-2.094 -4.407,-2.094L-4.914,-2.077C-5.443,-1.75 -5.708,-1.267 -5.708,-0.625C-5.708,-0.028 -5.302,0.484 -4.492,0.912L-1.958,2.161C-0.653,2.894 0,3.862 0,5.066" style="fill:rgb(255,255,255);fill-rule:nonzero;"/>
            </g>
        </g>
        <g transform="matrix(4.16667,0,0,4.16667,0,0)">
            <g transform="matrix(1,0,0,1,435.923,105.348)">
                <path d="M0,9.388L-0.017,10.216L-4.999,10.216L-5.1,9.675L-3.664,9.067L-3.664,5.386L-8.68,5.386L-8.68,9.185L-7.075,9.388L-7.093,10.216L-12.074,10.216L-12.175,9.675L-10.74,9.067L-10.74,0.168L-12.041,-0.001L-12.023,-0.828L-7.346,-0.828L-7.245,-0.288C-7.526,-0.131 -8.004,0.072 -8.68,0.32L-8.68,4.069L-3.664,4.069L-3.664,0.168L-4.965,-0.001L-4.948,-0.828L-0.271,-0.828L-0.169,-0.288C-0.45,-0.131 -0.929,0.072 -1.604,0.32L-1.604,9.185L0,9.388Z" style="fill:rgb(255,255,255);fill-rule:nonzero;"/>
            </g>
        </g>
        <g transform="matrix(4.16667,0,0,4.16667,0,0)">
            <g transform="matrix(1,0,0,1,440.094,114.314)">
                <path d="M0,-8.545C-0.416,-8.218 -0.751,-7.681 -1.005,-6.933C-1.258,-6.184 -1.385,-5.364 -1.385,-4.476C-1.385,-3.045 -1.072,-1.903 -0.447,-1.047C0.178,-0.192 1.02,0.236 2.077,0.236C2.449,0.236 2.826,0.185 3.209,0.084C3.682,-0.253 4.064,-0.796 4.357,-1.545C4.649,-2.294 4.796,-3.13 4.796,-4.053C4.796,-5.472 4.489,-6.62 3.876,-7.498C3.262,-8.376 2.449,-8.816 1.436,-8.816C0.974,-8.816 0.496,-8.725 0,-8.545M1.655,-10.132C3.22,-10.132 4.509,-9.578 5.522,-8.469C6.535,-7.36 7.042,-5.916 7.042,-4.138C7.042,-2.415 6.553,-1.031 5.573,0.017C4.594,1.063 3.327,1.587 1.773,1.587C0.208,1.587 -1.078,1.055 -2.085,-0.008C-3.093,-1.073 -3.597,-2.471 -3.597,-4.205C-3.597,-5.95 -3.102,-7.374 -2.11,-8.478C-1.12,-9.581 0.136,-10.132 1.655,-10.132" style="fill:rgb(255,255,255);fill-rule:nonzero;"/>
            </g>
        </g>
        <g transform="matrix(4.16667,0,0,4.16667,0,0)">
            <g transform="matrix(1,0,0,1,457.403,115.564)">
                <path d="M0,-11.146L0.018,-10.707C0.018,-9.829 -0.062,-8.905 -0.22,-7.938L-1.368,-7.938L-1.587,-9.846L-4.053,-9.981L-4.053,-1.064L-2.212,-0.828L-2.229,0L-7.784,0L-7.887,-0.541L-6.653,-1.014L-6.113,-1.199L-6.113,-9.981L-8.578,-9.846L-8.798,-7.938L-9.93,-7.938C-10.087,-8.86 -10.166,-9.75 -10.166,-10.606L-10.148,-11.146L-5.049,-11.079C-3.259,-11.079 -1.576,-11.101 0,-11.146" style="fill:rgb(255,255,255);fill-rule:nonzero;"/>
            </g>
        </g>
        <g transform="matrix(4.16667,0,0,4.16667,0,0)">
            <g transform="matrix(1,0,0,1,466.506,107.71)">
                <path d="M0,4.662C0.022,5.787 -0.046,6.851 -0.203,7.853L-8.545,7.853L-8.646,7.313L-7.211,6.705L-7.211,-2.228L-8.427,-2.346L-8.41,-3.191L-0.152,-3.191L-0.136,-2.718C-0.136,-1.919 -0.215,-1.08 -0.372,-0.202L-1.537,-0.202L-1.79,-1.823L-5.151,-2.042L-5.151,1.791L-1.385,1.487L-1.385,3.074L-5.151,2.922L-5.151,6.603L-1.655,6.401L-1.148,4.577L0,4.662Z" style="fill:rgb(255,255,255);fill-rule:nonzero;"/>
            </g>
        </g>
        <g transform="matrix(4.16667,0,0,4.16667,0,0)">
            <g transform="matrix(1,0,0,1,476.823,108.15)">
                <path d="M0,3.782C0.022,5.257 -0.051,6.467 -0.22,7.413L-8.899,7.413L-9.001,6.872L-7.564,6.264L-7.564,-2.635L-8.865,-2.804L-8.849,-3.631L-4.171,-3.631L-4.069,-3.091C-4.351,-2.933 -4.829,-2.731 -5.505,-2.483L-5.505,6.146L-1.772,5.91L-1.216,3.698L0,3.782Z" style="fill:rgb(255,255,255);fill-rule:nonzero;"/>
            </g>
        </g>
        <g transform="matrix(4.16667,0,0,4.16667,0,0)">
            <g transform="matrix(1,0,0,1,485.672,107.508)">
                <path d="M0,5.066C0,6.045 -0.374,6.845 -1.123,7.464C-1.871,8.083 -2.814,8.393 -3.951,8.393C-4.593,8.393 -5.282,8.292 -6.02,8.089C-6.758,7.886 -7.334,7.61 -7.751,7.261L-7.733,7.211L-7.751,6.62C-7.751,5.753 -7.678,4.971 -7.531,4.272L-6.468,4.272L-5.927,6.502C-5.218,6.93 -4.374,7.143 -3.394,7.143L-3.022,7.126C-2.392,6.812 -2.077,6.288 -2.077,5.556C-2.077,4.925 -2.46,4.391 -3.226,3.952L-5.894,2.584C-7.098,1.875 -7.7,0.968 -7.7,-0.135C-7.7,-1.08 -7.312,-1.849 -6.535,-2.44C-5.758,-3.031 -4.768,-3.327 -3.563,-3.327C-2.64,-3.327 -1.621,-3.141 -0.507,-2.769C-0.45,-1.824 -0.523,-0.827 -0.726,0.219L-1.857,0.219L-2.178,-1.537C-2.809,-1.908 -3.552,-2.094 -4.407,-2.094L-4.914,-2.077C-5.443,-1.75 -5.708,-1.267 -5.708,-0.625C-5.708,-0.028 -5.302,0.484 -4.492,0.912L-1.959,2.161C-0.652,2.894 0,3.862 0,5.066" style="fill:rgb(255,255,255);fill-rule:nonzero;"/>
            </g>
        </g>
        <g transform="matrix(4.16667,0,0,4.16667,0,0)">
            <g transform="matrix(1,0,0,1,406.145,124.587)">
                <path d="M0,4.678L-0.008,5.1L-1.436,5.1L-3.251,2.593L-3.707,3.074L-3.707,4.586L-2.938,4.687L-2.947,5.1L-5.404,5.1L-5.455,4.83L-4.737,4.527L-4.737,0.076L-5.396,-0.008L-5.387,-0.422L-3.04,-0.422L-2.989,-0.152C-3.13,-0.072 -3.369,0.029 -3.707,0.153L-3.707,2.187L-1.731,0.068L-2.305,-0.008L-2.296,-0.422L-0.33,-0.422L-0.279,-0.152C-0.414,-0.072 -0.628,0.015 -0.92,0.111L-2.567,1.858L-0.498,4.619L0,4.678Z" style="fill:rgb(255,255,255);fill-rule:nonzero;"/>
            </g>
        </g>
        <g transform="matrix(4.16667,0,0,4.16667,0,0)">
            <g transform="matrix(1,0,0,1,409.945,129.063)">
                <path d="M0,-4.273C-0.208,-4.109 -0.376,-3.84 -0.502,-3.466C-0.629,-3.092 -0.692,-2.682 -0.692,-2.238C-0.692,-1.523 -0.536,-0.951 -0.224,-0.524C0.089,-0.096 0.509,0.118 1.039,0.118C1.224,0.118 1.413,0.093 1.604,0.042C1.841,-0.127 2.032,-0.398 2.179,-0.773C2.325,-1.148 2.398,-1.565 2.398,-2.027C2.398,-2.736 2.245,-3.31 1.938,-3.749C1.631,-4.188 1.224,-4.408 0.718,-4.408C0.487,-4.408 0.248,-4.363 0,-4.273M0.828,-5.066C1.61,-5.066 2.254,-4.789 2.761,-4.235C3.268,-3.68 3.521,-2.958 3.521,-2.069C3.521,-1.208 3.276,-0.515 2.787,0.008C2.297,0.532 1.663,0.793 0.887,0.793C0.104,0.793 -0.539,0.527 -1.043,-0.004C-1.547,-0.536 -1.799,-1.236 -1.799,-2.103C-1.799,-2.975 -1.551,-3.687 -1.056,-4.239C-0.56,-4.791 0.068,-5.066 0.828,-5.066" style="fill:rgb(255,255,255);fill-rule:nonzero;"/>
            </g>
        </g>
        <g transform="matrix(4.16667,0,0,4.16667,0,0)">
            <g transform="matrix(1,0,0,1,421.326,124.587)">
                <path d="M0,4.678L-0.008,5.1L-1.435,5.1L-3.25,2.593L-3.706,3.074L-3.706,4.586L-2.938,4.687L-2.947,5.1L-5.403,5.1L-5.454,4.83L-4.736,4.527L-4.736,0.076L-5.395,-0.008L-5.387,-0.422L-3.039,-0.422L-2.989,-0.152C-3.129,-0.072 -3.369,0.029 -3.706,0.153L-3.706,2.187L-1.73,0.068L-2.305,-0.008L-2.296,-0.422L-0.329,-0.422L-0.278,-0.152C-0.414,-0.072 -0.627,0.015 -0.92,0.111L-2.566,1.858L-0.498,4.619L0,4.678Z" style="fill:rgb(255,255,255);fill-rule:nonzero;"/>
            </g>
        </g>
        <g transform="matrix(4.16667,0,0,4.16667,0,0)">
            <g transform="matrix(1,0,0,1,429.77,124.58)">
                <path d="M0,4.694L-0.009,5.108L-2.5,5.108L-2.55,4.838L-1.833,4.534L-1.833,2.693L-4.34,2.693L-4.34,4.593L-3.538,4.694L-3.547,5.108L-6.038,5.108L-6.088,4.838L-5.371,4.534L-5.371,0.084L-6.021,0L-6.012,-0.414L-3.673,-0.414L-3.623,-0.144C-3.764,-0.065 -4.002,0.036 -4.34,0.16L-4.34,2.034L-1.833,2.034L-1.833,0.084L-2.482,0L-2.475,-0.414L-0.136,-0.414L-0.085,-0.144C-0.226,-0.065 -0.465,0.036 -0.803,0.16L-0.803,4.593L0,4.694Z" style="fill:rgb(255,255,255);fill-rule:nonzero;"/>
            </g>
        </g>
        <g transform="matrix(4.16667,0,0,4.16667,0,0)">
            <g transform="matrix(1,0,0,1,436.931,129.688)">
                <path d="M0,-5.573L0.008,-5.353C0.008,-4.914 -0.031,-4.453 -0.11,-3.969L-0.684,-3.969L-0.794,-4.923L-2.026,-4.99L-2.026,-0.532L-1.106,-0.414L-1.114,0L-3.893,0L-3.943,-0.27L-3.327,-0.507L-3.057,-0.6L-3.057,-4.99L-4.29,-4.923L-4.399,-3.969L-4.965,-3.969C-5.044,-4.43 -5.083,-4.875 -5.083,-5.302L-5.075,-5.573L-2.524,-5.539C-1.63,-5.539 -0.788,-5.551 0,-5.573" style="fill:rgb(255,255,255);fill-rule:nonzero;"/>
            </g>
        </g>
        <g transform="matrix(4.16667,0,0,4.16667,0,0)">
            <g transform="matrix(1,0,0,1,442.249,126.158)">
                <path d="M0,1.334L-0.844,-0.853L-1.696,1.334L0,1.334ZM2.364,3.116L2.356,3.529L-0.101,3.529L-0.151,3.259C0.034,3.158 0.293,3.051 0.625,2.938L0.229,1.917L-1.916,1.917L-2.338,3.006L-1.511,3.116L-1.52,3.529L-3.757,3.529L-3.808,3.259C-3.604,3.152 -3.371,3.054 -3.106,2.963L-1.182,-1.723L-1.267,-1.934L-0.379,-2.195L1.757,3.04L2.364,3.116Z" style="fill:rgb(255,255,255);fill-rule:nonzero;"/>
            </g>
        </g>
        <g transform="matrix(4.16667,0,0,4.16667,0,0)">
            <g transform="matrix(1,0,0,1,0,-766.635)">
                <rect x="390.626" y="893.229" width="6.892" height="0.647" style="fill:rgb(255,255,255);"/>
            </g>
        </g>
        <g transform="matrix(4.16667,0,0,4.16667,0,0)">
            <g transform="matrix(1,0,0,1,0,-766.635)">
                <rect x="447.497" y="893.229" width="6.892" height="0.647" style="fill:rgb(255,255,255);"/>
            </g>
        </g>
        <g transform="matrix(4.16667,0,0,4.16667,0,0)">
            <g transform="matrix(1,0,0,1,429.246,49.8851)">
                <path d="M0,26.932L-13.46,26.932L-9.85,12.7C-11.996,11.575 -13.46,9.328 -13.46,6.736C-13.46,3.049 -10.501,0.06 -6.83,0.01L-6.831,0.003L-6.627,0.003L-6.627,0.01C-2.959,0.06 0,3.049 0,6.736C0,9.328 -1.464,11.575 -3.609,12.7L0,26.932ZM-6.73,-13.854C-21.817,-13.854 -34.05,-1.621 -34.05,13.468C-34.05,28.555 -21.817,40.786 -6.73,40.786C8.354,40.786 20.59,28.555 20.59,13.468C20.59,-1.621 8.354,-13.854 -6.73,-13.854" style="fill:rgb(255,255,255);"/>
            </g>
        </g>
        <g transform="matrix(4.16667,0,0,4.16667,0,0)">
            <g transform="matrix(1,0,0,1,422.514,91.9122)">
                <path d="M0,-57.119C-15.747,-57.119 -28.558,-44.308 -28.558,-28.559C-28.558,-12.811 -15.747,0 0,0C15.749,0 28.563,-12.811 28.563,-28.559C28.563,-44.308 15.749,-57.119 0,-57.119M0,1.869C-16.779,1.869 -30.427,-11.782 -30.427,-28.559C-30.427,-45.339 -16.779,-58.988 0,-58.988C16.781,-58.988 30.432,-45.339 30.432,-28.559C30.432,-11.782 16.781,1.869 0,1.869" style="fill:rgb(255,255,255);fill-rule:nonzero;"/>
            </g>
        </g>
        <g transform="matrix(4.16667,0,0,4.16667,0,0)">
            <g transform="matrix(1,0,0,1,488.183,106.565)">
                <path d="M0,-1.523L0.664,-1.523L0.664,-1.891L-1.1,-1.891L-1.1,-1.523L-0.434,-1.523L-0.434,0.368L0,0.368L0,-1.523Z" style="fill:rgb(255,255,255);fill-rule:nonzero;"/>
            </g>
        </g>
    </g>
</svg>
